<svg width="214" height="214" viewBox="0 0 214 214" fill="none" xmlns="http://www.w3.org/2000/svg">
<g clip-path="url(#clip0_1485_2680)">
<line x1="5.5" y1="51.1116" x2="208.223" y2="51.1116" stroke="#00BE00" stroke-width="10.1362"/>
<line x1="5.5" y1="61.2483" x2="208.223" y2="61.2483" stroke="#00BE00" stroke-width="10.1362"/>
<line x1="5.5" y1="40.9749" x2="208.223" y2="40.9749" stroke="#00D400" stroke-width="10.1362"/>
<line x1="5.5" y1="30.8421" x2="208.223" y2="30.8421" stroke="#00D400" stroke-width="10.1362"/>
<line x1="5.5" y1="20.7054" x2="208.223" y2="20.7054" stroke="#00EA00" stroke-width="10.1362"/>
<line x1="5.5" y1="10.5686" x2="208.223" y2="10.5686" stroke="#00EA00" stroke-width="10.1362"/>
<line x1="5.5" y1="71.385" x2="208.223" y2="71.385" stroke="#00A800" stroke-width="10.1362"/>
<line x1="5.5" y1="81.5218" x2="208.223" y2="81.5218" stroke="#00A800" stroke-width="10.1362"/>
<line x1="5.5" y1="91.6585" x2="208.223" y2="91.6585" stroke="#009200" stroke-width="10.1362"/>
<line x1="5.5" y1="101.795" x2="208.223" y2="101.795" stroke="#009200" stroke-width="10.1362"/>
<line x1="5.5" y1="111.928" x2="208.223" y2="111.928" stroke="#007C00" stroke-width="10.1362"/>
<line x1="5.5" y1="122.065" x2="208.223" y2="122.065" stroke="#007C00" stroke-width="10.1362"/>
<line x1="5.5" y1="132.201" x2="208.223" y2="132.201" stroke="#006600" stroke-width="10.1362"/>
<line x1="5.5" y1="142.338" x2="208.223" y2="142.338" stroke="#006600" stroke-width="10.1362"/>
<line x1="5.5" y1="152.475" x2="208.223" y2="152.475" stroke="#005000" stroke-width="10.1362"/>
<line x1="5.5" y1="162.612" x2="208.223" y2="162.612" stroke="#005000" stroke-width="10.1362"/>
<line x1="5.5" y1="172.748" x2="208.223" y2="172.748" stroke="#003A00" stroke-width="10.1362"/>
<line x1="5.5" y1="182.881" x2="208.223" y2="182.881" stroke="#003A00" stroke-width="10.1362"/>
<line x1="5.5" y1="193.018" x2="208.223" y2="193.018" stroke="#002400" stroke-width="10.1362"/>
<line x1="5.5" y1="203.158" x2="208.223" y2="203.158" stroke="#002400" stroke-width="10.1362"/>
<line x1="168.5" y1="48.8929" x2="142.143" y2="48.8928" stroke="#F5F5F5" stroke-width="8.7857"/>
<line x1="164.108" y1="53.2812" x2="164.108" y2="62.067" stroke="#F5F5F5" stroke-width="8.7857"/>
<line x1="164.108" y1="62.0703" x2="164.108" y2="70.856" stroke="#F5F5F5" stroke-width="8.7857"/>
<line x1="164.108" y1="70.8555" x2="164.108" y2="79.6412" stroke="#F5F5F5" stroke-width="8.7857"/>
<line x1="168.5" y1="101.612" x2="142.143" y2="101.612" stroke="#F5F5F5" stroke-width="8.7857"/>
<line x1="98.2148" y1="92.8259" x2="150.929" y2="92.8259" stroke="#F5F5F5" stroke-width="8.7857"/>
<line x1="150.928" y1="57.6741" x2="71.8564" y2="57.6741" stroke="#F5F5F5" stroke-width="8.7857"/>
<line x1="54.2861" y1="75.2478" x2="71.8575" y2="75.2478" stroke="#F5F5F5" stroke-width="8.7857"/>
<line x1="63.0723" y1="66.4626" x2="80.6437" y2="66.4626" stroke="#F5F5F5" stroke-width="8.7857"/>
<line x1="164.108" y1="79.6406" x2="164.108" y2="88.4263" stroke="#F5F5F5" stroke-width="8.7857"/>
<line x1="164.108" y1="88.4297" x2="164.108" y2="97.2154" stroke="#F5F5F5" stroke-width="8.7857"/>
<line x1="58.679" y1="79.6406" x2="58.679" y2="88.4263" stroke="#F5F5F5" stroke-width="8.7857"/>
<line x1="58.679" y1="88.4297" x2="58.679" y2="97.2154" stroke="#F5F5F5" stroke-width="8.7857"/>
<line x1="58.679" y1="97.2188" x2="58.679" y2="106.004" stroke="#F5F5F5" stroke-width="8.7857"/>
<line x1="93.8206" y1="97.2188" x2="93.8206" y2="106.004" stroke="#F5F5F5" stroke-width="8.7857"/>
<line x1="93.8206" y1="106" x2="93.8206" y2="114.786" stroke="#F5F5F5" stroke-width="8.7857"/>
<line x1="58.679" y1="106" x2="58.679" y2="114.786" stroke="#F5F5F5" stroke-width="8.7857"/>
<line x1="93.8206" y1="114.781" x2="93.8206" y2="123.567" stroke="#F5F5F5" stroke-width="8.7857"/>
<line x1="93.8206" y1="123.57" x2="93.8206" y2="132.356" stroke="#F5F5F5" stroke-width="8.7857"/>
<line x1="93.8206" y1="132.359" x2="93.8206" y2="141.145" stroke="#F5F5F5" stroke-width="8.7857"/>
<line x1="89.4277" y1="145.533" x2="106.999" y2="145.533" stroke="#F5F5F5" stroke-width="8.7857"/>
<line x1="63.0723" y1="145.53" x2="45.5009" y2="145.53" stroke="#F5F5F5" stroke-width="8.7857"/>
<line x1="58.679" y1="132.359" x2="58.679" y2="141.145" stroke="#F5F5F5" stroke-width="8.7857"/>
<line x1="58.679" y1="123.57" x2="58.679" y2="132.356" stroke="#F5F5F5" stroke-width="8.7857"/>
<line x1="58.679" y1="114.781" x2="58.679" y2="123.567" stroke="#F5F5F5" stroke-width="8.7857"/>
<line x1="49.8929" y1="149.926" x2="49.8928" y2="158.711" stroke="#F5F5F5" stroke-width="8.7857"/>
<line x1="102.608" y1="149.926" x2="102.608" y2="158.711" stroke="#F5F5F5" stroke-width="8.7857"/>
<line x1="45.5" y1="163.107" x2="107" y2="163.107" stroke="#F5F5F5" stroke-width="8.7857"/>
</g>
<rect x="5.5" y="5.5" width="202.723" height="202.723" rx="101.362" stroke="#F5F5F5" stroke-width="11"/>
<defs>
<clipPath id="clip0_1485_2680">
<rect x="5.5" y="5.5" width="202.723" height="202.723" rx="101.362" fill="white"/>
</clipPath>
</defs>
</svg>
