<svg width="203" height="203" viewBox="0 0 203 203" fill="none" xmlns="http://www.w3.org/2000/svg">
<g clip-path="url(#clip0_1489_3610)">
<line y1="45.1797" x2="202.723" y2="45.1797" stroke="#00D400" stroke-width="11"/>
<line y1="55.3164" x2="202.723" y2="55.3164" stroke="#00D400" stroke-width="11"/>
<line y1="35.043" x2="202.723" y2="35.043" stroke="#00DF00" stroke-width="11"/>
<line y1="24.9102" x2="202.723" y2="24.9102" stroke="#00DF00" stroke-width="11"/>
<line y1="14.7734" x2="202.723" y2="14.7734" stroke="#00EA00" stroke-width="11"/>
<line y1="4.63672" x2="202.723" y2="4.63672" stroke="#00EA00" stroke-width="11"/>
<line y1="65.4531" x2="202.723" y2="65.4531" stroke="#00C900" stroke-width="11"/>
<line y1="75.5898" x2="202.723" y2="75.5898" stroke="#00C900" stroke-width="11"/>
<line y1="85.7266" x2="202.723" y2="85.7266" stroke="#00BE00" stroke-width="11"/>
<line y1="95.8633" x2="202.723" y2="95.8633" stroke="#00BE00" stroke-width="11"/>
<line y1="105.996" x2="202.723" y2="105.996" stroke="#00B300" stroke-width="11"/>
<line y1="116.133" x2="202.723" y2="116.133" stroke="#00B300" stroke-width="11"/>
<line y1="126.27" x2="202.723" y2="126.27" stroke="#00A800" stroke-width="11"/>
<line y1="136.406" x2="202.723" y2="136.406" stroke="#00A800" stroke-width="11"/>
<line y1="146.543" x2="202.723" y2="146.543" stroke="#009D00" stroke-width="11"/>
<line y1="156.68" x2="202.723" y2="156.68" stroke="#009D00" stroke-width="11"/>
<line y1="166.816" x2="202.723" y2="166.816" stroke="#009200" stroke-width="11"/>
<line y1="176.949" x2="202.723" y2="176.949" stroke="#009200" stroke-width="11"/>
<line y1="187.086" x2="202.723" y2="187.086" stroke="#008700" stroke-width="11"/>
<line y1="197.227" x2="202.723" y2="197.227" stroke="#008700" stroke-width="11"/>
<path d="M157 101H133.215V92.5703H93.5723V132.213H101V156H46V132.213H53.9287V68.7842H61.8564V60.8584H69.7852V52.9297H77.7139V52.9287H133.214V45H157V101ZM77.7139 45.001H53.9287V45H77.7139V45.001Z" fill="#F5F5F5"/>
</g>
<defs>
<clipPath id="clip0_1489_3610">
<rect width="202.723" height="202.723" rx="101.362" fill="white"/>
</clipPath>
</defs>
</svg>
