<svg width="203" height="203" viewBox="0 0 203 203" fill="none" xmlns="http://www.w3.org/2000/svg">
<g clip-path="url(#clip0_1475_4562)">
<rect width="202.723" height="202.723" rx="11.5842" fill="#F5F5F5"/>
<line y1="45.6116" x2="202.723" y2="45.6116" stroke="#00D400" stroke-width="10.1362"/>
<line y1="55.7483" x2="202.723" y2="55.7483" stroke="#00D400" stroke-width="10.1362"/>
<line y1="35.4749" x2="202.723" y2="35.4749" stroke="#00DF00" stroke-width="10.1362"/>
<line y1="25.3421" x2="202.723" y2="25.3421" stroke="#00DF00" stroke-width="10.1362"/>
<line y1="15.2054" x2="202.723" y2="15.2054" stroke="#00EA00" stroke-width="10.1362"/>
<line y1="5.06863" x2="202.723" y2="5.06863" stroke="#00EA00" stroke-width="10.1362"/>
<line y1="65.885" x2="202.723" y2="65.885" stroke="#00C900" stroke-width="10.1362"/>
<line y1="76.0218" x2="202.723" y2="76.0218" stroke="#00C900" stroke-width="10.1362"/>
<line y1="86.1585" x2="202.723" y2="86.1585" stroke="#00BE00" stroke-width="10.1362"/>
<line y1="96.2952" x2="202.723" y2="96.2952" stroke="#00BE00" stroke-width="10.1362"/>
<line y1="106.428" x2="202.723" y2="106.428" stroke="#00B300" stroke-width="10.1362"/>
<line y1="116.565" x2="202.723" y2="116.565" stroke="#00B300" stroke-width="10.1362"/>
<line y1="126.701" x2="202.723" y2="126.701" stroke="#00A800" stroke-width="10.1362"/>
<line y1="136.838" x2="202.723" y2="136.838" stroke="#00A800" stroke-width="10.1362"/>
<line y1="146.975" x2="202.723" y2="146.975" stroke="#009D00" stroke-width="10.1362"/>
<line y1="157.112" x2="202.723" y2="157.112" stroke="#009D00" stroke-width="10.1362"/>
<line y1="167.248" x2="202.723" y2="167.248" stroke="#009200" stroke-width="10.1362"/>
<line y1="177.381" x2="202.723" y2="177.381" stroke="#009200" stroke-width="10.1362"/>
<line y1="187.518" x2="202.723" y2="187.518" stroke="#008700" stroke-width="10.1362"/>
<line y1="197.658" x2="202.723" y2="197.658" stroke="#008700" stroke-width="10.1362"/>
<line x1="172.315" y1="35.4782" x2="141.907" y2="35.4782" stroke="#F5F5F5" stroke-width="10.1362"/>
<line x1="167.247" y1="40.543" x2="167.247" y2="50.6791" stroke="#F5F5F5" stroke-width="10.1362"/>
<line x1="167.247" y1="50.6797" x2="167.247" y2="60.8159" stroke="#F5F5F5" stroke-width="10.1362"/>
<line x1="167.247" y1="60.8164" x2="167.247" y2="70.9526" stroke="#F5F5F5" stroke-width="10.1362"/>
<line x1="172.315" y1="96.2946" x2="141.907" y2="96.2946" stroke="#F5F5F5" stroke-width="10.1362"/>
<line x1="91.2256" y1="86.1585" x2="152.043" y2="86.1585" stroke="#F5F5F5" stroke-width="10.1362"/>
<line x1="152.043" y1="45.6111" x2="60.8175" y2="45.6111" stroke="#F5F5F5" stroke-width="10.1362"/>
<line x1="40.5449" y1="65.885" x2="60.8173" y2="65.885" stroke="#F5F5F5" stroke-width="10.1362"/>
<line x1="50.6807" y1="55.7483" x2="70.953" y2="55.7483" stroke="#F5F5F5" stroke-width="10.1362"/>
<line x1="167.247" y1="70.9531" x2="167.247" y2="81.0893" stroke="#F5F5F5" stroke-width="10.1362"/>
<line x1="167.247" y1="81.0898" x2="167.247" y2="91.226" stroke="#F5F5F5" stroke-width="10.1362"/>
<line x1="45.613" y1="70.9531" x2="45.613" y2="81.0893" stroke="#F5F5F5" stroke-width="10.1362"/>
<line x1="45.613" y1="81.0898" x2="45.613" y2="91.226" stroke="#F5F5F5" stroke-width="10.1362"/>
<line x1="45.613" y1="91.2266" x2="45.613" y2="101.363" stroke="#F5F5F5" stroke-width="10.1362"/>
<line x1="86.157" y1="91.2266" x2="86.157" y2="101.363" stroke="#F5F5F5" stroke-width="10.1362"/>
<line x1="86.157" y1="101.363" x2="86.157" y2="111.499" stroke="#F5F5F5" stroke-width="10.1362"/>
<line x1="45.613" y1="101.363" x2="45.613" y2="111.499" stroke="#F5F5F5" stroke-width="10.1362"/>
<line x1="86.157" y1="111.496" x2="86.157" y2="121.632" stroke="#F5F5F5" stroke-width="10.1362"/>
<line x1="86.157" y1="121.633" x2="86.157" y2="131.769" stroke="#F5F5F5" stroke-width="10.1362"/>
<line x1="86.157" y1="131.77" x2="86.157" y2="141.906" stroke="#F5F5F5" stroke-width="10.1362"/>
<line x1="81.0889" y1="146.975" x2="101.361" y2="146.975" stroke="#F5F5F5" stroke-width="10.1362"/>
<line x1="50.6807" y1="146.974" x2="30.4083" y2="146.974" stroke="#F5F5F5" stroke-width="10.1362"/>
<line x1="45.613" y1="131.77" x2="45.613" y2="141.906" stroke="#F5F5F5" stroke-width="10.1362"/>
<line x1="45.613" y1="121.633" x2="45.613" y2="131.769" stroke="#F5F5F5" stroke-width="10.1362"/>
<line x1="45.613" y1="111.496" x2="45.613" y2="121.632" stroke="#F5F5F5" stroke-width="10.1362"/>
<line x1="35.4763" y1="152.043" x2="35.4763" y2="162.179" stroke="#F5F5F5" stroke-width="10.1362"/>
<line x1="96.2937" y1="152.043" x2="96.2937" y2="162.179" stroke="#F5F5F5" stroke-width="10.1362"/>
<line x1="30.4082" y1="167.248" x2="101.361" y2="167.248" stroke="#F5F5F5" stroke-width="10.1362"/>
</g>
<rect x="5.06808" y="5.06808" width="192.587" height="192.587" rx="6.51611" stroke="#F5F5F5" stroke-width="10.1362"/>
<defs>
<clipPath id="clip0_1475_4562">
<rect width="202.723" height="202.723" rx="11.5842" fill="white"/>
</clipPath>
</defs>
</svg>
