<svg width="319" height="289" viewBox="0 0 319 289" fill="none" xmlns="http://www.w3.org/2000/svg">
<g clip-path="url(#clip0_1493_2266)">
<path d="M303 0.5H16C7.43959 0.5 0.5 7.43959 0.5 16V273C0.5 281.56 7.43959 288.5 16 288.5H303C311.56 288.5 318.5 281.56 318.5 273V16C318.5 7.43959 311.56 0.5 303 0.5Z" stroke="#6A7282"/>
<path d="M279.5 16H39.5C26.5213 16 16 26.5213 16 39.5C16 52.4787 26.5213 63 39.5 63H279.5C292.479 63 303 52.4787 303 39.5C303 26.5213 292.479 16 279.5 16Z" fill="#003400"/>
<path d="M49.3001 37.6005C48.7401 39.3872 48.1734 41.0405 47.6001 42.5605C47.0268 44.0805 46.4534 45.5605 45.8801 47.0005H43.9401C43.2334 44.9605 42.6068 42.8072 42.0601 40.5405C41.5268 38.2738 41.0268 35.8072 40.5601 33.1405H42.6001C42.7868 34.1805 42.9801 35.2205 43.1801 36.2605C43.3801 37.3005 43.5868 38.3138 43.8001 39.3005C44.0134 40.2738 44.2268 41.2072 44.4401 42.1005C44.6534 42.9938 44.8734 43.8205 45.1001 44.5805C45.6334 43.1805 46.2001 41.6472 46.8001 39.9805C47.4001 38.3005 47.9601 36.5672 48.4801 34.7805H50.1601C50.6801 36.5672 51.2468 38.3005 51.8601 39.9805C52.4734 41.6472 53.0468 43.1805 53.5801 44.5805C53.7934 43.8338 54.0068 43.0138 54.2201 42.1205C54.4334 41.2272 54.6401 40.2938 54.8401 39.3205C55.0534 38.3338 55.2601 37.3205 55.4601 36.2805C55.6601 35.2272 55.8534 34.1805 56.0401 33.1405H58.0201C57.5401 35.8072 57.0268 38.2738 56.4801 40.5405C55.9468 42.8072 55.3334 44.9605 54.6401 47.0005H52.7001C52.1134 45.5605 51.5401 44.0805 50.9801 42.5605C50.4201 41.0405 49.8601 39.3872 49.3001 37.6005ZM59.9243 47.0005V31.8005L61.7843 31.4805V36.8005C62.131 36.6672 62.4977 36.5672 62.8843 36.5005C63.2843 36.4205 63.6777 36.3805 64.0643 36.3805C64.891 36.3805 65.5777 36.5005 66.1243 36.7405C66.671 36.9672 67.1043 37.2938 67.4243 37.7205C67.7577 38.1338 67.991 38.6338 68.1243 39.2205C68.2577 39.8072 68.3243 40.4538 68.3243 41.1605V47.0005H66.4643V41.5605C66.4643 40.9205 66.4177 40.3738 66.3243 39.9205C66.2443 39.4672 66.1043 39.1005 65.9043 38.8205C65.7043 38.5405 65.4377 38.3405 65.1043 38.2205C64.771 38.0872 64.3577 38.0205 63.8643 38.0205C63.6643 38.0205 63.4577 38.0338 63.2443 38.0605C63.031 38.0872 62.8243 38.1205 62.6243 38.1605C62.4377 38.1872 62.2643 38.2205 62.1043 38.2605C61.9577 38.3005 61.851 38.3338 61.7843 38.3605V47.0005H59.9243ZM74.6201 45.6605C75.0601 45.6605 75.4468 45.6538 75.7801 45.6405C76.1268 45.6138 76.4134 45.5738 76.6401 45.5205V42.4205C76.5068 42.3538 76.2868 42.3005 75.9801 42.2605C75.6868 42.2072 75.3268 42.1805 74.9001 42.1805C74.6201 42.1805 74.3201 42.2005 74.0001 42.2405C73.6934 42.2805 73.4068 42.3672 73.1401 42.5005C72.8868 42.6205 72.6734 42.7938 72.5001 43.0205C72.3268 43.2338 72.2401 43.5205 72.2401 43.8805C72.2401 44.5472 72.4534 45.0138 72.8801 45.2805C73.3068 45.5338 73.8868 45.6605 74.6201 45.6605ZM74.4601 36.3405C75.2068 36.3405 75.8334 36.4405 76.3401 36.6405C76.8601 36.8272 77.2734 37.1005 77.5801 37.4605C77.9001 37.8072 78.1268 38.2272 78.2601 38.7205C78.3934 39.2005 78.4601 39.7338 78.4601 40.3205V46.8205C78.3001 46.8472 78.0734 46.8872 77.7801 46.9405C77.5001 46.9805 77.1801 47.0205 76.8201 47.0605C76.4601 47.1005 76.0668 47.1338 75.6401 47.1605C75.2268 47.2005 74.8134 47.2205 74.4001 47.2205C73.8134 47.2205 73.2734 47.1605 72.7801 47.0405C72.2868 46.9205 71.8601 46.7338 71.5001 46.4805C71.1401 46.2138 70.8601 45.8672 70.6601 45.4405C70.4601 45.0138 70.3601 44.5005 70.3601 43.9005C70.3601 43.3272 70.4734 42.8338 70.7001 42.4205C70.9401 42.0072 71.2601 41.6738 71.6601 41.4205C72.0601 41.1672 72.5268 40.9805 73.0601 40.8605C73.5934 40.7405 74.1534 40.6805 74.7401 40.6805C74.9268 40.6805 75.1201 40.6938 75.3201 40.7205C75.5201 40.7338 75.7068 40.7605 75.8801 40.8005C76.0668 40.8272 76.2268 40.8538 76.3601 40.8805C76.4934 40.9072 76.5868 40.9272 76.6401 40.9405V40.4205C76.6401 40.1138 76.6068 39.8138 76.5401 39.5205C76.4734 39.2138 76.3534 38.9472 76.1801 38.7205C76.0068 38.4805 75.7668 38.2938 75.4601 38.1605C75.1668 38.0138 74.7801 37.9405 74.3001 37.9405C73.6868 37.9405 73.1468 37.9872 72.6801 38.0805C72.2268 38.1605 71.8868 38.2472 71.6601 38.3405L71.4401 36.8005C71.6801 36.6938 72.0801 36.5938 72.6401 36.5005C73.2001 36.3938 73.8068 36.3405 74.4601 36.3405ZM83.0393 36.6005H86.9793V38.1605H83.0393V42.9605C83.0393 43.4805 83.0793 43.9138 83.1593 44.2605C83.2393 44.5938 83.3593 44.8605 83.5193 45.0605C83.6793 45.2472 83.8793 45.3805 84.1193 45.4605C84.3593 45.5405 84.6393 45.5805 84.9593 45.5805C85.5193 45.5805 85.966 45.5205 86.2993 45.4005C86.646 45.2672 86.886 45.1738 87.0193 45.1205L87.3793 46.6605C87.1927 46.7538 86.866 46.8672 86.3993 47.0005C85.9327 47.1472 85.3993 47.2205 84.7993 47.2205C84.0927 47.2205 83.506 47.1338 83.0393 46.9605C82.586 46.7738 82.2193 46.5005 81.9393 46.1405C81.6593 45.7805 81.4593 45.3405 81.3393 44.8205C81.2327 44.2872 81.1793 43.6738 81.1793 42.9805V33.7005L83.0393 33.3805V36.6005ZM97.3151 36.3805C97.4751 36.3805 97.6551 36.3938 97.8551 36.4205C98.0684 36.4338 98.2751 36.4605 98.4751 36.5005C98.6751 36.5272 98.8551 36.5605 99.0151 36.6005C99.1884 36.6272 99.3151 36.6538 99.3951 36.6805L99.0751 38.3005C98.9284 38.2472 98.6818 38.1872 98.3351 38.1205C98.0018 38.0405 97.5684 38.0005 97.0351 38.0005C96.6884 38.0005 96.3418 38.0405 95.9951 38.1205C95.6618 38.1872 95.4418 38.2338 95.3351 38.2605V47.0005H93.4751V37.0405C93.9151 36.8805 94.4618 36.7338 95.1151 36.6005C95.7684 36.4538 96.5018 36.3805 97.3151 36.3805ZM109.22 46.7005C108.793 46.8072 108.227 46.9205 107.52 47.0405C106.827 47.1605 106.02 47.2205 105.1 47.2205C104.3 47.2205 103.627 47.1072 103.08 46.8805C102.533 46.6405 102.093 46.3072 101.76 45.8805C101.427 45.4538 101.187 44.9538 101.04 44.3805C100.893 43.7938 100.82 43.1472 100.82 42.4405V36.6005H102.68V42.0405C102.68 43.3072 102.88 44.2138 103.28 44.7605C103.68 45.3072 104.353 45.5805 105.3 45.5805C105.5 45.5805 105.707 45.5738 105.92 45.5605C106.133 45.5472 106.333 45.5338 106.52 45.5205C106.707 45.4938 106.873 45.4738 107.02 45.4605C107.18 45.4338 107.293 45.4072 107.36 45.3805V36.6005H109.22V46.7005ZM112.174 36.9005C112.601 36.7938 113.168 36.6805 113.874 36.5605C114.581 36.4405 115.394 36.3805 116.314 36.3805C117.141 36.3805 117.828 36.5005 118.374 36.7405C118.921 36.9672 119.354 37.2938 119.674 37.7205C120.008 38.1338 120.241 38.6338 120.374 39.2205C120.508 39.8072 120.574 40.4538 120.574 41.1605V47.0005H118.714V41.5605C118.714 40.9205 118.668 40.3738 118.574 39.9205C118.494 39.4672 118.354 39.1005 118.154 38.8205C117.954 38.5405 117.688 38.3405 117.354 38.2205C117.021 38.0872 116.608 38.0205 116.114 38.0205C115.914 38.0205 115.708 38.0272 115.494 38.0405C115.281 38.0538 115.074 38.0738 114.874 38.1005C114.688 38.1138 114.514 38.1338 114.354 38.1605C114.208 38.1872 114.101 38.2072 114.034 38.2205V47.0005H112.174V36.9005ZM125.829 45.6605C126.589 45.6605 127.149 45.5605 127.509 45.3605C127.882 45.1605 128.069 44.8405 128.069 44.4005C128.069 43.9472 127.889 43.5872 127.529 43.3205C127.169 43.0538 126.575 42.7538 125.749 42.4205C125.349 42.2605 124.962 42.1005 124.589 41.9405C124.229 41.7672 123.915 41.5672 123.649 41.3405C123.382 41.1138 123.169 40.8405 123.009 40.5205C122.849 40.2005 122.769 39.8072 122.769 39.3405C122.769 38.4205 123.109 37.6938 123.789 37.1605C124.469 36.6138 125.395 36.3405 126.569 36.3405C126.862 36.3405 127.155 36.3605 127.449 36.4005C127.742 36.4272 128.015 36.4672 128.269 36.5205C128.522 36.5605 128.742 36.6072 128.929 36.6605C129.129 36.7138 129.282 36.7605 129.389 36.8005L129.049 38.4005C128.849 38.2938 128.535 38.1872 128.109 38.0805C127.682 37.9605 127.169 37.9005 126.569 37.9005C126.049 37.9005 125.595 38.0072 125.209 38.2205C124.822 38.4205 124.629 38.7405 124.629 39.1805C124.629 39.4072 124.669 39.6072 124.749 39.7805C124.842 39.9538 124.975 40.1138 125.149 40.2605C125.335 40.3938 125.562 40.5205 125.829 40.6405C126.095 40.7605 126.415 40.8872 126.789 41.0205C127.282 41.2072 127.722 41.3938 128.109 41.5805C128.495 41.7538 128.822 41.9605 129.089 42.2005C129.369 42.4405 129.582 42.7338 129.729 43.0805C129.875 43.4138 129.949 43.8272 129.949 44.3205C129.949 45.2805 129.589 46.0072 128.869 46.5005C128.162 46.9938 127.149 47.2405 125.829 47.2405C124.909 47.2405 124.189 47.1605 123.669 47.0005C123.149 46.8538 122.795 46.7405 122.609 46.6605L122.949 45.0605C123.162 45.1405 123.502 45.2605 123.969 45.4205C124.435 45.5805 125.055 45.6605 125.829 45.6605ZM138.323 47.0005H136.463V36.6005H138.323V47.0005ZM137.383 34.7205C137.05 34.7205 136.763 34.6138 136.523 34.4005C136.297 34.1738 136.183 33.8738 136.183 33.5005C136.183 33.1272 136.297 32.8338 136.523 32.6205C136.763 32.3938 137.05 32.2805 137.383 32.2805C137.717 32.2805 137.997 32.3938 138.223 32.6205C138.463 32.8338 138.583 33.1272 138.583 33.5005C138.583 33.8738 138.463 34.1738 138.223 34.4005C137.997 34.6138 137.717 34.7205 137.383 34.7205ZM141.272 36.9005C141.699 36.7938 142.265 36.6805 142.972 36.5605C143.679 36.4405 144.492 36.3805 145.412 36.3805C146.239 36.3805 146.925 36.5005 147.472 36.7405C148.019 36.9672 148.452 37.2938 148.772 37.7205C149.105 38.1338 149.339 38.6338 149.472 39.2205C149.605 39.8072 149.672 40.4538 149.672 41.1605V47.0005H147.812V41.5605C147.812 40.9205 147.765 40.3738 147.672 39.9205C147.592 39.4672 147.452 39.1005 147.252 38.8205C147.052 38.5405 146.785 38.3405 146.452 38.2205C146.119 38.0872 145.705 38.0205 145.212 38.0205C145.012 38.0205 144.805 38.0272 144.592 38.0405C144.379 38.0538 144.172 38.0738 143.972 38.1005C143.785 38.1138 143.612 38.1338 143.452 38.1605C143.305 38.1872 143.199 38.2072 143.132 38.2205V47.0005H141.272V36.9005ZM155.665 48.9405C155.812 49.0072 155.998 49.0672 156.225 49.1205C156.465 49.1872 156.698 49.2205 156.925 49.2205C157.658 49.2205 158.232 49.0538 158.645 48.7205C159.058 48.4005 159.432 47.8738 159.765 47.1405C158.925 45.5405 158.138 43.8472 157.405 42.0605C156.685 40.2605 156.085 38.4405 155.605 36.6005H157.605C157.752 37.2005 157.925 37.8472 158.125 38.5405C158.338 39.2338 158.572 39.9472 158.825 40.6805C159.078 41.4138 159.352 42.1472 159.645 42.8805C159.938 43.6138 160.245 44.3205 160.565 45.0005C161.072 43.6005 161.512 42.2138 161.885 40.8405C162.258 39.4672 162.612 38.0538 162.945 36.6005H164.865C164.385 38.5605 163.852 40.4472 163.265 42.2605C162.678 44.0605 162.045 45.7472 161.365 47.3205C161.098 47.9205 160.818 48.4338 160.525 48.8605C160.245 49.3005 159.932 49.6605 159.585 49.9405C159.238 50.2205 158.845 50.4272 158.405 50.5605C157.978 50.6938 157.492 50.7605 156.945 50.7605C156.798 50.7605 156.645 50.7472 156.485 50.7205C156.325 50.7072 156.165 50.6805 156.005 50.6405C155.858 50.6138 155.718 50.5805 155.585 50.5405C155.465 50.5005 155.378 50.4672 155.325 50.4405L155.665 48.9405ZM175.757 41.8005C175.757 42.6272 175.637 43.3738 175.397 44.0405C175.157 44.7072 174.817 45.2805 174.377 45.7605C173.95 46.2405 173.437 46.6138 172.837 46.8805C172.237 47.1338 171.583 47.2605 170.877 47.2605C170.17 47.2605 169.517 47.1338 168.917 46.8805C168.317 46.6138 167.797 46.2405 167.357 45.7605C166.93 45.2805 166.597 44.7072 166.357 44.0405C166.117 43.3738 165.997 42.6272 165.997 41.8005C165.997 40.9872 166.117 40.2472 166.357 39.5805C166.597 38.9005 166.93 38.3205 167.357 37.8405C167.797 37.3605 168.317 36.9938 168.917 36.7405C169.517 36.4738 170.17 36.3405 170.877 36.3405C171.583 36.3405 172.237 36.4738 172.837 36.7405C173.437 36.9938 173.95 37.3605 174.377 37.8405C174.817 38.3205 175.157 38.9005 175.397 39.5805C175.637 40.2472 175.757 40.9872 175.757 41.8005ZM173.817 41.8005C173.817 40.6272 173.55 39.7005 173.017 39.0205C172.497 38.3272 171.783 37.9805 170.877 37.9805C169.97 37.9805 169.25 38.3272 168.717 39.0205C168.197 39.7005 167.937 40.6272 167.937 41.8005C167.937 42.9738 168.197 43.9072 168.717 44.6005C169.25 45.2805 169.97 45.6205 170.877 45.6205C171.783 45.6205 172.497 45.2805 173.017 44.6005C173.55 43.9072 173.817 42.9738 173.817 41.8005ZM186.403 46.7005C185.977 46.8072 185.41 46.9205 184.703 47.0405C184.01 47.1605 183.203 47.2205 182.283 47.2205C181.483 47.2205 180.81 47.1072 180.263 46.8805C179.717 46.6405 179.277 46.3072 178.943 45.8805C178.61 45.4538 178.37 44.9538 178.223 44.3805C178.077 43.7938 178.003 43.1472 178.003 42.4405V36.6005H179.863V42.0405C179.863 43.3072 180.063 44.2138 180.463 44.7605C180.863 45.3072 181.537 45.5805 182.483 45.5805C182.683 45.5805 182.89 45.5738 183.103 45.5605C183.317 45.5472 183.517 45.5338 183.703 45.5205C183.89 45.4938 184.057 45.4738 184.203 45.4605C184.363 45.4338 184.477 45.4072 184.543 45.3805V36.6005H186.403V46.7005ZM193.198 36.3805C193.358 36.3805 193.538 36.3938 193.738 36.4205C193.951 36.4338 194.158 36.4605 194.358 36.5005C194.558 36.5272 194.738 36.5605 194.898 36.6005C195.071 36.6272 195.198 36.6538 195.278 36.6805L194.958 38.3005C194.811 38.2472 194.564 38.1872 194.218 38.1205C193.884 38.0405 193.451 38.0005 192.918 38.0005C192.571 38.0005 192.224 38.0405 191.878 38.1205C191.544 38.1872 191.324 38.2338 191.218 38.2605V47.0005H189.358V37.0405C189.798 36.8805 190.344 36.7338 190.998 36.6005C191.651 36.4538 192.384 36.3805 193.198 36.3805ZM208.422 41.8205C208.422 40.6072 208.122 39.6738 207.522 39.0205C206.922 38.3672 206.122 38.0405 205.122 38.0405C204.562 38.0405 204.122 38.0605 203.802 38.1005C203.495 38.1405 203.248 38.1872 203.062 38.2405V44.8005C203.288 44.9872 203.615 45.1672 204.042 45.3405C204.468 45.5138 204.935 45.6005 205.442 45.6005C205.975 45.6005 206.428 45.5072 206.802 45.3205C207.188 45.1205 207.502 44.8538 207.742 44.5205C207.982 44.1738 208.155 43.7738 208.262 43.3205C208.368 42.8538 208.422 42.3538 208.422 41.8205ZM210.362 41.8205C210.362 42.6072 210.255 43.3338 210.042 44.0005C209.842 44.6672 209.542 45.2405 209.142 45.7205C208.742 46.2005 208.248 46.5738 207.662 46.8405C207.088 47.1072 206.428 47.2405 205.682 47.2405C205.082 47.2405 204.548 47.1605 204.082 47.0005C203.628 46.8405 203.288 46.6872 203.062 46.5405V50.7005H201.202V36.9205C201.642 36.8138 202.188 36.7005 202.842 36.5805C203.508 36.4472 204.275 36.3805 205.142 36.3805C205.942 36.3805 206.662 36.5072 207.302 36.7605C207.942 37.0138 208.488 37.3738 208.942 37.8405C209.395 38.3072 209.742 38.8805 209.982 39.5605C210.235 40.2272 210.362 40.9805 210.362 41.8205ZM214.589 47.0005H212.729V36.6005H214.589V47.0005ZM213.649 34.7205C213.316 34.7205 213.029 34.6138 212.789 34.4005C212.562 34.1738 212.449 33.8738 212.449 33.5005C212.449 33.1272 212.562 32.8338 212.789 32.6205C213.029 32.3938 213.316 32.2805 213.649 32.2805C213.982 32.2805 214.262 32.3938 214.489 32.6205C214.729 32.8338 214.849 33.1272 214.849 33.5005C214.849 33.8738 214.729 34.1738 214.489 34.4005C214.262 34.6138 213.982 34.7205 213.649 34.7205ZM224.758 41.8205C224.758 40.6072 224.458 39.6738 223.858 39.0205C223.258 38.3672 222.458 38.0405 221.458 38.0405C220.898 38.0405 220.458 38.0605 220.138 38.1005C219.831 38.1405 219.584 38.1872 219.398 38.2405V44.8005C219.624 44.9872 219.951 45.1672 220.378 45.3405C220.804 45.5138 221.271 45.6005 221.778 45.6005C222.311 45.6005 222.764 45.5072 223.138 45.3205C223.524 45.1205 223.838 44.8538 224.078 44.5205C224.318 44.1738 224.491 43.7738 224.598 43.3205C224.704 42.8538 224.758 42.3538 224.758 41.8205ZM226.698 41.8205C226.698 42.6072 226.591 43.3338 226.378 44.0005C226.178 44.6672 225.878 45.2405 225.478 45.7205C225.078 46.2005 224.584 46.5738 223.998 46.8405C223.424 47.1072 222.764 47.2405 222.018 47.2405C221.418 47.2405 220.884 47.1605 220.418 47.0005C219.964 46.8405 219.624 46.6872 219.398 46.5405V50.7005H217.538V36.9205C217.978 36.8138 218.524 36.7005 219.178 36.5805C219.844 36.4472 220.611 36.3805 221.478 36.3805C222.278 36.3805 222.998 36.5072 223.638 36.7605C224.278 37.0138 224.824 37.3738 225.278 37.8405C225.731 38.3072 226.078 38.8805 226.318 39.5605C226.571 40.2272 226.698 40.9805 226.698 41.8205ZM228.485 41.8205C228.485 40.9005 228.618 40.1005 228.885 39.4205C229.152 38.7272 229.505 38.1538 229.945 37.7005C230.385 37.2472 230.892 36.9072 231.465 36.6805C232.038 36.4538 232.625 36.3405 233.225 36.3405C234.625 36.3405 235.698 36.7805 236.445 37.6605C237.192 38.5272 237.565 39.8538 237.565 41.6405C237.565 41.7205 237.565 41.8272 237.565 41.9605C237.565 42.0805 237.558 42.1938 237.545 42.3005H230.425C230.505 43.3805 230.818 44.2005 231.365 44.7605C231.912 45.3205 232.765 45.6005 233.925 45.6005C234.578 45.6005 235.125 45.5472 235.565 45.4405C236.018 45.3205 236.358 45.2072 236.585 45.1005L236.845 46.6605C236.618 46.7805 236.218 46.9072 235.645 47.0405C235.085 47.1738 234.445 47.2405 233.725 47.2405C232.818 47.2405 232.032 47.1072 231.365 46.8405C230.712 46.5605 230.172 46.1805 229.745 45.7005C229.318 45.2205 228.998 44.6538 228.785 44.0005C228.585 43.3338 228.485 42.6072 228.485 41.8205ZM235.625 40.8005C235.638 39.9605 235.425 39.2738 234.985 38.7405C234.558 38.1938 233.965 37.9205 233.205 37.9205C232.778 37.9205 232.398 38.0072 232.065 38.1805C231.745 38.3405 231.472 38.5538 231.245 38.8205C231.018 39.0872 230.838 39.3938 230.705 39.7405C230.585 40.0872 230.505 40.4405 230.465 40.8005H235.625ZM243.107 47.2005C241.96 47.1738 241.147 46.9272 240.667 46.4605C240.187 45.9938 239.947 45.2672 239.947 44.2805V31.8005L241.807 31.4805V43.9805C241.807 44.2872 241.833 44.5405 241.887 44.7405C241.94 44.9405 242.027 45.1005 242.147 45.2205C242.267 45.3405 242.427 45.4338 242.627 45.5005C242.827 45.5538 243.073 45.6005 243.367 45.6405L243.107 47.2005ZM247.065 47.0005H245.205V36.6005H247.065V47.0005ZM246.125 34.7205C245.792 34.7205 245.505 34.6138 245.265 34.4005C245.039 34.1738 244.925 33.8738 244.925 33.5005C244.925 33.1272 245.039 32.8338 245.265 32.6205C245.505 32.3938 245.792 32.2805 246.125 32.2805C246.459 32.2805 246.739 32.3938 246.965 32.6205C247.205 32.8338 247.325 33.1272 247.325 33.5005C247.325 33.8738 247.205 34.1738 246.965 34.4005C246.739 34.6138 246.459 34.7205 246.125 34.7205ZM250.014 36.9005C250.441 36.7938 251.007 36.6805 251.714 36.5605C252.421 36.4405 253.234 36.3805 254.154 36.3805C254.981 36.3805 255.667 36.5005 256.214 36.7405C256.761 36.9672 257.194 37.2938 257.514 37.7205C257.847 38.1338 258.081 38.6338 258.214 39.2205C258.347 39.8072 258.414 40.4538 258.414 41.1605V47.0005H256.554V41.5605C256.554 40.9205 256.507 40.3738 256.414 39.9205C256.334 39.4672 256.194 39.1005 255.994 38.8205C255.794 38.5405 255.527 38.3405 255.194 38.2205C254.861 38.0872 254.447 38.0205 253.954 38.0205C253.754 38.0205 253.547 38.0272 253.334 38.0405C253.121 38.0538 252.914 38.0738 252.714 38.1005C252.527 38.1138 252.354 38.1338 252.194 38.1605C252.047 38.1872 251.941 38.2072 251.874 38.2205V47.0005H250.014V36.9005ZM260.668 41.8205C260.668 40.9005 260.802 40.1005 261.068 39.4205C261.335 38.7272 261.688 38.1538 262.128 37.7005C262.568 37.2472 263.075 36.9072 263.648 36.6805C264.222 36.4538 264.808 36.3405 265.408 36.3405C266.808 36.3405 267.882 36.7805 268.628 37.6605C269.375 38.5272 269.748 39.8538 269.748 41.6405C269.748 41.7205 269.748 41.8272 269.748 41.9605C269.748 42.0805 269.742 42.1938 269.728 42.3005H262.608C262.688 43.3805 263.002 44.2005 263.548 44.7605C264.095 45.3205 264.948 45.6005 266.108 45.6005C266.762 45.6005 267.308 45.5472 267.748 45.4405C268.202 45.3205 268.542 45.2072 268.768 45.1005L269.028 46.6605C268.802 46.7805 268.402 46.9072 267.828 47.0405C267.268 47.1738 266.628 47.2405 265.908 47.2405C265.002 47.2405 264.215 47.1072 263.548 46.8405C262.895 46.5605 262.355 46.1805 261.928 45.7005C261.502 45.2205 261.182 44.6538 260.968 44.0005C260.768 43.3338 260.668 42.6072 260.668 41.8205ZM267.808 40.8005C267.822 39.9605 267.608 39.2738 267.168 38.7405C266.742 38.1938 266.148 37.9205 265.388 37.9205C264.962 37.9205 264.582 38.0072 264.248 38.1805C263.928 38.3405 263.655 38.5538 263.428 38.8205C263.202 39.0872 263.022 39.3938 262.888 39.7405C262.768 40.0872 262.688 40.4405 262.648 40.8005H267.808ZM274.05 34.3805C273.17 34.3805 272.31 34.6072 271.47 35.0605L270.95 33.6205C271.404 33.3805 271.91 33.1872 272.47 33.0405C273.044 32.8938 273.65 32.8205 274.29 32.8205C275.05 32.8205 275.67 32.9272 276.15 33.1405C276.644 33.3405 277.037 33.6005 277.33 33.9205C277.624 34.2405 277.824 34.6005 277.93 35.0005C278.05 35.3872 278.11 35.7605 278.11 36.1205C278.11 36.5738 278.024 36.9805 277.85 37.3405C277.677 37.6872 277.464 38.0138 277.21 38.3205C276.957 38.6272 276.677 38.9205 276.37 39.2005C276.064 39.4805 275.784 39.7738 275.53 40.0805C275.277 40.3738 275.064 40.7005 274.89 41.0605C274.717 41.4072 274.63 41.8005 274.63 42.2405C274.63 42.3072 274.63 42.3805 274.63 42.4605C274.63 42.5405 274.637 42.6138 274.65 42.6805H273.09C273.037 42.4138 273.01 42.1338 273.01 41.8405C273.01 41.4138 273.084 41.0272 273.23 40.6805C273.39 40.3338 273.59 40.0138 273.83 39.7205C274.07 39.4138 274.324 39.1338 274.59 38.8805C274.857 38.6138 275.11 38.3472 275.35 38.0805C275.59 37.8138 275.784 37.5338 275.93 37.2405C276.09 36.9472 276.17 36.6272 276.17 36.2805C276.17 35.7205 275.99 35.2672 275.63 34.9205C275.27 34.5605 274.744 34.3805 274.05 34.3805ZM275.31 45.9205C275.31 46.2805 275.19 46.5938 274.95 46.8605C274.71 47.1272 274.384 47.2605 273.97 47.2605C273.557 47.2605 273.23 47.1272 272.99 46.8605C272.75 46.5938 272.63 46.2805 272.63 45.9205C272.63 45.5605 272.75 45.2472 272.99 44.9805C273.23 44.7138 273.557 44.5805 273.97 44.5805C274.384 44.5805 274.71 44.7138 274.95 44.9805C275.19 45.2472 275.31 45.5605 275.31 45.9205Z" fill="#E4E4E7"/>
<path d="M185.5 71H39.5C26.5213 71 16 81.5213 16 94.5C16 107.479 26.5213 118 39.5 118H185.5C198.479 118 209 107.479 209 94.5C209 81.5213 198.479 71 185.5 71Z" fill="#003400"/>
<path d="M49.3001 92.6005C48.7401 94.3872 48.1734 96.0405 47.6001 97.5605C47.0268 99.0805 46.4534 100.56 45.8801 102H43.9401C43.2334 99.9605 42.6068 97.8072 42.0601 95.5405C41.5268 93.2738 41.0268 90.8072 40.5601 88.1405H42.6001C42.7868 89.1805 42.9801 90.2205 43.1801 91.2605C43.3801 92.3005 43.5868 93.3138 43.8001 94.3005C44.0134 95.2738 44.2268 96.2072 44.4401 97.1005C44.6534 97.9938 44.8734 98.8205 45.1001 99.5805C45.6334 98.1805 46.2001 96.6472 46.8001 94.9805C47.4001 93.3005 47.9601 91.5672 48.4801 89.7805H50.1601C50.6801 91.5672 51.2468 93.3005 51.8601 94.9805C52.4734 96.6472 53.0468 98.1805 53.5801 99.5805C53.7934 98.8338 54.0068 98.0138 54.2201 97.1205C54.4334 96.2272 54.6401 95.2938 54.8401 94.3205C55.0534 93.3338 55.2601 92.3205 55.4601 91.2805C55.6601 90.2272 55.8534 89.1805 56.0401 88.1405H58.0201C57.5401 90.8072 57.0268 93.2738 56.4801 95.5405C55.9468 97.8072 55.3334 99.9605 54.6401 102H52.7001C52.1134 100.56 51.5401 99.0805 50.9801 97.5605C50.4201 96.0405 49.8601 94.3872 49.3001 92.6005ZM59.9243 102V86.8005L61.7843 86.4805V91.8005C62.131 91.6672 62.4977 91.5672 62.8843 91.5005C63.2843 91.4205 63.6777 91.3805 64.0643 91.3805C64.891 91.3805 65.5777 91.5005 66.1243 91.7405C66.671 91.9672 67.1043 92.2938 67.4243 92.7205C67.7577 93.1338 67.991 93.6338 68.1243 94.2205C68.2577 94.8072 68.3243 95.4538 68.3243 96.1605V102H66.4643V96.5605C66.4643 95.9205 66.4177 95.3738 66.3243 94.9205C66.2443 94.4672 66.1043 94.1005 65.9043 93.8205C65.7043 93.5405 65.4377 93.3405 65.1043 93.2205C64.771 93.0872 64.3577 93.0205 63.8643 93.0205C63.6643 93.0205 63.4577 93.0338 63.2443 93.0605C63.031 93.0872 62.8243 93.1205 62.6243 93.1605C62.4377 93.1872 62.2643 93.2205 62.1043 93.2605C61.9577 93.3005 61.851 93.3338 61.7843 93.3605V102H59.9243ZM80.2801 96.8005C80.2801 97.6272 80.1601 98.3738 79.9201 99.0405C79.6801 99.7072 79.3401 100.28 78.9001 100.76C78.4734 101.24 77.9601 101.613 77.3601 101.88C76.7601 102.133 76.1068 102.26 75.4001 102.26C74.6934 102.26 74.0401 102.133 73.4401 101.88C72.8401 101.613 72.3201 101.24 71.8801 100.76C71.4534 100.28 71.1201 99.7072 70.8801 99.0405C70.6401 98.3738 70.5201 97.6272 70.5201 96.8005C70.5201 95.9872 70.6401 95.2472 70.8801 94.5805C71.1201 93.9005 71.4534 93.3205 71.8801 92.8405C72.3201 92.3605 72.8401 91.9938 73.4401 91.7405C74.0401 91.4738 74.6934 91.3405 75.4001 91.3405C76.1068 91.3405 76.7601 91.4738 77.3601 91.7405C77.9601 91.9938 78.4734 92.3605 78.9001 92.8405C79.3401 93.3205 79.6801 93.9005 79.9201 94.5805C80.1601 95.2472 80.2801 95.9872 80.2801 96.8005ZM78.3401 96.8005C78.3401 95.6272 78.0734 94.7005 77.5401 94.0205C77.0201 93.3272 76.3068 92.9805 75.4001 92.9805C74.4934 92.9805 73.7734 93.3272 73.2401 94.0205C72.7201 94.7005 72.4601 95.6272 72.4601 96.8005C72.4601 97.9738 72.7201 98.9072 73.2401 99.6005C73.7734 100.28 74.4934 100.62 75.4001 100.62C76.3068 100.62 77.0201 100.28 77.5401 99.6005C78.0734 98.9072 78.3401 97.9738 78.3401 96.8005ZM87.0259 102V86.8005L88.8859 86.4805V91.8005C89.2325 91.6672 89.5992 91.5672 89.9859 91.5005C90.3859 91.4205 90.7792 91.3805 91.1659 91.3805C91.9925 91.3805 92.6792 91.5005 93.2259 91.7405C93.7725 91.9672 94.2059 92.2938 94.5259 92.7205C94.8592 93.1338 95.0925 93.6338 95.2259 94.2205C95.3592 94.8072 95.4259 95.4538 95.4259 96.1605V102H93.5659V96.5605C93.5659 95.9205 93.5192 95.3738 93.4259 94.9205C93.3459 94.4672 93.2059 94.1005 93.0059 93.8205C92.8059 93.5405 92.5392 93.3405 92.2059 93.2205C91.8725 93.0872 91.4592 93.0205 90.9659 93.0205C90.7659 93.0205 90.5592 93.0338 90.3459 93.0605C90.1325 93.0872 89.9259 93.1205 89.7259 93.1605C89.5392 93.1872 89.3659 93.2205 89.2059 93.2605C89.0592 93.3005 88.9525 93.3338 88.8859 93.3605V102H87.0259ZM101.722 100.66C102.162 100.66 102.548 100.653 102.882 100.64C103.228 100.613 103.515 100.573 103.742 100.52V97.4205C103.608 97.3538 103.388 97.3005 103.082 97.2605C102.788 97.2072 102.428 97.1805 102.002 97.1805C101.722 97.1805 101.422 97.2005 101.102 97.2405C100.795 97.2805 100.508 97.3672 100.242 97.5005C99.9883 97.6205 99.775 97.7938 99.6017 98.0205C99.4283 98.2338 99.3417 98.5205 99.3417 98.8805C99.3417 99.5472 99.555 100.013 99.9817 100.28C100.408 100.533 100.988 100.66 101.722 100.66ZM101.562 91.3405C102.308 91.3405 102.935 91.4405 103.442 91.6405C103.962 91.8272 104.375 92.1005 104.682 92.4605C105.002 92.8072 105.228 93.2272 105.362 93.7205C105.495 94.2005 105.562 94.7338 105.562 95.3205V101.82C105.402 101.847 105.175 101.887 104.882 101.94C104.602 101.98 104.282 102.02 103.922 102.06C103.562 102.1 103.168 102.133 102.742 102.16C102.328 102.2 101.915 102.22 101.502 102.22C100.915 102.22 100.375 102.16 99.8817 102.04C99.3883 101.92 98.9617 101.733 98.6017 101.48C98.2417 101.213 97.9617 100.867 97.7617 100.44C97.5617 100.013 97.4617 99.5005 97.4617 98.9005C97.4617 98.3272 97.575 97.8338 97.8017 97.4205C98.0417 97.0072 98.3617 96.6738 98.7617 96.4205C99.1617 96.1672 99.6283 95.9805 100.162 95.8605C100.695 95.7405 101.255 95.6805 101.842 95.6805C102.028 95.6805 102.222 95.6938 102.422 95.7205C102.622 95.7338 102.808 95.7605 102.982 95.8005C103.168 95.8272 103.328 95.8538 103.462 95.8805C103.595 95.9072 103.688 95.9272 103.742 95.9405V95.4205C103.742 95.1138 103.708 94.8138 103.642 94.5205C103.575 94.2138 103.455 93.9472 103.282 93.7205C103.108 93.4805 102.868 93.2938 102.562 93.1605C102.268 93.0138 101.882 92.9405 101.402 92.9405C100.788 92.9405 100.248 92.9872 99.7817 93.0805C99.3283 93.1605 98.9883 93.2472 98.7617 93.3405L98.5417 91.8005C98.7817 91.6938 99.1817 91.5938 99.7417 91.5005C100.302 91.3938 100.908 91.3405 101.562 91.3405ZM110.821 100.66C111.581 100.66 112.141 100.56 112.501 100.36C112.874 100.16 113.061 99.8405 113.061 99.4005C113.061 98.9472 112.881 98.5872 112.521 98.3205C112.161 98.0538 111.567 97.7538 110.741 97.4205C110.341 97.2605 109.954 97.1005 109.581 96.9405C109.221 96.7672 108.907 96.5672 108.641 96.3405C108.374 96.1138 108.161 95.8405 108.001 95.5205C107.841 95.2005 107.761 94.8072 107.761 94.3405C107.761 93.4205 108.101 92.6938 108.781 92.1605C109.461 91.6138 110.387 91.3405 111.561 91.3405C111.854 91.3405 112.147 91.3605 112.441 91.4005C112.734 91.4272 113.007 91.4672 113.261 91.5205C113.514 91.5605 113.734 91.6072 113.921 91.6605C114.121 91.7138 114.274 91.7605 114.381 91.8005L114.041 93.4005C113.841 93.2938 113.527 93.1872 113.101 93.0805C112.674 92.9605 112.161 92.9005 111.561 92.9005C111.041 92.9005 110.587 93.0072 110.201 93.2205C109.814 93.4205 109.621 93.7405 109.621 94.1805C109.621 94.4072 109.661 94.6072 109.741 94.7805C109.834 94.9538 109.967 95.1138 110.141 95.2605C110.327 95.3938 110.554 95.5205 110.821 95.6405C111.087 95.7605 111.407 95.8872 111.781 96.0205C112.274 96.2072 112.714 96.3938 113.101 96.5805C113.487 96.7538 113.814 96.9605 114.081 97.2005C114.361 97.4405 114.574 97.7338 114.721 98.0805C114.867 98.4138 114.941 98.8272 114.941 99.3205C114.941 100.28 114.581 101.007 113.861 101.5C113.154 101.993 112.141 102.24 110.821 102.24C109.901 102.24 109.181 102.16 108.661 102C108.141 101.853 107.787 101.74 107.601 101.66L107.941 100.06C108.154 100.14 108.494 100.26 108.961 100.42C109.427 100.58 110.047 100.66 110.821 100.66ZM124.975 100.66C125.415 100.66 125.802 100.653 126.135 100.64C126.482 100.613 126.769 100.573 126.995 100.52V97.4205C126.862 97.3538 126.642 97.3005 126.335 97.2605C126.042 97.2072 125.682 97.1805 125.255 97.1805C124.975 97.1805 124.675 97.2005 124.355 97.2405C124.049 97.2805 123.762 97.3672 123.495 97.5005C123.242 97.6205 123.029 97.7938 122.855 98.0205C122.682 98.2338 122.595 98.5205 122.595 98.8805C122.595 99.5472 122.809 100.013 123.235 100.28C123.662 100.533 124.242 100.66 124.975 100.66ZM124.815 91.3405C125.562 91.3405 126.189 91.4405 126.695 91.6405C127.215 91.8272 127.629 92.1005 127.935 92.4605C128.255 92.8072 128.482 93.2272 128.615 93.7205C128.749 94.2005 128.815 94.7338 128.815 95.3205V101.82C128.655 101.847 128.429 101.887 128.135 101.94C127.855 101.98 127.535 102.02 127.175 102.06C126.815 102.1 126.422 102.133 125.995 102.16C125.582 102.2 125.169 102.22 124.755 102.22C124.169 102.22 123.629 102.16 123.135 102.04C122.642 101.92 122.215 101.733 121.855 101.48C121.495 101.213 121.215 100.867 121.015 100.44C120.815 100.013 120.715 99.5005 120.715 98.9005C120.715 98.3272 120.829 97.8338 121.055 97.4205C121.295 97.0072 121.615 96.6738 122.015 96.4205C122.415 96.1672 122.882 95.9805 123.415 95.8605C123.949 95.7405 124.509 95.6805 125.095 95.6805C125.282 95.6805 125.475 95.6938 125.675 95.7205C125.875 95.7338 126.062 95.7605 126.235 95.8005C126.422 95.8272 126.582 95.8538 126.715 95.8805C126.849 95.9072 126.942 95.9272 126.995 95.9405V95.4205C126.995 95.1138 126.962 94.8138 126.895 94.5205C126.829 94.2138 126.709 93.9472 126.535 93.7205C126.362 93.4805 126.122 93.2938 125.815 93.1605C125.522 93.0138 125.135 92.9405 124.655 92.9405C124.042 92.9405 123.502 92.9872 123.035 93.0805C122.582 93.1605 122.242 93.2472 122.015 93.3405L121.795 91.8005C122.035 91.6938 122.435 91.5938 122.995 91.5005C123.555 91.3938 124.162 91.3405 124.815 91.3405ZM136.175 102.24C135.335 102.24 134.595 102.107 133.955 101.84C133.328 101.573 132.795 101.2 132.355 100.72C131.928 100.24 131.608 99.6738 131.395 99.0205C131.181 98.3538 131.075 97.6205 131.075 96.8205C131.075 96.0205 131.188 95.2872 131.415 94.6205C131.655 93.9538 131.988 93.3805 132.415 92.9005C132.841 92.4072 133.361 92.0272 133.975 91.7605C134.601 91.4805 135.295 91.3405 136.055 91.3405C136.521 91.3405 136.988 91.3805 137.455 91.4605C137.921 91.5405 138.368 91.6672 138.795 91.8405L138.375 93.4205C138.095 93.2872 137.768 93.1805 137.395 93.1005C137.035 93.0205 136.648 92.9805 136.235 92.9805C135.195 92.9805 134.395 93.3072 133.835 93.9605C133.288 94.6138 133.015 95.5672 133.015 96.8205C133.015 97.3805 133.075 97.8938 133.195 98.3605C133.328 98.8272 133.528 99.2272 133.795 99.5605C134.075 99.8938 134.428 100.153 134.855 100.34C135.281 100.513 135.801 100.6 136.415 100.6C136.908 100.6 137.355 100.553 137.755 100.46C138.155 100.367 138.468 100.267 138.695 100.16L138.955 101.72C138.848 101.787 138.695 101.853 138.495 101.92C138.295 101.973 138.068 102.02 137.815 102.06C137.561 102.113 137.288 102.153 136.995 102.18C136.715 102.22 136.441 102.24 136.175 102.24ZM145.222 102.24C144.382 102.24 143.642 102.107 143.002 101.84C142.375 101.573 141.842 101.2 141.402 100.72C140.975 100.24 140.655 99.6738 140.442 99.0205C140.228 98.3538 140.122 97.6205 140.122 96.8205C140.122 96.0205 140.235 95.2872 140.462 94.6205C140.702 93.9538 141.035 93.3805 141.462 92.9005C141.888 92.4072 142.408 92.0272 143.022 91.7605C143.648 91.4805 144.342 91.3405 145.102 91.3405C145.568 91.3405 146.035 91.3805 146.502 91.4605C146.968 91.5405 147.415 91.6672 147.842 91.8405L147.422 93.4205C147.142 93.2872 146.815 93.1805 146.442 93.1005C146.082 93.0205 145.695 92.9805 145.282 92.9805C144.242 92.9805 143.442 93.3072 142.882 93.9605C142.335 94.6138 142.062 95.5672 142.062 96.8205C142.062 97.3805 142.122 97.8938 142.242 98.3605C142.375 98.8272 142.575 99.2272 142.842 99.5605C143.122 99.8938 143.475 100.153 143.902 100.34C144.328 100.513 144.848 100.6 145.462 100.6C145.955 100.6 146.402 100.553 146.802 100.46C147.202 100.367 147.515 100.267 147.742 100.16L148.002 101.72C147.895 101.787 147.742 101.853 147.542 101.92C147.342 101.973 147.115 102.02 146.862 102.06C146.608 102.113 146.335 102.153 146.042 102.18C145.762 102.22 145.488 102.24 145.222 102.24ZM149.168 96.8205C149.168 95.9005 149.302 95.1005 149.568 94.4205C149.835 93.7272 150.188 93.1538 150.628 92.7005C151.068 92.2472 151.575 91.9072 152.148 91.6805C152.722 91.4538 153.308 91.3405 153.908 91.3405C155.308 91.3405 156.382 91.7805 157.128 92.6605C157.875 93.5272 158.248 94.8538 158.248 96.6405C158.248 96.7205 158.248 96.8272 158.248 96.9605C158.248 97.0805 158.242 97.1938 158.228 97.3005H151.108C151.188 98.3805 151.502 99.2005 152.048 99.7605C152.595 100.32 153.448 100.6 154.608 100.6C155.262 100.6 155.808 100.547 156.248 100.44C156.702 100.32 157.042 100.207 157.268 100.1L157.528 101.66C157.302 101.78 156.902 101.907 156.328 102.04C155.768 102.173 155.128 102.24 154.408 102.24C153.502 102.24 152.715 102.107 152.048 101.84C151.395 101.56 150.855 101.18 150.428 100.7C150.002 100.22 149.682 99.6538 149.468 99.0005C149.268 98.3338 149.168 97.6072 149.168 96.8205ZM156.308 95.8005C156.322 94.9605 156.108 94.2738 155.668 93.7405C155.242 93.1938 154.648 92.9205 153.888 92.9205C153.462 92.9205 153.082 93.0072 152.748 93.1805C152.428 93.3405 152.155 93.5538 151.928 93.8205C151.702 94.0872 151.522 94.3938 151.388 94.7405C151.268 95.0872 151.188 95.4405 151.148 95.8005H156.308ZM163.09 100.66C163.85 100.66 164.41 100.56 164.77 100.36C165.144 100.16 165.33 99.8405 165.33 99.4005C165.33 98.9472 165.15 98.5872 164.79 98.3205C164.43 98.0538 163.837 97.7538 163.01 97.4205C162.61 97.2605 162.224 97.1005 161.85 96.9405C161.49 96.7672 161.177 96.5672 160.91 96.3405C160.644 96.1138 160.43 95.8405 160.27 95.5205C160.11 95.2005 160.03 94.8072 160.03 94.3405C160.03 93.4205 160.37 92.6938 161.05 92.1605C161.73 91.6138 162.657 91.3405 163.83 91.3405C164.124 91.3405 164.417 91.3605 164.71 91.4005C165.004 91.4272 165.277 91.4672 165.53 91.5205C165.784 91.5605 166.004 91.6072 166.19 91.6605C166.39 91.7138 166.544 91.7605 166.65 91.8005L166.31 93.4005C166.11 93.2938 165.797 93.1872 165.37 93.0805C164.944 92.9605 164.43 92.9005 163.83 92.9005C163.31 92.9005 162.857 93.0072 162.47 93.2205C162.084 93.4205 161.89 93.7405 161.89 94.1805C161.89 94.4072 161.93 94.6072 162.01 94.7805C162.104 94.9538 162.237 95.1138 162.41 95.2605C162.597 95.3938 162.824 95.5205 163.09 95.6405C163.357 95.7605 163.677 95.8872 164.05 96.0205C164.544 96.2072 164.984 96.3938 165.37 96.5805C165.757 96.7538 166.084 96.9605 166.35 97.2005C166.63 97.4405 166.844 97.7338 166.99 98.0805C167.137 98.4138 167.21 98.8272 167.21 99.3205C167.21 100.28 166.85 101.007 166.13 101.5C165.424 101.993 164.41 102.24 163.09 102.24C162.17 102.24 161.45 102.16 160.93 102C160.41 101.853 160.057 101.74 159.87 101.66L160.21 100.06C160.424 100.14 160.764 100.26 161.23 100.42C161.697 100.58 162.317 100.66 163.09 100.66ZM171.766 100.66C172.526 100.66 173.086 100.56 173.446 100.36C173.819 100.16 174.006 99.8405 174.006 99.4005C174.006 98.9472 173.826 98.5872 173.466 98.3205C173.106 98.0538 172.513 97.7538 171.686 97.4205C171.286 97.2605 170.899 97.1005 170.526 96.9405C170.166 96.7672 169.853 96.5672 169.586 96.3405C169.319 96.1138 169.106 95.8405 168.946 95.5205C168.786 95.2005 168.706 94.8072 168.706 94.3405C168.706 93.4205 169.046 92.6938 169.726 92.1605C170.406 91.6138 171.333 91.3405 172.506 91.3405C172.799 91.3405 173.093 91.3605 173.386 91.4005C173.679 91.4272 173.953 91.4672 174.206 91.5205C174.459 91.5605 174.679 91.6072 174.866 91.6605C175.066 91.7138 175.219 91.7605 175.326 91.8005L174.986 93.4005C174.786 93.2938 174.473 93.1872 174.046 93.0805C173.619 92.9605 173.106 92.9005 172.506 92.9005C171.986 92.9005 171.533 93.0072 171.146 93.2205C170.759 93.4205 170.566 93.7405 170.566 94.1805C170.566 94.4072 170.606 94.6072 170.686 94.7805C170.779 94.9538 170.913 95.1138 171.086 95.2605C171.273 95.3938 171.499 95.5205 171.766 95.6405C172.033 95.7605 172.353 95.8872 172.726 96.0205C173.219 96.2072 173.659 96.3938 174.046 96.5805C174.433 96.7538 174.759 96.9605 175.026 97.2005C175.306 97.4405 175.519 97.7338 175.666 98.0805C175.813 98.4138 175.886 98.8272 175.886 99.3205C175.886 100.28 175.526 101.007 174.806 101.5C174.099 101.993 173.086 102.24 171.766 102.24C170.846 102.24 170.126 102.16 169.606 102C169.086 101.853 168.733 101.74 168.546 101.66L168.886 100.06C169.099 100.14 169.439 100.26 169.906 100.42C170.373 100.58 170.993 100.66 171.766 100.66ZM179.902 89.3805C179.022 89.3805 178.162 89.6072 177.322 90.0605L176.802 88.6205C177.255 88.3805 177.762 88.1872 178.322 88.0405C178.895 87.8938 179.502 87.8205 180.142 87.8205C180.902 87.8205 181.522 87.9272 182.002 88.1405C182.495 88.3405 182.889 88.6005 183.182 88.9205C183.475 89.2405 183.675 89.6005 183.782 90.0005C183.902 90.3872 183.962 90.7605 183.962 91.1205C183.962 91.5738 183.875 91.9805 183.702 92.3405C183.529 92.6872 183.315 93.0138 183.062 93.3205C182.809 93.6272 182.529 93.9205 182.222 94.2005C181.915 94.4805 181.635 94.7738 181.382 95.0805C181.129 95.3738 180.915 95.7005 180.742 96.0605C180.569 96.4072 180.482 96.8005 180.482 97.2405C180.482 97.3072 180.482 97.3805 180.482 97.4605C180.482 97.5405 180.489 97.6138 180.502 97.6805H178.942C178.889 97.4138 178.862 97.1338 178.862 96.8405C178.862 96.4138 178.935 96.0272 179.082 95.6805C179.242 95.3338 179.442 95.0138 179.682 94.7205C179.922 94.4138 180.175 94.1338 180.442 93.8805C180.709 93.6138 180.962 93.3472 181.202 93.0805C181.442 92.8138 181.635 92.5338 181.782 92.2405C181.942 91.9472 182.022 91.6272 182.022 91.2805C182.022 90.7205 181.842 90.2672 181.482 89.9205C181.122 89.5605 180.595 89.3805 179.902 89.3805ZM181.162 100.92C181.162 101.28 181.042 101.593 180.802 101.86C180.562 102.127 180.235 102.26 179.822 102.26C179.409 102.26 179.082 102.127 178.842 101.86C178.602 101.593 178.482 101.28 178.482 100.92C178.482 100.56 178.602 100.247 178.842 99.9805C179.082 99.7138 179.409 99.5805 179.822 99.5805C180.235 99.5805 180.562 99.7138 180.802 99.9805C181.042 100.247 181.162 100.56 181.162 100.92Z" fill="#E4E4E7"/>
<path d="M198.5 126H39.5C26.5213 126 16 136.521 16 149.5C16 162.479 26.5213 173 39.5 173H198.5C211.479 173 222 162.479 222 149.5C222 136.521 211.479 126 198.5 126Z" fill="#003400"/>
<path d="M50.9802 157C50.7535 156.4 50.5402 155.813 50.3402 155.24C50.1402 154.653 49.9335 154.06 49.7202 153.46H43.4402L42.1802 157H40.1602C40.6935 155.533 41.1935 154.18 41.6602 152.94C42.1269 151.687 42.5802 150.5 43.0202 149.38C43.4735 148.26 43.9202 147.193 44.3602 146.18C44.8002 145.153 45.2602 144.14 45.7402 143.14H47.5202C48.0002 144.14 48.4602 145.153 48.9002 146.18C49.3402 147.193 49.7802 148.26 50.2202 149.38C50.6735 150.5 51.1335 151.687 51.6002 152.94C52.0669 154.18 52.5669 155.533 53.1002 157H50.9802ZM49.1602 151.86C48.7335 150.7 48.3069 149.58 47.8802 148.5C47.4669 147.407 47.0335 146.36 46.5802 145.36C46.1135 146.36 45.6669 147.407 45.2402 148.5C44.8269 149.58 44.4135 150.7 44.0002 151.86H49.1602ZM58.4519 146.38C58.6119 146.38 58.7919 146.393 58.9919 146.42C59.2053 146.433 59.4119 146.46 59.6119 146.5C59.8119 146.527 59.9919 146.56 60.1519 146.6C60.3253 146.627 60.4519 146.653 60.5319 146.68L60.2119 148.3C60.0653 148.247 59.8186 148.187 59.4719 148.12C59.1386 148.04 58.7053 148 58.1719 148C57.8253 148 57.4786 148.04 57.1319 148.12C56.7986 148.187 56.5786 148.233 56.4719 148.26V157H54.6119V147.04C55.0519 146.88 55.5986 146.733 56.2519 146.6C56.9053 146.453 57.6386 146.38 58.4519 146.38ZM61.4968 151.82C61.4968 150.9 61.6301 150.1 61.8968 149.42C62.1634 148.727 62.5168 148.153 62.9568 147.7C63.3968 147.247 63.9034 146.907 64.4768 146.68C65.0501 146.453 65.6368 146.34 66.2368 146.34C67.6368 146.34 68.7101 146.78 69.4568 147.66C70.2034 148.527 70.5768 149.853 70.5768 151.64C70.5768 151.72 70.5768 151.827 70.5768 151.96C70.5768 152.08 70.5701 152.193 70.5568 152.3H63.4368C63.5168 153.38 63.8301 154.2 64.3768 154.76C64.9234 155.32 65.7768 155.6 66.9368 155.6C67.5901 155.6 68.1368 155.547 68.5768 155.44C69.0301 155.32 69.3701 155.207 69.5968 155.1L69.8568 156.66C69.6301 156.78 69.2301 156.907 68.6568 157.04C68.0968 157.173 67.4568 157.24 66.7368 157.24C65.8301 157.24 65.0434 157.107 64.3768 156.84C63.7234 156.56 63.1834 156.18 62.7568 155.7C62.3301 155.22 62.0101 154.653 61.7968 154C61.5968 153.333 61.4968 152.607 61.4968 151.82ZM68.6368 150.8C68.6501 149.96 68.4368 149.273 67.9968 148.74C67.5701 148.193 66.9768 147.92 66.2168 147.92C65.7901 147.92 65.4101 148.007 65.0768 148.18C64.7568 148.34 64.4834 148.553 64.2568 148.82C64.0301 149.087 63.8501 149.393 63.7168 149.74C63.5968 150.087 63.5168 150.44 63.4768 150.8H68.6368ZM79.1175 146.6H83.0575V148.16H79.1175V152.96C79.1175 153.48 79.1575 153.913 79.2375 154.26C79.3175 154.593 79.4375 154.86 79.5975 155.06C79.7575 155.247 79.9575 155.38 80.1975 155.46C80.4375 155.54 80.7175 155.58 81.0375 155.58C81.5975 155.58 82.0442 155.52 82.3775 155.4C82.7242 155.267 82.9642 155.173 83.0975 155.12L83.4575 156.66C83.2709 156.753 82.9442 156.867 82.4775 157C82.0109 157.147 81.4775 157.22 80.8775 157.22C80.1709 157.22 79.5842 157.133 79.1175 156.96C78.6642 156.773 78.2975 156.5 78.0175 156.14C77.7375 155.78 77.5375 155.34 77.4175 154.82C77.3109 154.287 77.2575 153.673 77.2575 152.98V143.7L79.1175 143.38V146.6ZM85.1744 157V141.8L87.0344 141.48V146.8C87.3811 146.667 87.7478 146.567 88.1344 146.5C88.5344 146.42 88.9278 146.38 89.3144 146.38C90.1411 146.38 90.8278 146.5 91.3744 146.74C91.9211 146.967 92.3544 147.293 92.6744 147.72C93.0078 148.133 93.2411 148.633 93.3744 149.22C93.5078 149.807 93.5744 150.453 93.5744 151.16V157H91.7144V151.56C91.7144 150.92 91.6678 150.373 91.5744 149.92C91.4944 149.467 91.3544 149.1 91.1544 148.82C90.9544 148.54 90.6878 148.34 90.3544 148.22C90.0211 148.087 89.6078 148.02 89.1144 148.02C88.9144 148.02 88.7078 148.033 88.4944 148.06C88.2811 148.087 88.0744 148.12 87.8744 148.16C87.6878 148.187 87.5144 148.22 87.3544 148.26C87.2078 148.3 87.1011 148.333 87.0344 148.36V157H85.1744ZM95.7702 151.82C95.7702 150.9 95.9035 150.1 96.1702 149.42C96.4369 148.727 96.7902 148.153 97.2302 147.7C97.6702 147.247 98.1769 146.907 98.7502 146.68C99.3235 146.453 99.9102 146.34 100.51 146.34C101.91 146.34 102.983 146.78 103.73 147.66C104.477 148.527 104.85 149.853 104.85 151.64C104.85 151.72 104.85 151.827 104.85 151.96C104.85 152.08 104.843 152.193 104.83 152.3H97.7102C97.7902 153.38 98.1035 154.2 98.6502 154.76C99.1969 155.32 100.05 155.6 101.21 155.6C101.863 155.6 102.41 155.547 102.85 155.44C103.303 155.32 103.643 155.207 103.87 155.1L104.13 156.66C103.903 156.78 103.503 156.907 102.93 157.04C102.37 157.173 101.73 157.24 101.01 157.24C100.103 157.24 99.3169 157.107 98.6502 156.84C97.9969 156.56 97.4569 156.18 97.0302 155.7C96.6035 155.22 96.2835 154.653 96.0702 154C95.8702 153.333 95.7702 152.607 95.7702 151.82ZM102.91 150.8C102.923 149.96 102.71 149.273 102.27 148.74C101.843 148.193 101.25 147.92 100.49 147.92C100.063 147.92 99.6835 148.007 99.3502 148.18C99.0302 148.34 98.7569 148.553 98.5302 148.82C98.3035 149.087 98.1235 149.393 97.9902 149.74C97.8702 150.087 97.7902 150.44 97.7502 150.8H102.91ZM106.052 158.94C106.199 159.007 106.385 159.067 106.612 159.12C106.852 159.187 107.085 159.22 107.312 159.22C108.045 159.22 108.619 159.053 109.032 158.72C109.445 158.4 109.819 157.873 110.152 157.14C109.312 155.54 108.525 153.847 107.792 152.06C107.072 150.26 106.472 148.44 105.992 146.6H107.992C108.139 147.2 108.312 147.847 108.512 148.54C108.725 149.233 108.959 149.947 109.212 150.68C109.465 151.413 109.739 152.147 110.032 152.88C110.325 153.613 110.632 154.32 110.952 155C111.459 153.6 111.899 152.213 112.272 150.84C112.645 149.467 112.999 148.053 113.332 146.6H115.252C114.772 148.56 114.239 150.447 113.652 152.26C113.065 154.06 112.432 155.747 111.752 157.32C111.485 157.92 111.205 158.433 110.912 158.86C110.632 159.3 110.319 159.66 109.972 159.94C109.625 160.22 109.232 160.427 108.792 160.56C108.365 160.693 107.879 160.76 107.332 160.76C107.185 160.76 107.032 160.747 106.872 160.72C106.712 160.707 106.552 160.68 106.392 160.64C106.245 160.613 106.105 160.58 105.972 160.54C105.852 160.5 105.765 160.467 105.712 160.44L106.052 158.94ZM123.762 155.66C124.522 155.66 125.082 155.56 125.442 155.36C125.816 155.16 126.002 154.84 126.002 154.4C126.002 153.947 125.822 153.587 125.462 153.32C125.102 153.053 124.509 152.753 123.682 152.42C123.282 152.26 122.896 152.1 122.522 151.94C122.162 151.767 121.849 151.567 121.582 151.34C121.316 151.113 121.102 150.84 120.942 150.52C120.782 150.2 120.702 149.807 120.702 149.34C120.702 148.42 121.042 147.693 121.722 147.16C122.402 146.613 123.329 146.34 124.502 146.34C124.796 146.34 125.089 146.36 125.382 146.4C125.676 146.427 125.949 146.467 126.202 146.52C126.456 146.56 126.676 146.607 126.862 146.66C127.062 146.713 127.216 146.76 127.322 146.8L126.982 148.4C126.782 148.293 126.469 148.187 126.042 148.08C125.616 147.96 125.102 147.9 124.502 147.9C123.982 147.9 123.529 148.007 123.142 148.22C122.756 148.42 122.562 148.74 122.562 149.18C122.562 149.407 122.602 149.607 122.682 149.78C122.776 149.953 122.909 150.113 123.082 150.26C123.269 150.393 123.496 150.52 123.762 150.64C124.029 150.76 124.349 150.887 124.722 151.02C125.216 151.207 125.656 151.393 126.042 151.58C126.429 151.753 126.756 151.96 127.022 152.2C127.302 152.44 127.516 152.733 127.662 153.08C127.809 153.413 127.882 153.827 127.882 154.32C127.882 155.28 127.522 156.007 126.802 156.5C126.096 156.993 125.082 157.24 123.762 157.24C122.842 157.24 122.122 157.16 121.602 157C121.082 156.853 120.729 156.74 120.542 156.66L120.882 155.06C121.096 155.14 121.436 155.26 121.902 155.42C122.369 155.58 122.989 155.66 123.762 155.66ZM129.438 151.82C129.438 150.9 129.571 150.1 129.838 149.42C130.105 148.727 130.458 148.153 130.898 147.7C131.338 147.247 131.845 146.907 132.418 146.68C132.991 146.453 133.578 146.34 134.178 146.34C135.578 146.34 136.651 146.78 137.398 147.66C138.145 148.527 138.518 149.853 138.518 151.64C138.518 151.72 138.518 151.827 138.518 151.96C138.518 152.08 138.511 152.193 138.498 152.3H131.378C131.458 153.38 131.771 154.2 132.318 154.76C132.865 155.32 133.718 155.6 134.878 155.6C135.531 155.6 136.078 155.547 136.518 155.44C136.971 155.32 137.311 155.207 137.538 155.1L137.798 156.66C137.571 156.78 137.171 156.907 136.598 157.04C136.038 157.173 135.398 157.24 134.678 157.24C133.771 157.24 132.985 157.107 132.318 156.84C131.665 156.56 131.125 156.18 130.698 155.7C130.271 155.22 129.951 154.653 129.738 154C129.538 153.333 129.438 152.607 129.438 151.82ZM136.578 150.8C136.591 149.96 136.378 149.273 135.938 148.74C135.511 148.193 134.918 147.92 134.158 147.92C133.731 147.92 133.351 148.007 133.018 148.18C132.698 148.34 132.425 148.553 132.198 148.82C131.971 149.087 131.791 149.393 131.658 149.74C131.538 150.087 131.458 150.44 131.418 150.8H136.578ZM145.46 157.24C144.62 157.24 143.88 157.107 143.24 156.84C142.613 156.573 142.08 156.2 141.64 155.72C141.213 155.24 140.893 154.673 140.68 154.02C140.467 153.353 140.36 152.62 140.36 151.82C140.36 151.02 140.473 150.287 140.7 149.62C140.94 148.953 141.273 148.38 141.7 147.9C142.127 147.407 142.647 147.027 143.26 146.76C143.887 146.48 144.58 146.34 145.34 146.34C145.807 146.34 146.273 146.38 146.74 146.46C147.207 146.54 147.653 146.667 148.08 146.84L147.66 148.42C147.38 148.287 147.053 148.18 146.68 148.1C146.32 148.02 145.933 147.98 145.52 147.98C144.48 147.98 143.68 148.307 143.12 148.96C142.573 149.613 142.3 150.567 142.3 151.82C142.3 152.38 142.36 152.893 142.48 153.36C142.613 153.827 142.813 154.227 143.08 154.56C143.36 154.893 143.713 155.153 144.14 155.34C144.567 155.513 145.087 155.6 145.7 155.6C146.193 155.6 146.64 155.553 147.04 155.46C147.44 155.367 147.753 155.267 147.98 155.16L148.24 156.72C148.133 156.787 147.98 156.853 147.78 156.92C147.58 156.973 147.353 157.02 147.1 157.06C146.847 157.113 146.573 157.153 146.28 157.18C146 157.22 145.727 157.24 145.46 157.24ZM158.267 156.7C157.84 156.807 157.273 156.92 156.567 157.04C155.873 157.16 155.067 157.22 154.147 157.22C153.347 157.22 152.673 157.107 152.127 156.88C151.58 156.64 151.14 156.307 150.807 155.88C150.473 155.453 150.233 154.953 150.087 154.38C149.94 153.793 149.867 153.147 149.867 152.44V146.6H151.727V152.04C151.727 153.307 151.927 154.213 152.327 154.76C152.727 155.307 153.4 155.58 154.347 155.58C154.547 155.58 154.753 155.573 154.967 155.56C155.18 155.547 155.38 155.533 155.567 155.52C155.753 155.493 155.92 155.473 156.067 155.46C156.227 155.433 156.34 155.407 156.407 155.38V146.6H158.267V156.7ZM165.061 146.38C165.221 146.38 165.401 146.393 165.601 146.42C165.814 146.433 166.021 146.46 166.221 146.5C166.421 146.527 166.601 146.56 166.761 146.6C166.934 146.627 167.061 146.653 167.141 146.68L166.821 148.3C166.674 148.247 166.428 148.187 166.081 148.12C165.748 148.04 165.314 148 164.781 148C164.434 148 164.088 148.04 163.741 148.12C163.408 148.187 163.188 148.233 163.081 148.26V157H161.221V147.04C161.661 146.88 162.208 146.733 162.861 146.6C163.514 146.453 164.248 146.38 165.061 146.38ZM168.106 151.82C168.106 150.9 168.239 150.1 168.506 149.42C168.773 148.727 169.126 148.153 169.566 147.7C170.006 147.247 170.513 146.907 171.086 146.68C171.659 146.453 172.246 146.34 172.846 146.34C174.246 146.34 175.319 146.78 176.066 147.66C176.813 148.527 177.186 149.853 177.186 151.64C177.186 151.72 177.186 151.827 177.186 151.96C177.186 152.08 177.179 152.193 177.166 152.3H170.046C170.126 153.38 170.439 154.2 170.986 154.76C171.533 155.32 172.386 155.6 173.546 155.6C174.199 155.6 174.746 155.547 175.186 155.44C175.639 155.32 175.979 155.207 176.206 155.1L176.466 156.66C176.239 156.78 175.839 156.907 175.266 157.04C174.706 157.173 174.066 157.24 173.346 157.24C172.439 157.24 171.653 157.107 170.986 156.84C170.333 156.56 169.793 156.18 169.366 155.7C168.939 155.22 168.619 154.653 168.406 154C168.206 153.333 168.106 152.607 168.106 151.82ZM175.246 150.8C175.259 149.96 175.046 149.273 174.606 148.74C174.179 148.193 173.586 147.92 172.826 147.92C172.399 147.92 172.019 148.007 171.686 148.18C171.366 148.34 171.093 148.553 170.866 148.82C170.639 149.087 170.459 149.393 170.326 149.74C170.206 150.087 170.126 150.44 170.086 150.8H175.246ZM186.328 148.8C186.101 148.613 185.774 148.433 185.348 148.26C184.921 148.087 184.454 148 183.948 148C183.414 148 182.954 148.1 182.568 148.3C182.194 148.487 181.888 148.753 181.648 149.1C181.408 149.433 181.234 149.833 181.128 150.3C181.021 150.767 180.968 151.267 180.968 151.8C180.968 153.013 181.268 153.953 181.868 154.62C182.468 155.273 183.268 155.6 184.268 155.6C184.774 155.6 185.194 155.58 185.528 155.54C185.874 155.487 186.141 155.433 186.328 155.38V148.8ZM186.328 141.8L188.188 141.48V156.7C187.761 156.82 187.214 156.94 186.548 157.06C185.881 157.18 185.114 157.24 184.248 157.24C183.448 157.24 182.728 157.113 182.088 156.86C181.448 156.607 180.901 156.247 180.448 155.78C179.994 155.313 179.641 154.747 179.388 154.08C179.148 153.4 179.028 152.64 179.028 151.8C179.028 151 179.128 150.267 179.328 149.6C179.541 148.933 179.848 148.36 180.248 147.88C180.648 147.4 181.134 147.027 181.708 146.76C182.294 146.493 182.961 146.36 183.708 146.36C184.308 146.36 184.834 146.44 185.288 146.6C185.754 146.76 186.101 146.913 186.328 147.06V141.8ZM193.015 144.38C192.135 144.38 191.275 144.607 190.435 145.06L189.915 143.62C190.368 143.38 190.875 143.187 191.435 143.04C192.008 142.893 192.615 142.82 193.255 142.82C194.015 142.82 194.635 142.927 195.115 143.14C195.608 143.34 196.002 143.6 196.295 143.92C196.588 144.24 196.788 144.6 196.895 145C197.015 145.387 197.075 145.76 197.075 146.12C197.075 146.573 196.988 146.98 196.815 147.34C196.642 147.687 196.428 148.013 196.175 148.32C195.922 148.627 195.642 148.92 195.335 149.2C195.028 149.48 194.748 149.773 194.495 150.08C194.242 150.373 194.028 150.7 193.855 151.06C193.682 151.407 193.595 151.8 193.595 152.24C193.595 152.307 193.595 152.38 193.595 152.46C193.595 152.54 193.602 152.613 193.615 152.68H192.055C192.002 152.413 191.975 152.133 191.975 151.84C191.975 151.413 192.048 151.027 192.195 150.68C192.355 150.333 192.555 150.013 192.795 149.72C193.035 149.413 193.288 149.133 193.555 148.88C193.822 148.613 194.075 148.347 194.315 148.08C194.555 147.813 194.748 147.533 194.895 147.24C195.055 146.947 195.135 146.627 195.135 146.28C195.135 145.72 194.955 145.267 194.595 144.92C194.235 144.56 193.708 144.38 193.015 144.38ZM194.275 155.92C194.275 156.28 194.155 156.593 193.915 156.86C193.675 157.127 193.348 157.26 192.935 157.26C192.522 157.26 192.195 157.127 191.955 156.86C191.715 156.593 191.595 156.28 191.595 155.92C191.595 155.56 191.715 155.247 191.955 154.98C192.195 154.713 192.522 154.58 192.935 154.58C193.348 154.58 193.675 154.713 193.915 154.98C194.155 155.247 194.275 155.56 194.275 155.92Z" fill="#E4E4E7"/>
<path d="M277 221H263C248.641 221 237 232.641 237 247C237 261.359 248.641 273 263 273H277C291.359 273 303 261.359 303 247C303 232.641 291.359 221 277 221Z" fill="#D1D5DC"/>
<path d="M265.56 254.706C265.56 255.138 265.416 255.514 265.128 255.834C264.84 256.154 264.448 256.314 263.952 256.314C263.456 256.314 263.064 256.154 262.776 255.834C262.488 255.514 262.344 255.138 262.344 254.706C262.344 254.274 262.488 253.898 262.776 253.578C263.064 253.258 263.456 253.098 263.952 253.098C264.448 253.098 264.84 253.258 265.128 253.578C265.416 253.898 265.56 254.274 265.56 254.706ZM271.216 254.706C271.216 255.138 271.072 255.514 270.784 255.834C270.496 256.154 270.104 256.314 269.608 256.314C269.112 256.314 268.72 256.154 268.432 255.834C268.144 255.514 268 255.138 268 254.706C268 254.274 268.144 253.898 268.432 253.578C268.72 253.258 269.112 253.098 269.608 253.098C270.104 253.098 270.496 253.258 270.784 253.578C271.072 253.898 271.216 254.274 271.216 254.706ZM276.873 254.706C276.873 255.138 276.729 255.514 276.441 255.834C276.153 256.154 275.761 256.314 275.265 256.314C274.769 256.314 274.377 256.154 274.089 255.834C273.801 255.514 273.657 255.138 273.657 254.706C273.657 254.274 273.801 253.898 274.089 253.578C274.377 253.258 274.769 253.098 275.265 253.098C275.761 253.098 276.153 253.258 276.441 253.578C276.729 253.898 276.873 254.274 276.873 254.706Z" fill="#404040"/>
</g>
<defs>
<clipPath id="clip0_1493_2266">
<rect width="319" height="289" fill="white"/>
</clipPath>
</defs>
</svg>
