<svg width="319" height="289" viewBox="0 0 319 289" fill="none" xmlns="http://www.w3.org/2000/svg">
<rect x="0.5" y="0.5" width="318" height="288" rx="15.5" stroke="#6A7282"/>
<rect x="16" y="16" width="287" height="47" rx="23.5" fill="#1E2939"/>
<path d="M49.3 37.6C48.74 39.3867 48.1733 41.04 47.6 42.56C47.0267 44.08 46.4533 45.56 45.88 47H43.94C43.2333 44.96 42.6067 42.8067 42.06 40.54C41.5267 38.2733 41.0267 35.8067 40.56 33.14H42.6C42.7867 34.18 42.98 35.22 43.18 36.26C43.38 37.3 43.5867 38.3133 43.8 39.3C44.0133 40.2733 44.2267 41.2067 44.44 42.1C44.6533 42.9933 44.8733 43.82 45.1 44.58C45.6333 43.18 46.2 41.6467 46.8 39.98C47.4 38.3 47.96 36.5667 48.48 34.78H50.16C50.68 36.5667 51.2467 38.3 51.86 39.98C52.4733 41.6467 53.0467 43.18 53.58 44.58C53.7933 43.8333 54.0067 43.0133 54.22 42.12C54.4333 41.2267 54.64 40.2933 54.84 39.32C55.0533 38.3333 55.26 37.32 55.46 36.28C55.66 35.2267 55.8533 34.18 56.04 33.14H58.02C57.54 35.8067 57.0267 38.2733 56.48 40.54C55.9467 42.8067 55.3333 44.96 54.64 47H52.7C52.1133 45.56 51.54 44.08 50.98 42.56C50.42 41.04 49.86 39.3867 49.3 37.6ZM59.9242 47V31.8L61.7842 31.48V36.8C62.1309 36.6667 62.4976 36.5667 62.8842 36.5C63.2842 36.42 63.6776 36.38 64.0642 36.38C64.8909 36.38 65.5776 36.5 66.1242 36.74C66.6709 36.9667 67.1042 37.2933 67.4242 37.72C67.7576 38.1333 67.9909 38.6333 68.1242 39.22C68.2576 39.8067 68.3242 40.4533 68.3242 41.16V47H66.4642V41.56C66.4642 40.92 66.4176 40.3733 66.3242 39.92C66.2442 39.4667 66.1042 39.1 65.9042 38.82C65.7042 38.54 65.4376 38.34 65.1042 38.22C64.7709 38.0867 64.3576 38.02 63.8642 38.02C63.6642 38.02 63.4576 38.0333 63.2442 38.06C63.0309 38.0867 62.8242 38.12 62.6242 38.16C62.4376 38.1867 62.2642 38.22 62.1042 38.26C61.9576 38.3 61.8509 38.3333 61.7842 38.36V47H59.9242ZM74.62 45.66C75.06 45.66 75.4467 45.6533 75.78 45.64C76.1267 45.6133 76.4133 45.5733 76.64 45.52V42.42C76.5067 42.3533 76.2867 42.3 75.98 42.26C75.6867 42.2067 75.3267 42.18 74.9 42.18C74.62 42.18 74.32 42.2 74 42.24C73.6933 42.28 73.4067 42.3667 73.14 42.5C72.8867 42.62 72.6733 42.7933 72.5 43.02C72.3267 43.2333 72.24 43.52 72.24 43.88C72.24 44.5467 72.4533 45.0133 72.88 45.28C73.3067 45.5333 73.8867 45.66 74.62 45.66ZM74.46 36.34C75.2067 36.34 75.8333 36.44 76.34 36.64C76.86 36.8267 77.2733 37.1 77.58 37.46C77.9 37.8067 78.1267 38.2267 78.26 38.72C78.3933 39.2 78.46 39.7333 78.46 40.32V46.82C78.3 46.8467 78.0733 46.8867 77.78 46.94C77.5 46.98 77.18 47.02 76.82 47.06C76.46 47.1 76.0667 47.1333 75.64 47.16C75.2267 47.2 74.8133 47.22 74.4 47.22C73.8133 47.22 73.2733 47.16 72.78 47.04C72.2867 46.92 71.86 46.7333 71.5 46.48C71.14 46.2133 70.86 45.8667 70.66 45.44C70.46 45.0133 70.36 44.5 70.36 43.9C70.36 43.3267 70.4733 42.8333 70.7 42.42C70.94 42.0067 71.26 41.6733 71.66 41.42C72.06 41.1667 72.5267 40.98 73.06 40.86C73.5933 40.74 74.1533 40.68 74.74 40.68C74.9267 40.68 75.12 40.6933 75.32 40.72C75.52 40.7333 75.7067 40.76 75.88 40.8C76.0667 40.8267 76.2267 40.8533 76.36 40.88C76.4933 40.9067 76.5867 40.9267 76.64 40.94V40.42C76.64 40.1133 76.6067 39.8133 76.54 39.52C76.4733 39.2133 76.3533 38.9467 76.18 38.72C76.0067 38.48 75.7667 38.2933 75.46 38.16C75.1667 38.0133 74.78 37.94 74.3 37.94C73.6867 37.94 73.1467 37.9867 72.68 38.08C72.2267 38.16 71.8867 38.2467 71.66 38.34L71.44 36.8C71.68 36.6933 72.08 36.5933 72.64 36.5C73.2 36.3933 73.8067 36.34 74.46 36.34ZM83.0392 36.6H86.9792V38.16H83.0392V42.96C83.0392 43.48 83.0792 43.9133 83.1592 44.26C83.2392 44.5933 83.3592 44.86 83.5192 45.06C83.6792 45.2467 83.8792 45.38 84.1192 45.46C84.3592 45.54 84.6392 45.58 84.9592 45.58C85.5192 45.58 85.9659 45.52 86.2992 45.4C86.6459 45.2667 86.8859 45.1733 87.0192 45.12L87.3792 46.66C87.1926 46.7533 86.8659 46.8667 86.3992 47C85.9326 47.1467 85.3992 47.22 84.7992 47.22C84.0926 47.22 83.5059 47.1333 83.0392 46.96C82.5859 46.7733 82.2192 46.5 81.9392 46.14C81.6592 45.78 81.4592 45.34 81.3392 44.82C81.2326 44.2867 81.1792 43.6733 81.1792 42.98V33.7L83.0392 33.38V36.6ZM97.315 36.38C97.475 36.38 97.655 36.3933 97.855 36.42C98.0683 36.4333 98.275 36.46 98.475 36.5C98.675 36.5267 98.855 36.56 99.015 36.6C99.1883 36.6267 99.315 36.6533 99.395 36.68L99.075 38.3C98.9283 38.2467 98.6817 38.1867 98.335 38.12C98.0017 38.04 97.5683 38 97.035 38C96.6883 38 96.3417 38.04 95.995 38.12C95.6617 38.1867 95.4417 38.2333 95.335 38.26V47H93.475V37.04C93.915 36.88 94.4617 36.7333 95.115 36.6C95.7683 36.4533 96.5017 36.38 97.315 36.38ZM109.22 46.7C108.793 46.8067 108.227 46.92 107.52 47.04C106.827 47.16 106.02 47.22 105.1 47.22C104.3 47.22 103.627 47.1067 103.08 46.88C102.533 46.64 102.093 46.3067 101.76 45.88C101.427 45.4533 101.187 44.9533 101.04 44.38C100.893 43.7933 100.82 43.1467 100.82 42.44V36.6H102.68V42.04C102.68 43.3067 102.88 44.2133 103.28 44.76C103.68 45.3067 104.353 45.58 105.3 45.58C105.5 45.58 105.707 45.5733 105.92 45.56C106.133 45.5467 106.333 45.5333 106.52 45.52C106.707 45.4933 106.873 45.4733 107.02 45.46C107.18 45.4333 107.293 45.4067 107.36 45.38V36.6H109.22V46.7ZM112.174 36.9C112.601 36.7933 113.168 36.68 113.874 36.56C114.581 36.44 115.394 36.38 116.314 36.38C117.141 36.38 117.828 36.5 118.374 36.74C118.921 36.9667 119.354 37.2933 119.674 37.72C120.008 38.1333 120.241 38.6333 120.374 39.22C120.508 39.8067 120.574 40.4533 120.574 41.16V47H118.714V41.56C118.714 40.92 118.668 40.3733 118.574 39.92C118.494 39.4667 118.354 39.1 118.154 38.82C117.954 38.54 117.688 38.34 117.354 38.22C117.021 38.0867 116.608 38.02 116.114 38.02C115.914 38.02 115.708 38.0267 115.494 38.04C115.281 38.0533 115.074 38.0733 114.874 38.1C114.688 38.1133 114.514 38.1333 114.354 38.16C114.208 38.1867 114.101 38.2067 114.034 38.22V47H112.174V36.9ZM125.829 45.66C126.589 45.66 127.149 45.56 127.509 45.36C127.882 45.16 128.069 44.84 128.069 44.4C128.069 43.9467 127.889 43.5867 127.529 43.32C127.169 43.0533 126.575 42.7533 125.749 42.42C125.349 42.26 124.962 42.1 124.589 41.94C124.229 41.7667 123.915 41.5667 123.649 41.34C123.382 41.1133 123.169 40.84 123.009 40.52C122.849 40.2 122.769 39.8067 122.769 39.34C122.769 38.42 123.109 37.6933 123.789 37.16C124.469 36.6133 125.395 36.34 126.569 36.34C126.862 36.34 127.155 36.36 127.449 36.4C127.742 36.4267 128.015 36.4667 128.269 36.52C128.522 36.56 128.742 36.6067 128.929 36.66C129.129 36.7133 129.282 36.76 129.389 36.8L129.049 38.4C128.849 38.2933 128.535 38.1867 128.109 38.08C127.682 37.96 127.169 37.9 126.569 37.9C126.049 37.9 125.595 38.0067 125.209 38.22C124.822 38.42 124.629 38.74 124.629 39.18C124.629 39.4067 124.669 39.6067 124.749 39.78C124.842 39.9533 124.975 40.1133 125.149 40.26C125.335 40.3933 125.562 40.52 125.829 40.64C126.095 40.76 126.415 40.8867 126.789 41.02C127.282 41.2067 127.722 41.3933 128.109 41.58C128.495 41.7533 128.822 41.96 129.089 42.2C129.369 42.44 129.582 42.7333 129.729 43.08C129.875 43.4133 129.949 43.8267 129.949 44.32C129.949 45.28 129.589 46.0067 128.869 46.5C128.162 46.9933 127.149 47.24 125.829 47.24C124.909 47.24 124.189 47.16 123.669 47C123.149 46.8533 122.795 46.74 122.609 46.66L122.949 45.06C123.162 45.14 123.502 45.26 123.969 45.42C124.435 45.58 125.055 45.66 125.829 45.66ZM138.323 47H136.463V36.6H138.323V47ZM137.383 34.72C137.05 34.72 136.763 34.6133 136.523 34.4C136.297 34.1733 136.183 33.8733 136.183 33.5C136.183 33.1267 136.297 32.8333 136.523 32.62C136.763 32.3933 137.05 32.28 137.383 32.28C137.717 32.28 137.997 32.3933 138.223 32.62C138.463 32.8333 138.583 33.1267 138.583 33.5C138.583 33.8733 138.463 34.1733 138.223 34.4C137.997 34.6133 137.717 34.72 137.383 34.72ZM141.272 36.9C141.699 36.7933 142.265 36.68 142.972 36.56C143.679 36.44 144.492 36.38 145.412 36.38C146.239 36.38 146.925 36.5 147.472 36.74C148.019 36.9667 148.452 37.2933 148.772 37.72C149.105 38.1333 149.339 38.6333 149.472 39.22C149.605 39.8067 149.672 40.4533 149.672 41.16V47H147.812V41.56C147.812 40.92 147.765 40.3733 147.672 39.92C147.592 39.4667 147.452 39.1 147.252 38.82C147.052 38.54 146.785 38.34 146.452 38.22C146.119 38.0867 145.705 38.02 145.212 38.02C145.012 38.02 144.805 38.0267 144.592 38.04C144.379 38.0533 144.172 38.0733 143.972 38.1C143.785 38.1133 143.612 38.1333 143.452 38.16C143.305 38.1867 143.199 38.2067 143.132 38.22V47H141.272V36.9ZM155.665 48.94C155.812 49.0067 155.998 49.0667 156.225 49.12C156.465 49.1867 156.698 49.22 156.925 49.22C157.658 49.22 158.232 49.0533 158.645 48.72C159.058 48.4 159.432 47.8733 159.765 47.14C158.925 45.54 158.138 43.8467 157.405 42.06C156.685 40.26 156.085 38.44 155.605 36.6H157.605C157.752 37.2 157.925 37.8467 158.125 38.54C158.338 39.2333 158.572 39.9467 158.825 40.68C159.078 41.4133 159.352 42.1467 159.645 42.88C159.938 43.6133 160.245 44.32 160.565 45C161.072 43.6 161.512 42.2133 161.885 40.84C162.258 39.4667 162.612 38.0533 162.945 36.6H164.865C164.385 38.56 163.852 40.4467 163.265 42.26C162.678 44.06 162.045 45.7467 161.365 47.32C161.098 47.92 160.818 48.4333 160.525 48.86C160.245 49.3 159.932 49.66 159.585 49.94C159.238 50.22 158.845 50.4267 158.405 50.56C157.978 50.6933 157.492 50.76 156.945 50.76C156.798 50.76 156.645 50.7467 156.485 50.72C156.325 50.7067 156.165 50.68 156.005 50.64C155.858 50.6133 155.718 50.58 155.585 50.54C155.465 50.5 155.378 50.4667 155.325 50.44L155.665 48.94ZM175.757 41.8C175.757 42.6267 175.637 43.3733 175.397 44.04C175.157 44.7067 174.817 45.28 174.377 45.76C173.95 46.24 173.437 46.6133 172.837 46.88C172.237 47.1333 171.583 47.26 170.877 47.26C170.17 47.26 169.517 47.1333 168.917 46.88C168.317 46.6133 167.797 46.24 167.357 45.76C166.93 45.28 166.597 44.7067 166.357 44.04C166.117 43.3733 165.997 42.6267 165.997 41.8C165.997 40.9867 166.117 40.2467 166.357 39.58C166.597 38.9 166.93 38.32 167.357 37.84C167.797 37.36 168.317 36.9933 168.917 36.74C169.517 36.4733 170.17 36.34 170.877 36.34C171.583 36.34 172.237 36.4733 172.837 36.74C173.437 36.9933 173.95 37.36 174.377 37.84C174.817 38.32 175.157 38.9 175.397 39.58C175.637 40.2467 175.757 40.9867 175.757 41.8ZM173.817 41.8C173.817 40.6267 173.55 39.7 173.017 39.02C172.497 38.3267 171.783 37.98 170.877 37.98C169.97 37.98 169.25 38.3267 168.717 39.02C168.197 39.7 167.937 40.6267 167.937 41.8C167.937 42.9733 168.197 43.9067 168.717 44.6C169.25 45.28 169.97 45.62 170.877 45.62C171.783 45.62 172.497 45.28 173.017 44.6C173.55 43.9067 173.817 42.9733 173.817 41.8ZM186.403 46.7C185.977 46.8067 185.41 46.92 184.703 47.04C184.01 47.16 183.203 47.22 182.283 47.22C181.483 47.22 180.81 47.1067 180.263 46.88C179.717 46.64 179.277 46.3067 178.943 45.88C178.61 45.4533 178.37 44.9533 178.223 44.38C178.077 43.7933 178.003 43.1467 178.003 42.44V36.6H179.863V42.04C179.863 43.3067 180.063 44.2133 180.463 44.76C180.863 45.3067 181.537 45.58 182.483 45.58C182.683 45.58 182.89 45.5733 183.103 45.56C183.317 45.5467 183.517 45.5333 183.703 45.52C183.89 45.4933 184.057 45.4733 184.203 45.46C184.363 45.4333 184.477 45.4067 184.543 45.38V36.6H186.403V46.7ZM193.198 36.38C193.358 36.38 193.538 36.3933 193.738 36.42C193.951 36.4333 194.158 36.46 194.358 36.5C194.558 36.5267 194.738 36.56 194.898 36.6C195.071 36.6267 195.198 36.6533 195.278 36.68L194.958 38.3C194.811 38.2467 194.564 38.1867 194.218 38.12C193.884 38.04 193.451 38 192.918 38C192.571 38 192.224 38.04 191.878 38.12C191.544 38.1867 191.324 38.2333 191.218 38.26V47H189.358V37.04C189.798 36.88 190.344 36.7333 190.998 36.6C191.651 36.4533 192.384 36.38 193.198 36.38ZM208.422 41.82C208.422 40.6067 208.122 39.6733 207.522 39.02C206.922 38.3667 206.122 38.04 205.122 38.04C204.562 38.04 204.122 38.06 203.802 38.1C203.495 38.14 203.248 38.1867 203.062 38.24V44.8C203.288 44.9867 203.615 45.1667 204.042 45.34C204.468 45.5133 204.935 45.6 205.442 45.6C205.975 45.6 206.428 45.5067 206.802 45.32C207.188 45.12 207.502 44.8533 207.742 44.52C207.982 44.1733 208.155 43.7733 208.262 43.32C208.368 42.8533 208.422 42.3533 208.422 41.82ZM210.362 41.82C210.362 42.6067 210.255 43.3333 210.042 44C209.842 44.6667 209.542 45.24 209.142 45.72C208.742 46.2 208.248 46.5733 207.662 46.84C207.088 47.1067 206.428 47.24 205.682 47.24C205.082 47.24 204.548 47.16 204.082 47C203.628 46.84 203.288 46.6867 203.062 46.54V50.7H201.202V36.92C201.642 36.8133 202.188 36.7 202.842 36.58C203.508 36.4467 204.275 36.38 205.142 36.38C205.942 36.38 206.662 36.5067 207.302 36.76C207.942 37.0133 208.488 37.3733 208.942 37.84C209.395 38.3067 209.742 38.88 209.982 39.56C210.235 40.2267 210.362 40.98 210.362 41.82ZM214.589 47H212.729V36.6H214.589V47ZM213.649 34.72C213.316 34.72 213.029 34.6133 212.789 34.4C212.562 34.1733 212.449 33.8733 212.449 33.5C212.449 33.1267 212.562 32.8333 212.789 32.62C213.029 32.3933 213.316 32.28 213.649 32.28C213.982 32.28 214.262 32.3933 214.489 32.62C214.729 32.8333 214.849 33.1267 214.849 33.5C214.849 33.8733 214.729 34.1733 214.489 34.4C214.262 34.6133 213.982 34.72 213.649 34.72ZM224.758 41.82C224.758 40.6067 224.458 39.6733 223.858 39.02C223.258 38.3667 222.458 38.04 221.458 38.04C220.898 38.04 220.458 38.06 220.138 38.1C219.831 38.14 219.584 38.1867 219.398 38.24V44.8C219.624 44.9867 219.951 45.1667 220.378 45.34C220.804 45.5133 221.271 45.6 221.778 45.6C222.311 45.6 222.764 45.5067 223.138 45.32C223.524 45.12 223.838 44.8533 224.078 44.52C224.318 44.1733 224.491 43.7733 224.598 43.32C224.704 42.8533 224.758 42.3533 224.758 41.82ZM226.698 41.82C226.698 42.6067 226.591 43.3333 226.378 44C226.178 44.6667 225.878 45.24 225.478 45.72C225.078 46.2 224.584 46.5733 223.998 46.84C223.424 47.1067 222.764 47.24 222.018 47.24C221.418 47.24 220.884 47.16 220.418 47C219.964 46.84 219.624 46.6867 219.398 46.54V50.7H217.538V36.92C217.978 36.8133 218.524 36.7 219.178 36.58C219.844 36.4467 220.611 36.38 221.478 36.38C222.278 36.38 222.998 36.5067 223.638 36.76C224.278 37.0133 224.824 37.3733 225.278 37.84C225.731 38.3067 226.078 38.88 226.318 39.56C226.571 40.2267 226.698 40.98 226.698 41.82ZM228.485 41.82C228.485 40.9 228.618 40.1 228.885 39.42C229.152 38.7267 229.505 38.1533 229.945 37.7C230.385 37.2467 230.892 36.9067 231.465 36.68C232.038 36.4533 232.625 36.34 233.225 36.34C234.625 36.34 235.698 36.78 236.445 37.66C237.192 38.5267 237.565 39.8533 237.565 41.64C237.565 41.72 237.565 41.8267 237.565 41.96C237.565 42.08 237.558 42.1933 237.545 42.3H230.425C230.505 43.38 230.818 44.2 231.365 44.76C231.912 45.32 232.765 45.6 233.925 45.6C234.578 45.6 235.125 45.5467 235.565 45.44C236.018 45.32 236.358 45.2067 236.585 45.1L236.845 46.66C236.618 46.78 236.218 46.9067 235.645 47.04C235.085 47.1733 234.445 47.24 233.725 47.24C232.818 47.24 232.032 47.1067 231.365 46.84C230.712 46.56 230.172 46.18 229.745 45.7C229.318 45.22 228.998 44.6533 228.785 44C228.585 43.3333 228.485 42.6067 228.485 41.82ZM235.625 40.8C235.638 39.96 235.425 39.2733 234.985 38.74C234.558 38.1933 233.965 37.92 233.205 37.92C232.778 37.92 232.398 38.0067 232.065 38.18C231.745 38.34 231.472 38.5533 231.245 38.82C231.018 39.0867 230.838 39.3933 230.705 39.74C230.585 40.0867 230.505 40.44 230.465 40.8H235.625ZM243.107 47.2C241.96 47.1733 241.147 46.9267 240.667 46.46C240.187 45.9933 239.947 45.2667 239.947 44.28V31.8L241.807 31.48V43.98C241.807 44.2867 241.833 44.54 241.887 44.74C241.94 44.94 242.027 45.1 242.147 45.22C242.267 45.34 242.427 45.4333 242.627 45.5C242.827 45.5533 243.073 45.6 243.367 45.64L243.107 47.2ZM247.065 47H245.205V36.6H247.065V47ZM246.125 34.72C245.792 34.72 245.505 34.6133 245.265 34.4C245.039 34.1733 244.925 33.8733 244.925 33.5C244.925 33.1267 245.039 32.8333 245.265 32.62C245.505 32.3933 245.792 32.28 246.125 32.28C246.459 32.28 246.739 32.3933 246.965 32.62C247.205 32.8333 247.325 33.1267 247.325 33.5C247.325 33.8733 247.205 34.1733 246.965 34.4C246.739 34.6133 246.459 34.72 246.125 34.72ZM250.014 36.9C250.441 36.7933 251.007 36.68 251.714 36.56C252.421 36.44 253.234 36.38 254.154 36.38C254.981 36.38 255.667 36.5 256.214 36.74C256.761 36.9667 257.194 37.2933 257.514 37.72C257.847 38.1333 258.081 38.6333 258.214 39.22C258.347 39.8067 258.414 40.4533 258.414 41.16V47H256.554V41.56C256.554 40.92 256.507 40.3733 256.414 39.92C256.334 39.4667 256.194 39.1 255.994 38.82C255.794 38.54 255.527 38.34 255.194 38.22C254.861 38.0867 254.447 38.02 253.954 38.02C253.754 38.02 253.547 38.0267 253.334 38.04C253.121 38.0533 252.914 38.0733 252.714 38.1C252.527 38.1133 252.354 38.1333 252.194 38.16C252.047 38.1867 251.941 38.2067 251.874 38.22V47H250.014V36.9ZM260.668 41.82C260.668 40.9 260.802 40.1 261.068 39.42C261.335 38.7267 261.688 38.1533 262.128 37.7C262.568 37.2467 263.075 36.9067 263.648 36.68C264.222 36.4533 264.808 36.34 265.408 36.34C266.808 36.34 267.882 36.78 268.628 37.66C269.375 38.5267 269.748 39.8533 269.748 41.64C269.748 41.72 269.748 41.8267 269.748 41.96C269.748 42.08 269.742 42.1933 269.728 42.3H262.608C262.688 43.38 263.002 44.2 263.548 44.76C264.095 45.32 264.948 45.6 266.108 45.6C266.762 45.6 267.308 45.5467 267.748 45.44C268.202 45.32 268.542 45.2067 268.768 45.1L269.028 46.66C268.802 46.78 268.402 46.9067 267.828 47.04C267.268 47.1733 266.628 47.24 265.908 47.24C265.002 47.24 264.215 47.1067 263.548 46.84C262.895 46.56 262.355 46.18 261.928 45.7C261.502 45.22 261.182 44.6533 260.968 44C260.768 43.3333 260.668 42.6067 260.668 41.82ZM267.808 40.8C267.822 39.96 267.608 39.2733 267.168 38.74C266.742 38.1933 266.148 37.92 265.388 37.92C264.962 37.92 264.582 38.0067 264.248 38.18C263.928 38.34 263.655 38.5533 263.428 38.82C263.202 39.0867 263.022 39.3933 262.888 39.74C262.768 40.0867 262.688 40.44 262.648 40.8H267.808ZM274.05 34.38C273.17 34.38 272.31 34.6067 271.47 35.06L270.95 33.62C271.404 33.38 271.91 33.1867 272.47 33.04C273.044 32.8933 273.65 32.82 274.29 32.82C275.05 32.82 275.67 32.9267 276.15 33.14C276.644 33.34 277.037 33.6 277.33 33.92C277.624 34.24 277.824 34.6 277.93 35C278.05 35.3867 278.11 35.76 278.11 36.12C278.11 36.5733 278.024 36.98 277.85 37.34C277.677 37.6867 277.464 38.0133 277.21 38.32C276.957 38.6267 276.677 38.92 276.37 39.2C276.064 39.48 275.784 39.7733 275.53 40.08C275.277 40.3733 275.064 40.7 274.89 41.06C274.717 41.4067 274.63 41.8 274.63 42.24C274.63 42.3067 274.63 42.38 274.63 42.46C274.63 42.54 274.637 42.6133 274.65 42.68H273.09C273.037 42.4133 273.01 42.1333 273.01 41.84C273.01 41.4133 273.084 41.0267 273.23 40.68C273.39 40.3333 273.59 40.0133 273.83 39.72C274.07 39.4133 274.324 39.1333 274.59 38.88C274.857 38.6133 275.11 38.3467 275.35 38.08C275.59 37.8133 275.784 37.5333 275.93 37.24C276.09 36.9467 276.17 36.6267 276.17 36.28C276.17 35.72 275.99 35.2667 275.63 34.92C275.27 34.56 274.744 34.38 274.05 34.38ZM275.31 45.92C275.31 46.28 275.19 46.5933 274.95 46.86C274.71 47.1267 274.384 47.26 273.97 47.26C273.557 47.26 273.23 47.1267 272.99 46.86C272.75 46.5933 272.63 46.28 272.63 45.92C272.63 45.56 272.75 45.2467 272.99 44.98C273.23 44.7133 273.557 44.58 273.97 44.58C274.384 44.58 274.71 44.7133 274.95 44.98C275.19 45.2467 275.31 45.56 275.31 45.92Z" fill="#E4E4E7"/>
<rect x="16" y="71" width="193" height="47" rx="23.5" fill="#1E2939"/>
<path d="M49.3 92.6C48.74 94.3867 48.1733 96.04 47.6 97.56C47.0267 99.08 46.4533 100.56 45.88 102H43.94C43.2333 99.96 42.6067 97.8067 42.06 95.54C41.5267 93.2733 41.0267 90.8067 40.56 88.14H42.6C42.7867 89.18 42.98 90.22 43.18 91.26C43.38 92.3 43.5867 93.3133 43.8 94.3C44.0133 95.2733 44.2267 96.2067 44.44 97.1C44.6533 97.9933 44.8733 98.82 45.1 99.58C45.6333 98.18 46.2 96.6467 46.8 94.98C47.4 93.3 47.96 91.5667 48.48 89.78H50.16C50.68 91.5667 51.2467 93.3 51.86 94.98C52.4733 96.6467 53.0467 98.18 53.58 99.58C53.7933 98.8333 54.0067 98.0133 54.22 97.12C54.4333 96.2267 54.64 95.2933 54.84 94.32C55.0533 93.3333 55.26 92.32 55.46 91.28C55.66 90.2267 55.8533 89.18 56.04 88.14H58.02C57.54 90.8067 57.0267 93.2733 56.48 95.54C55.9467 97.8067 55.3333 99.96 54.64 102H52.7C52.1133 100.56 51.54 99.08 50.98 97.56C50.42 96.04 49.86 94.3867 49.3 92.6ZM59.9242 102V86.8L61.7842 86.48V91.8C62.1309 91.6667 62.4976 91.5667 62.8842 91.5C63.2842 91.42 63.6776 91.38 64.0642 91.38C64.8909 91.38 65.5776 91.5 66.1242 91.74C66.6709 91.9667 67.1042 92.2933 67.4242 92.72C67.7576 93.1333 67.9909 93.6333 68.1242 94.22C68.2576 94.8067 68.3242 95.4533 68.3242 96.16V102H66.4642V96.56C66.4642 95.92 66.4176 95.3733 66.3242 94.92C66.2442 94.4667 66.1042 94.1 65.9042 93.82C65.7042 93.54 65.4376 93.34 65.1042 93.22C64.7709 93.0867 64.3576 93.02 63.8642 93.02C63.6642 93.02 63.4576 93.0333 63.2442 93.06C63.0309 93.0867 62.8242 93.12 62.6242 93.16C62.4376 93.1867 62.2642 93.22 62.1042 93.26C61.9576 93.3 61.8509 93.3333 61.7842 93.36V102H59.9242ZM80.28 96.8C80.28 97.6267 80.16 98.3733 79.92 99.04C79.68 99.7067 79.34 100.28 78.9 100.76C78.4733 101.24 77.96 101.613 77.36 101.88C76.76 102.133 76.1067 102.26 75.4 102.26C74.6933 102.26 74.04 102.133 73.44 101.88C72.84 101.613 72.32 101.24 71.88 100.76C71.4533 100.28 71.12 99.7067 70.88 99.04C70.64 98.3733 70.52 97.6267 70.52 96.8C70.52 95.9867 70.64 95.2467 70.88 94.58C71.12 93.9 71.4533 93.32 71.88 92.84C72.32 92.36 72.84 91.9933 73.44 91.74C74.04 91.4733 74.6933 91.34 75.4 91.34C76.1067 91.34 76.76 91.4733 77.36 91.74C77.96 91.9933 78.4733 92.36 78.9 92.84C79.34 93.32 79.68 93.9 79.92 94.58C80.16 95.2467 80.28 95.9867 80.28 96.8ZM78.34 96.8C78.34 95.6267 78.0733 94.7 77.54 94.02C77.02 93.3267 76.3067 92.98 75.4 92.98C74.4933 92.98 73.7733 93.3267 73.24 94.02C72.72 94.7 72.46 95.6267 72.46 96.8C72.46 97.9733 72.72 98.9067 73.24 99.6C73.7733 100.28 74.4933 100.62 75.4 100.62C76.3067 100.62 77.02 100.28 77.54 99.6C78.0733 98.9067 78.34 97.9733 78.34 96.8ZM87.0258 102V86.8L88.8858 86.48V91.8C89.2324 91.6667 89.5991 91.5667 89.9858 91.5C90.3858 91.42 90.7791 91.38 91.1658 91.38C91.9924 91.38 92.6791 91.5 93.2258 91.74C93.7724 91.9667 94.2058 92.2933 94.5258 92.72C94.8591 93.1333 95.0924 93.6333 95.2258 94.22C95.3591 94.8067 95.4258 95.4533 95.4258 96.16V102H93.5658V96.56C93.5658 95.92 93.5191 95.3733 93.4258 94.92C93.3458 94.4667 93.2058 94.1 93.0058 93.82C92.8058 93.54 92.5391 93.34 92.2058 93.22C91.8724 93.0867 91.4591 93.02 90.9658 93.02C90.7658 93.02 90.5591 93.0333 90.3458 93.06C90.1324 93.0867 89.9258 93.12 89.7258 93.16C89.5391 93.1867 89.3658 93.22 89.2058 93.26C89.0591 93.3 88.9524 93.3333 88.8858 93.36V102H87.0258ZM101.722 100.66C102.162 100.66 102.548 100.653 102.882 100.64C103.228 100.613 103.515 100.573 103.742 100.52V97.42C103.608 97.3533 103.388 97.3 103.082 97.26C102.788 97.2067 102.428 97.18 102.002 97.18C101.722 97.18 101.422 97.2 101.102 97.24C100.795 97.28 100.508 97.3667 100.242 97.5C99.9882 97.62 99.7749 97.7933 99.6016 98.02C99.4282 98.2333 99.3416 98.52 99.3416 98.88C99.3416 99.5467 99.5549 100.013 99.9816 100.28C100.408 100.533 100.988 100.66 101.722 100.66ZM101.562 91.34C102.308 91.34 102.935 91.44 103.442 91.64C103.962 91.8267 104.375 92.1 104.682 92.46C105.002 92.8067 105.228 93.2267 105.362 93.72C105.495 94.2 105.562 94.7333 105.562 95.32V101.82C105.402 101.847 105.175 101.887 104.882 101.94C104.602 101.98 104.282 102.02 103.922 102.06C103.562 102.1 103.168 102.133 102.742 102.16C102.328 102.2 101.915 102.22 101.502 102.22C100.915 102.22 100.375 102.16 99.8816 102.04C99.3882 101.92 98.9616 101.733 98.6016 101.48C98.2416 101.213 97.9616 100.867 97.7616 100.44C97.5616 100.013 97.4616 99.5 97.4616 98.9C97.4616 98.3267 97.5749 97.8333 97.8016 97.42C98.0416 97.0067 98.3616 96.6733 98.7616 96.42C99.1616 96.1667 99.6282 95.98 100.162 95.86C100.695 95.74 101.255 95.68 101.842 95.68C102.028 95.68 102.222 95.6933 102.422 95.72C102.622 95.7333 102.808 95.76 102.982 95.8C103.168 95.8267 103.328 95.8533 103.462 95.88C103.595 95.9067 103.688 95.9267 103.742 95.94V95.42C103.742 95.1133 103.708 94.8133 103.642 94.52C103.575 94.2133 103.455 93.9467 103.282 93.72C103.108 93.48 102.868 93.2933 102.562 93.16C102.268 93.0133 101.882 92.94 101.402 92.94C100.788 92.94 100.248 92.9867 99.7816 93.08C99.3282 93.16 98.9882 93.2467 98.7616 93.34L98.5416 91.8C98.7816 91.6933 99.1816 91.5933 99.7416 91.5C100.302 91.3933 100.908 91.34 101.562 91.34ZM110.821 100.66C111.581 100.66 112.141 100.56 112.501 100.36C112.874 100.16 113.061 99.84 113.061 99.4C113.061 98.9467 112.881 98.5867 112.521 98.32C112.161 98.0533 111.567 97.7533 110.741 97.42C110.341 97.26 109.954 97.1 109.581 96.94C109.221 96.7667 108.907 96.5667 108.641 96.34C108.374 96.1133 108.161 95.84 108.001 95.52C107.841 95.2 107.761 94.8067 107.761 94.34C107.761 93.42 108.101 92.6933 108.781 92.16C109.461 91.6133 110.387 91.34 111.561 91.34C111.854 91.34 112.147 91.36 112.441 91.4C112.734 91.4267 113.007 91.4667 113.261 91.52C113.514 91.56 113.734 91.6067 113.921 91.66C114.121 91.7133 114.274 91.76 114.381 91.8L114.041 93.4C113.841 93.2933 113.527 93.1867 113.101 93.08C112.674 92.96 112.161 92.9 111.561 92.9C111.041 92.9 110.587 93.0067 110.201 93.22C109.814 93.42 109.621 93.74 109.621 94.18C109.621 94.4067 109.661 94.6067 109.741 94.78C109.834 94.9533 109.967 95.1133 110.141 95.26C110.327 95.3933 110.554 95.52 110.821 95.64C111.087 95.76 111.407 95.8867 111.781 96.02C112.274 96.2067 112.714 96.3933 113.101 96.58C113.487 96.7533 113.814 96.96 114.081 97.2C114.361 97.44 114.574 97.7333 114.721 98.08C114.867 98.4133 114.941 98.8267 114.941 99.32C114.941 100.28 114.581 101.007 113.861 101.5C113.154 101.993 112.141 102.24 110.821 102.24C109.901 102.24 109.181 102.16 108.661 102C108.141 101.853 107.787 101.74 107.601 101.66L107.941 100.06C108.154 100.14 108.494 100.26 108.961 100.42C109.427 100.58 110.047 100.66 110.821 100.66ZM124.975 100.66C125.415 100.66 125.802 100.653 126.135 100.64C126.482 100.613 126.769 100.573 126.995 100.52V97.42C126.862 97.3533 126.642 97.3 126.335 97.26C126.042 97.2067 125.682 97.18 125.255 97.18C124.975 97.18 124.675 97.2 124.355 97.24C124.049 97.28 123.762 97.3667 123.495 97.5C123.242 97.62 123.029 97.7933 122.855 98.02C122.682 98.2333 122.595 98.52 122.595 98.88C122.595 99.5467 122.809 100.013 123.235 100.28C123.662 100.533 124.242 100.66 124.975 100.66ZM124.815 91.34C125.562 91.34 126.189 91.44 126.695 91.64C127.215 91.8267 127.629 92.1 127.935 92.46C128.255 92.8067 128.482 93.2267 128.615 93.72C128.749 94.2 128.815 94.7333 128.815 95.32V101.82C128.655 101.847 128.429 101.887 128.135 101.94C127.855 101.98 127.535 102.02 127.175 102.06C126.815 102.1 126.422 102.133 125.995 102.16C125.582 102.2 125.169 102.22 124.755 102.22C124.169 102.22 123.629 102.16 123.135 102.04C122.642 101.92 122.215 101.733 121.855 101.48C121.495 101.213 121.215 100.867 121.015 100.44C120.815 100.013 120.715 99.5 120.715 98.9C120.715 98.3267 120.829 97.8333 121.055 97.42C121.295 97.0067 121.615 96.6733 122.015 96.42C122.415 96.1667 122.882 95.98 123.415 95.86C123.949 95.74 124.509 95.68 125.095 95.68C125.282 95.68 125.475 95.6933 125.675 95.72C125.875 95.7333 126.062 95.76 126.235 95.8C126.422 95.8267 126.582 95.8533 126.715 95.88C126.849 95.9067 126.942 95.9267 126.995 95.94V95.42C126.995 95.1133 126.962 94.8133 126.895 94.52C126.829 94.2133 126.709 93.9467 126.535 93.72C126.362 93.48 126.122 93.2933 125.815 93.16C125.522 93.0133 125.135 92.94 124.655 92.94C124.042 92.94 123.502 92.9867 123.035 93.08C122.582 93.16 122.242 93.2467 122.015 93.34L121.795 91.8C122.035 91.6933 122.435 91.5933 122.995 91.5C123.555 91.3933 124.162 91.34 124.815 91.34ZM136.175 102.24C135.335 102.24 134.595 102.107 133.955 101.84C133.328 101.573 132.795 101.2 132.355 100.72C131.928 100.24 131.608 99.6733 131.395 99.02C131.181 98.3533 131.075 97.62 131.075 96.82C131.075 96.02 131.188 95.2867 131.415 94.62C131.655 93.9533 131.988 93.38 132.415 92.9C132.841 92.4067 133.361 92.0267 133.975 91.76C134.601 91.48 135.295 91.34 136.055 91.34C136.521 91.34 136.988 91.38 137.455 91.46C137.921 91.54 138.368 91.6667 138.795 91.84L138.375 93.42C138.095 93.2867 137.768 93.18 137.395 93.1C137.035 93.02 136.648 92.98 136.235 92.98C135.195 92.98 134.395 93.3067 133.835 93.96C133.288 94.6133 133.015 95.5667 133.015 96.82C133.015 97.38 133.075 97.8933 133.195 98.36C133.328 98.8267 133.528 99.2267 133.795 99.56C134.075 99.8933 134.428 100.153 134.855 100.34C135.281 100.513 135.801 100.6 136.415 100.6C136.908 100.6 137.355 100.553 137.755 100.46C138.155 100.367 138.468 100.267 138.695 100.16L138.955 101.72C138.848 101.787 138.695 101.853 138.495 101.92C138.295 101.973 138.068 102.02 137.815 102.06C137.561 102.113 137.288 102.153 136.995 102.18C136.715 102.22 136.441 102.24 136.175 102.24ZM145.222 102.24C144.382 102.24 143.642 102.107 143.002 101.84C142.375 101.573 141.842 101.2 141.402 100.72C140.975 100.24 140.655 99.6733 140.442 99.02C140.228 98.3533 140.122 97.62 140.122 96.82C140.122 96.02 140.235 95.2867 140.462 94.62C140.702 93.9533 141.035 93.38 141.462 92.9C141.888 92.4067 142.408 92.0267 143.022 91.76C143.648 91.48 144.342 91.34 145.102 91.34C145.568 91.34 146.035 91.38 146.502 91.46C146.968 91.54 147.415 91.6667 147.842 91.84L147.422 93.42C147.142 93.2867 146.815 93.18 146.442 93.1C146.082 93.02 145.695 92.98 145.282 92.98C144.242 92.98 143.442 93.3067 142.882 93.96C142.335 94.6133 142.062 95.5667 142.062 96.82C142.062 97.38 142.122 97.8933 142.242 98.36C142.375 98.8267 142.575 99.2267 142.842 99.56C143.122 99.8933 143.475 100.153 143.902 100.34C144.328 100.513 144.848 100.6 145.462 100.6C145.955 100.6 146.402 100.553 146.802 100.46C147.202 100.367 147.515 100.267 147.742 100.16L148.002 101.72C147.895 101.787 147.742 101.853 147.542 101.92C147.342 101.973 147.115 102.02 146.862 102.06C146.608 102.113 146.335 102.153 146.042 102.18C145.762 102.22 145.488 102.24 145.222 102.24ZM149.168 96.82C149.168 95.9 149.302 95.1 149.568 94.42C149.835 93.7267 150.188 93.1533 150.628 92.7C151.068 92.2467 151.575 91.9067 152.148 91.68C152.722 91.4533 153.308 91.34 153.908 91.34C155.308 91.34 156.382 91.78 157.128 92.66C157.875 93.5267 158.248 94.8533 158.248 96.64C158.248 96.72 158.248 96.8267 158.248 96.96C158.248 97.08 158.242 97.1933 158.228 97.3H151.108C151.188 98.38 151.502 99.2 152.048 99.76C152.595 100.32 153.448 100.6 154.608 100.6C155.262 100.6 155.808 100.547 156.248 100.44C156.702 100.32 157.042 100.207 157.268 100.1L157.528 101.66C157.302 101.78 156.902 101.907 156.328 102.04C155.768 102.173 155.128 102.24 154.408 102.24C153.502 102.24 152.715 102.107 152.048 101.84C151.395 101.56 150.855 101.18 150.428 100.7C150.002 100.22 149.682 99.6533 149.468 99C149.268 98.3333 149.168 97.6067 149.168 96.82ZM156.308 95.8C156.322 94.96 156.108 94.2733 155.668 93.74C155.242 93.1933 154.648 92.92 153.888 92.92C153.462 92.92 153.082 93.0067 152.748 93.18C152.428 93.34 152.155 93.5533 151.928 93.82C151.702 94.0867 151.522 94.3933 151.388 94.74C151.268 95.0867 151.188 95.44 151.148 95.8H156.308ZM163.09 100.66C163.85 100.66 164.41 100.56 164.77 100.36C165.144 100.16 165.33 99.84 165.33 99.4C165.33 98.9467 165.15 98.5867 164.79 98.32C164.43 98.0533 163.837 97.7533 163.01 97.42C162.61 97.26 162.224 97.1 161.85 96.94C161.49 96.7667 161.177 96.5667 160.91 96.34C160.644 96.1133 160.43 95.84 160.27 95.52C160.11 95.2 160.03 94.8067 160.03 94.34C160.03 93.42 160.37 92.6933 161.05 92.16C161.73 91.6133 162.657 91.34 163.83 91.34C164.124 91.34 164.417 91.36 164.71 91.4C165.004 91.4267 165.277 91.4667 165.53 91.52C165.784 91.56 166.004 91.6067 166.19 91.66C166.39 91.7133 166.544 91.76 166.65 91.8L166.31 93.4C166.11 93.2933 165.797 93.1867 165.37 93.08C164.944 92.96 164.43 92.9 163.83 92.9C163.31 92.9 162.857 93.0067 162.47 93.22C162.084 93.42 161.89 93.74 161.89 94.18C161.89 94.4067 161.93 94.6067 162.01 94.78C162.104 94.9533 162.237 95.1133 162.41 95.26C162.597 95.3933 162.824 95.52 163.09 95.64C163.357 95.76 163.677 95.8867 164.05 96.02C164.544 96.2067 164.984 96.3933 165.37 96.58C165.757 96.7533 166.084 96.96 166.35 97.2C166.63 97.44 166.844 97.7333 166.99 98.08C167.137 98.4133 167.21 98.8267 167.21 99.32C167.21 100.28 166.85 101.007 166.13 101.5C165.424 101.993 164.41 102.24 163.09 102.24C162.17 102.24 161.45 102.16 160.93 102C160.41 101.853 160.057 101.74 159.87 101.66L160.21 100.06C160.424 100.14 160.764 100.26 161.23 100.42C161.697 100.58 162.317 100.66 163.09 100.66ZM171.766 100.66C172.526 100.66 173.086 100.56 173.446 100.36C173.819 100.16 174.006 99.84 174.006 99.4C174.006 98.9467 173.826 98.5867 173.466 98.32C173.106 98.0533 172.513 97.7533 171.686 97.42C171.286 97.26 170.899 97.1 170.526 96.94C170.166 96.7667 169.853 96.5667 169.586 96.34C169.319 96.1133 169.106 95.84 168.946 95.52C168.786 95.2 168.706 94.8067 168.706 94.34C168.706 93.42 169.046 92.6933 169.726 92.16C170.406 91.6133 171.333 91.34 172.506 91.34C172.799 91.34 173.093 91.36 173.386 91.4C173.679 91.4267 173.953 91.4667 174.206 91.52C174.459 91.56 174.679 91.6067 174.866 91.66C175.066 91.7133 175.219 91.76 175.326 91.8L174.986 93.4C174.786 93.2933 174.473 93.1867 174.046 93.08C173.619 92.96 173.106 92.9 172.506 92.9C171.986 92.9 171.533 93.0067 171.146 93.22C170.759 93.42 170.566 93.74 170.566 94.18C170.566 94.4067 170.606 94.6067 170.686 94.78C170.779 94.9533 170.913 95.1133 171.086 95.26C171.273 95.3933 171.499 95.52 171.766 95.64C172.033 95.76 172.353 95.8867 172.726 96.02C173.219 96.2067 173.659 96.3933 174.046 96.58C174.433 96.7533 174.759 96.96 175.026 97.2C175.306 97.44 175.519 97.7333 175.666 98.08C175.813 98.4133 175.886 98.8267 175.886 99.32C175.886 100.28 175.526 101.007 174.806 101.5C174.099 101.993 173.086 102.24 171.766 102.24C170.846 102.24 170.126 102.16 169.606 102C169.086 101.853 168.733 101.74 168.546 101.66L168.886 100.06C169.099 100.14 169.439 100.26 169.906 100.42C170.373 100.58 170.993 100.66 171.766 100.66ZM179.902 89.38C179.022 89.38 178.162 89.6067 177.322 90.06L176.802 88.62C177.255 88.38 177.762 88.1867 178.322 88.04C178.895 87.8933 179.502 87.82 180.142 87.82C180.902 87.82 181.522 87.9267 182.002 88.14C182.495 88.34 182.889 88.6 183.182 88.92C183.475 89.24 183.675 89.6 183.782 90C183.902 90.3867 183.962 90.76 183.962 91.12C183.962 91.5733 183.875 91.98 183.702 92.34C183.529 92.6867 183.315 93.0133 183.062 93.32C182.809 93.6267 182.529 93.92 182.222 94.2C181.915 94.48 181.635 94.7733 181.382 95.08C181.129 95.3733 180.915 95.7 180.742 96.06C180.569 96.4067 180.482 96.8 180.482 97.24C180.482 97.3067 180.482 97.38 180.482 97.46C180.482 97.54 180.489 97.6133 180.502 97.68H178.942C178.889 97.4133 178.862 97.1333 178.862 96.84C178.862 96.4133 178.935 96.0267 179.082 95.68C179.242 95.3333 179.442 95.0133 179.682 94.72C179.922 94.4133 180.175 94.1333 180.442 93.88C180.709 93.6133 180.962 93.3467 181.202 93.08C181.442 92.8133 181.635 92.5333 181.782 92.24C181.942 91.9467 182.022 91.6267 182.022 91.28C182.022 90.72 181.842 90.2667 181.482 89.92C181.122 89.56 180.595 89.38 179.902 89.38ZM181.162 100.92C181.162 101.28 181.042 101.593 180.802 101.86C180.562 102.127 180.235 102.26 179.822 102.26C179.409 102.26 179.082 102.127 178.842 101.86C178.602 101.593 178.482 101.28 178.482 100.92C178.482 100.56 178.602 100.247 178.842 99.98C179.082 99.7133 179.409 99.58 179.822 99.58C180.235 99.58 180.562 99.7133 180.802 99.98C181.042 100.247 181.162 100.56 181.162 100.92Z" fill="#E4E4E7"/>
<rect x="16" y="126" width="206" height="47" rx="23.5" fill="#1E2939"/>
<path d="M50.98 157C50.7533 156.4 50.54 155.813 50.34 155.24C50.14 154.653 49.9333 154.06 49.72 153.46H43.44L42.18 157H40.16C40.6933 155.533 41.1933 154.18 41.66 152.94C42.1267 151.687 42.58 150.5 43.02 149.38C43.4733 148.26 43.92 147.193 44.36 146.18C44.8 145.153 45.26 144.14 45.74 143.14H47.52C48 144.14 48.46 145.153 48.9 146.18C49.34 147.193 49.78 148.26 50.22 149.38C50.6733 150.5 51.1333 151.687 51.6 152.94C52.0667 154.18 52.5667 155.533 53.1 157H50.98ZM49.16 151.86C48.7333 150.7 48.3067 149.58 47.88 148.5C47.4667 147.407 47.0333 146.36 46.58 145.36C46.1133 146.36 45.6667 147.407 45.24 148.5C44.8267 149.58 44.4133 150.7 44 151.86H49.16ZM58.4517 146.38C58.6117 146.38 58.7917 146.393 58.9917 146.42C59.2051 146.433 59.4117 146.46 59.6117 146.5C59.8117 146.527 59.9917 146.56 60.1517 146.6C60.3251 146.627 60.4517 146.653 60.5317 146.68L60.2117 148.3C60.0651 148.247 59.8184 148.187 59.4717 148.12C59.1384 148.04 58.7051 148 58.1717 148C57.8251 148 57.4784 148.04 57.1317 148.12C56.7984 148.187 56.5784 148.233 56.4717 148.26V157H54.6117V147.04C55.0517 146.88 55.5984 146.733 56.2517 146.6C56.9051 146.453 57.6384 146.38 58.4517 146.38ZM61.4966 151.82C61.4966 150.9 61.6299 150.1 61.8966 149.42C62.1632 148.727 62.5166 148.153 62.9566 147.7C63.3966 147.247 63.9032 146.907 64.4766 146.68C65.0499 146.453 65.6366 146.34 66.2366 146.34C67.6366 146.34 68.7099 146.78 69.4566 147.66C70.2032 148.527 70.5766 149.853 70.5766 151.64C70.5766 151.72 70.5766 151.827 70.5766 151.96C70.5766 152.08 70.5699 152.193 70.5566 152.3H63.4366C63.5166 153.38 63.8299 154.2 64.3766 154.76C64.9232 155.32 65.7766 155.6 66.9366 155.6C67.5899 155.6 68.1366 155.547 68.5766 155.44C69.0299 155.32 69.3699 155.207 69.5966 155.1L69.8566 156.66C69.6299 156.78 69.2299 156.907 68.6566 157.04C68.0966 157.173 67.4566 157.24 66.7366 157.24C65.8299 157.24 65.0432 157.107 64.3766 156.84C63.7232 156.56 63.1832 156.18 62.7566 155.7C62.3299 155.22 62.0099 154.653 61.7966 154C61.5966 153.333 61.4966 152.607 61.4966 151.82ZM68.6366 150.8C68.6499 149.96 68.4366 149.273 67.9966 148.74C67.5699 148.193 66.9766 147.92 66.2166 147.92C65.7899 147.92 65.4099 148.007 65.0766 148.18C64.7566 148.34 64.4832 148.553 64.2566 148.82C64.0299 149.087 63.8499 149.393 63.7166 149.74C63.5966 150.087 63.5166 150.44 63.4766 150.8H68.6366ZM79.1173 146.6H83.0573V148.16H79.1173V152.96C79.1173 153.48 79.1573 153.913 79.2373 154.26C79.3173 154.593 79.4373 154.86 79.5973 155.06C79.7573 155.247 79.9573 155.38 80.1973 155.46C80.4373 155.54 80.7173 155.58 81.0373 155.58C81.5973 155.58 82.044 155.52 82.3773 155.4C82.724 155.267 82.964 155.173 83.0973 155.12L83.4573 156.66C83.2707 156.753 82.944 156.867 82.4773 157C82.0107 157.147 81.4773 157.22 80.8773 157.22C80.1707 157.22 79.584 157.133 79.1173 156.96C78.664 156.773 78.2973 156.5 78.0173 156.14C77.7373 155.78 77.5373 155.34 77.4173 154.82C77.3107 154.287 77.2573 153.673 77.2573 152.98V143.7L79.1173 143.38V146.6ZM85.1742 157V141.8L87.0342 141.48V146.8C87.3809 146.667 87.7476 146.567 88.1342 146.5C88.5342 146.42 88.9276 146.38 89.3142 146.38C90.1409 146.38 90.8276 146.5 91.3742 146.74C91.9209 146.967 92.3542 147.293 92.6742 147.72C93.0076 148.133 93.2409 148.633 93.3742 149.22C93.5076 149.807 93.5742 150.453 93.5742 151.16V157H91.7142V151.56C91.7142 150.92 91.6676 150.373 91.5742 149.92C91.4942 149.467 91.3542 149.1 91.1542 148.82C90.9542 148.54 90.6876 148.34 90.3542 148.22C90.0209 148.087 89.6076 148.02 89.1142 148.02C88.9142 148.02 88.7076 148.033 88.4942 148.06C88.2809 148.087 88.0742 148.12 87.8742 148.16C87.6876 148.187 87.5142 148.22 87.3542 148.26C87.2076 148.3 87.1009 148.333 87.0342 148.36V157H85.1742ZM95.77 151.82C95.77 150.9 95.9033 150.1 96.17 149.42C96.4367 148.727 96.79 148.153 97.23 147.7C97.67 147.247 98.1767 146.907 98.75 146.68C99.3233 146.453 99.91 146.34 100.51 146.34C101.91 146.34 102.983 146.78 103.73 147.66C104.477 148.527 104.85 149.853 104.85 151.64C104.85 151.72 104.85 151.827 104.85 151.96C104.85 152.08 104.843 152.193 104.83 152.3H97.71C97.79 153.38 98.1033 154.2 98.65 154.76C99.1967 155.32 100.05 155.6 101.21 155.6C101.863 155.6 102.41 155.547 102.85 155.44C103.303 155.32 103.643 155.207 103.87 155.1L104.13 156.66C103.903 156.78 103.503 156.907 102.93 157.04C102.37 157.173 101.73 157.24 101.01 157.24C100.103 157.24 99.3167 157.107 98.65 156.84C97.9967 156.56 97.4567 156.18 97.03 155.7C96.6033 155.22 96.2833 154.653 96.07 154C95.87 153.333 95.77 152.607 95.77 151.82ZM102.91 150.8C102.923 149.96 102.71 149.273 102.27 148.74C101.843 148.193 101.25 147.92 100.49 147.92C100.063 147.92 99.6833 148.007 99.35 148.18C99.03 148.34 98.7567 148.553 98.53 148.82C98.3033 149.087 98.1233 149.393 97.99 149.74C97.87 150.087 97.79 150.44 97.75 150.8H102.91ZM106.052 158.94C106.199 159.007 106.385 159.067 106.612 159.12C106.852 159.187 107.085 159.22 107.312 159.22C108.045 159.22 108.619 159.053 109.032 158.72C109.445 158.4 109.819 157.873 110.152 157.14C109.312 155.54 108.525 153.847 107.792 152.06C107.072 150.26 106.472 148.44 105.992 146.6H107.992C108.139 147.2 108.312 147.847 108.512 148.54C108.725 149.233 108.959 149.947 109.212 150.68C109.465 151.413 109.739 152.147 110.032 152.88C110.325 153.613 110.632 154.32 110.952 155C111.459 153.6 111.899 152.213 112.272 150.84C112.645 149.467 112.999 148.053 113.332 146.6H115.252C114.772 148.56 114.239 150.447 113.652 152.26C113.065 154.06 112.432 155.747 111.752 157.32C111.485 157.92 111.205 158.433 110.912 158.86C110.632 159.3 110.319 159.66 109.972 159.94C109.625 160.22 109.232 160.427 108.792 160.56C108.365 160.693 107.879 160.76 107.332 160.76C107.185 160.76 107.032 160.747 106.872 160.72C106.712 160.707 106.552 160.68 106.392 160.64C106.245 160.613 106.105 160.58 105.972 160.54C105.852 160.5 105.765 160.467 105.712 160.44L106.052 158.94ZM123.762 155.66C124.522 155.66 125.082 155.56 125.442 155.36C125.816 155.16 126.002 154.84 126.002 154.4C126.002 153.947 125.822 153.587 125.462 153.32C125.102 153.053 124.509 152.753 123.682 152.42C123.282 152.26 122.896 152.1 122.522 151.94C122.162 151.767 121.849 151.567 121.582 151.34C121.316 151.113 121.102 150.84 120.942 150.52C120.782 150.2 120.702 149.807 120.702 149.34C120.702 148.42 121.042 147.693 121.722 147.16C122.402 146.613 123.329 146.34 124.502 146.34C124.796 146.34 125.089 146.36 125.382 146.4C125.676 146.427 125.949 146.467 126.202 146.52C126.456 146.56 126.676 146.607 126.862 146.66C127.062 146.713 127.216 146.76 127.322 146.8L126.982 148.4C126.782 148.293 126.469 148.187 126.042 148.08C125.616 147.96 125.102 147.9 124.502 147.9C123.982 147.9 123.529 148.007 123.142 148.22C122.756 148.42 122.562 148.74 122.562 149.18C122.562 149.407 122.602 149.607 122.682 149.78C122.776 149.953 122.909 150.113 123.082 150.26C123.269 150.393 123.496 150.52 123.762 150.64C124.029 150.76 124.349 150.887 124.722 151.02C125.216 151.207 125.656 151.393 126.042 151.58C126.429 151.753 126.756 151.96 127.022 152.2C127.302 152.44 127.516 152.733 127.662 153.08C127.809 153.413 127.882 153.827 127.882 154.32C127.882 155.28 127.522 156.007 126.802 156.5C126.096 156.993 125.082 157.24 123.762 157.24C122.842 157.24 122.122 157.16 121.602 157C121.082 156.853 120.729 156.74 120.542 156.66L120.882 155.06C121.096 155.14 121.436 155.26 121.902 155.42C122.369 155.58 122.989 155.66 123.762 155.66ZM129.438 151.82C129.438 150.9 129.571 150.1 129.838 149.42C130.105 148.727 130.458 148.153 130.898 147.7C131.338 147.247 131.845 146.907 132.418 146.68C132.991 146.453 133.578 146.34 134.178 146.34C135.578 146.34 136.651 146.78 137.398 147.66C138.145 148.527 138.518 149.853 138.518 151.64C138.518 151.72 138.518 151.827 138.518 151.96C138.518 152.08 138.511 152.193 138.498 152.3H131.378C131.458 153.38 131.771 154.2 132.318 154.76C132.865 155.32 133.718 155.6 134.878 155.6C135.531 155.6 136.078 155.547 136.518 155.44C136.971 155.32 137.311 155.207 137.538 155.1L137.798 156.66C137.571 156.78 137.171 156.907 136.598 157.04C136.038 157.173 135.398 157.24 134.678 157.24C133.771 157.24 132.985 157.107 132.318 156.84C131.665 156.56 131.125 156.18 130.698 155.7C130.271 155.22 129.951 154.653 129.738 154C129.538 153.333 129.438 152.607 129.438 151.82ZM136.578 150.8C136.591 149.96 136.378 149.273 135.938 148.74C135.511 148.193 134.918 147.92 134.158 147.92C133.731 147.92 133.351 148.007 133.018 148.18C132.698 148.34 132.425 148.553 132.198 148.82C131.971 149.087 131.791 149.393 131.658 149.74C131.538 150.087 131.458 150.44 131.418 150.8H136.578ZM145.46 157.24C144.62 157.24 143.88 157.107 143.24 156.84C142.613 156.573 142.08 156.2 141.64 155.72C141.213 155.24 140.893 154.673 140.68 154.02C140.467 153.353 140.36 152.62 140.36 151.82C140.36 151.02 140.473 150.287 140.7 149.62C140.94 148.953 141.273 148.38 141.7 147.9C142.127 147.407 142.647 147.027 143.26 146.76C143.887 146.48 144.58 146.34 145.34 146.34C145.807 146.34 146.273 146.38 146.74 146.46C147.207 146.54 147.653 146.667 148.08 146.84L147.66 148.42C147.38 148.287 147.053 148.18 146.68 148.1C146.32 148.02 145.933 147.98 145.52 147.98C144.48 147.98 143.68 148.307 143.12 148.96C142.573 149.613 142.3 150.567 142.3 151.82C142.3 152.38 142.36 152.893 142.48 153.36C142.613 153.827 142.813 154.227 143.08 154.56C143.36 154.893 143.713 155.153 144.14 155.34C144.567 155.513 145.087 155.6 145.7 155.6C146.193 155.6 146.64 155.553 147.04 155.46C147.44 155.367 147.753 155.267 147.98 155.16L148.24 156.72C148.133 156.787 147.98 156.853 147.78 156.92C147.58 156.973 147.353 157.02 147.1 157.06C146.847 157.113 146.573 157.153 146.28 157.18C146 157.22 145.727 157.24 145.46 157.24ZM158.267 156.7C157.84 156.807 157.273 156.92 156.567 157.04C155.873 157.16 155.067 157.22 154.147 157.22C153.347 157.22 152.673 157.107 152.127 156.88C151.58 156.64 151.14 156.307 150.807 155.88C150.473 155.453 150.233 154.953 150.087 154.38C149.94 153.793 149.867 153.147 149.867 152.44V146.6H151.727V152.04C151.727 153.307 151.927 154.213 152.327 154.76C152.727 155.307 153.4 155.58 154.347 155.58C154.547 155.58 154.753 155.573 154.967 155.56C155.18 155.547 155.38 155.533 155.567 155.52C155.753 155.493 155.92 155.473 156.067 155.46C156.227 155.433 156.34 155.407 156.407 155.38V146.6H158.267V156.7ZM165.061 146.38C165.221 146.38 165.401 146.393 165.601 146.42C165.814 146.433 166.021 146.46 166.221 146.5C166.421 146.527 166.601 146.56 166.761 146.6C166.934 146.627 167.061 146.653 167.141 146.68L166.821 148.3C166.674 148.247 166.428 148.187 166.081 148.12C165.748 148.04 165.314 148 164.781 148C164.434 148 164.088 148.04 163.741 148.12C163.408 148.187 163.188 148.233 163.081 148.26V157H161.221V147.04C161.661 146.88 162.208 146.733 162.861 146.6C163.514 146.453 164.248 146.38 165.061 146.38ZM168.106 151.82C168.106 150.9 168.239 150.1 168.506 149.42C168.773 148.727 169.126 148.153 169.566 147.7C170.006 147.247 170.513 146.907 171.086 146.68C171.659 146.453 172.246 146.34 172.846 146.34C174.246 146.34 175.319 146.78 176.066 147.66C176.813 148.527 177.186 149.853 177.186 151.64C177.186 151.72 177.186 151.827 177.186 151.96C177.186 152.08 177.179 152.193 177.166 152.3H170.046C170.126 153.38 170.439 154.2 170.986 154.76C171.533 155.32 172.386 155.6 173.546 155.6C174.199 155.6 174.746 155.547 175.186 155.44C175.639 155.32 175.979 155.207 176.206 155.1L176.466 156.66C176.239 156.78 175.839 156.907 175.266 157.04C174.706 157.173 174.066 157.24 173.346 157.24C172.439 157.24 171.653 157.107 170.986 156.84C170.333 156.56 169.793 156.18 169.366 155.7C168.939 155.22 168.619 154.653 168.406 154C168.206 153.333 168.106 152.607 168.106 151.82ZM175.246 150.8C175.259 149.96 175.046 149.273 174.606 148.74C174.179 148.193 173.586 147.92 172.826 147.92C172.399 147.92 172.019 148.007 171.686 148.18C171.366 148.34 171.093 148.553 170.866 148.82C170.639 149.087 170.459 149.393 170.326 149.74C170.206 150.087 170.126 150.44 170.086 150.8H175.246ZM186.328 148.8C186.101 148.613 185.774 148.433 185.348 148.26C184.921 148.087 184.454 148 183.948 148C183.414 148 182.954 148.1 182.568 148.3C182.194 148.487 181.888 148.753 181.648 149.1C181.408 149.433 181.234 149.833 181.128 150.3C181.021 150.767 180.968 151.267 180.968 151.8C180.968 153.013 181.268 153.953 181.868 154.62C182.468 155.273 183.268 155.6 184.268 155.6C184.774 155.6 185.194 155.58 185.528 155.54C185.874 155.487 186.141 155.433 186.328 155.38V148.8ZM186.328 141.8L188.188 141.48V156.7C187.761 156.82 187.214 156.94 186.548 157.06C185.881 157.18 185.114 157.24 184.248 157.24C183.448 157.24 182.728 157.113 182.088 156.86C181.448 156.607 180.901 156.247 180.448 155.78C179.994 155.313 179.641 154.747 179.388 154.08C179.148 153.4 179.028 152.64 179.028 151.8C179.028 151 179.128 150.267 179.328 149.6C179.541 148.933 179.848 148.36 180.248 147.88C180.648 147.4 181.134 147.027 181.708 146.76C182.294 146.493 182.961 146.36 183.708 146.36C184.308 146.36 184.834 146.44 185.288 146.6C185.754 146.76 186.101 146.913 186.328 147.06V141.8ZM193.015 144.38C192.135 144.38 191.275 144.607 190.435 145.06L189.915 143.62C190.368 143.38 190.875 143.187 191.435 143.04C192.008 142.893 192.615 142.82 193.255 142.82C194.015 142.82 194.635 142.927 195.115 143.14C195.608 143.34 196.002 143.6 196.295 143.92C196.588 144.24 196.788 144.6 196.895 145C197.015 145.387 197.075 145.76 197.075 146.12C197.075 146.573 196.988 146.98 196.815 147.34C196.642 147.687 196.428 148.013 196.175 148.32C195.922 148.627 195.642 148.92 195.335 149.2C195.028 149.48 194.748 149.773 194.495 150.08C194.242 150.373 194.028 150.7 193.855 151.06C193.682 151.407 193.595 151.8 193.595 152.24C193.595 152.307 193.595 152.38 193.595 152.46C193.595 152.54 193.602 152.613 193.615 152.68H192.055C192.002 152.413 191.975 152.133 191.975 151.84C191.975 151.413 192.048 151.027 192.195 150.68C192.355 150.333 192.555 150.013 192.795 149.72C193.035 149.413 193.288 149.133 193.555 148.88C193.822 148.613 194.075 148.347 194.315 148.08C194.555 147.813 194.748 147.533 194.895 147.24C195.055 146.947 195.135 146.627 195.135 146.28C195.135 145.72 194.955 145.267 194.595 144.92C194.235 144.56 193.708 144.38 193.015 144.38ZM194.275 155.92C194.275 156.28 194.155 156.593 193.915 156.86C193.675 157.127 193.348 157.26 192.935 157.26C192.522 157.26 192.195 157.127 191.955 156.86C191.715 156.593 191.595 156.28 191.595 155.92C191.595 155.56 191.715 155.247 191.955 154.98C192.195 154.713 192.522 154.58 192.935 154.58C193.348 154.58 193.675 154.713 193.915 154.98C194.155 155.247 194.275 155.56 194.275 155.92Z" fill="#E4E4E7"/>
<rect x="237" y="221" width="66" height="52" rx="26" fill="#D1D5DC"/>
<path d="M265.56 254.704C265.56 255.136 265.416 255.512 265.128 255.832C264.84 256.152 264.448 256.312 263.952 256.312C263.456 256.312 263.064 256.152 262.776 255.832C262.488 255.512 262.344 255.136 262.344 254.704C262.344 254.272 262.488 253.896 262.776 253.576C263.064 253.256 263.456 253.096 263.952 253.096C264.448 253.096 264.84 253.256 265.128 253.576C265.416 253.896 265.56 254.272 265.56 254.704ZM271.216 254.704C271.216 255.136 271.072 255.512 270.784 255.832C270.496 256.152 270.104 256.312 269.608 256.312C269.112 256.312 268.72 256.152 268.432 255.832C268.144 255.512 268 255.136 268 254.704C268 254.272 268.144 253.896 268.432 253.576C268.72 253.256 269.112 253.096 269.608 253.096C270.104 253.096 270.496 253.256 270.784 253.576C271.072 253.896 271.216 254.272 271.216 254.704ZM276.873 254.704C276.873 255.136 276.729 255.512 276.441 255.832C276.153 256.152 275.761 256.312 275.265 256.312C274.769 256.312 274.377 256.152 274.089 255.832C273.801 255.512 273.657 255.136 273.657 254.704C273.657 254.272 273.801 253.896 274.089 253.576C274.377 253.256 274.769 253.096 275.265 253.096C275.761 253.096 276.153 253.256 276.441 253.576C276.729 253.896 276.873 254.272 276.873 254.704Z" fill="#404040"/>
</svg>
