<svg width="756" height="203" viewBox="0 0 756 203" fill="none" xmlns="http://www.w3.org/2000/svg">
<path d="M256.4 137.68V60.4H269.14V47.66H308.62V60.4H321.5V99.6H308.62V112.34H270.54V137.68H256.4ZM270.54 98.2H307.22V61.8H270.54V98.2ZM330.097 137.68V47.66H344.237V137.68H330.097ZM365.538 137.68V125.08H352.798V73H366.938V123.68H403.618V73H417.898V125.08H405.018V137.68H365.538ZM429.229 137.68V73H468.849V85.74H480.049V73H507.069V85.74H519.669V137.68H505.669V87H481.449V137.68H467.449V87H443.369V137.68H429.229ZM540.959 137.68V125.08H528.219V47.66H542.359V73H580.439V85.74H593.319V125.08H580.439V137.68H540.959ZM542.359 123.68H579.039V87H542.359V123.68ZM614.656 137.68V125.08H601.916V85.74H614.656V73H654.136V85.74H667.016V99.6H652.736V87H616.056V98.2H641.536V112.34H616.056V123.68H652.736V110.8H667.016V124.94H654.136V137.68H614.656ZM678.347 137.68V85.74H691.087V73H730.567V85.74H743.447V99.6H729.167V87H692.487V137.68H678.347Z" fill="#F5F5F5"/>
<g clip-path="url(#clip0_1489_3673)">
<line y1="45.1797" x2="202.723" y2="45.1797" stroke="#00D400" stroke-width="11"/>
<line y1="55.3164" x2="202.723" y2="55.3164" stroke="#00D400" stroke-width="11"/>
<line y1="35.043" x2="202.723" y2="35.043" stroke="#00DF00" stroke-width="11"/>
<line y1="24.9102" x2="202.723" y2="24.9102" stroke="#00DF00" stroke-width="11"/>
<line y1="14.7734" x2="202.723" y2="14.7734" stroke="#00EA00" stroke-width="11"/>
<line y1="4.63672" x2="202.723" y2="4.63672" stroke="#00EA00" stroke-width="11"/>
<line y1="65.4531" x2="202.723" y2="65.4531" stroke="#00C900" stroke-width="11"/>
<line y1="75.5898" x2="202.723" y2="75.5898" stroke="#00C900" stroke-width="11"/>
<line y1="85.7266" x2="202.723" y2="85.7266" stroke="#00BE00" stroke-width="11"/>
<line y1="95.8633" x2="202.723" y2="95.8633" stroke="#00BE00" stroke-width="11"/>
<line y1="105.996" x2="202.723" y2="105.996" stroke="#00B300" stroke-width="11"/>
<line y1="116.133" x2="202.723" y2="116.133" stroke="#00B300" stroke-width="11"/>
<line y1="126.27" x2="202.723" y2="126.27" stroke="#00A800" stroke-width="11"/>
<line y1="136.406" x2="202.723" y2="136.406" stroke="#00A800" stroke-width="11"/>
<line y1="146.543" x2="202.723" y2="146.543" stroke="#009D00" stroke-width="11"/>
<line y1="156.68" x2="202.723" y2="156.68" stroke="#009D00" stroke-width="11"/>
<line y1="166.816" x2="202.723" y2="166.816" stroke="#009200" stroke-width="11"/>
<line y1="176.949" x2="202.723" y2="176.949" stroke="#009200" stroke-width="11"/>
<line y1="187.086" x2="202.723" y2="187.086" stroke="#008700" stroke-width="11"/>
<line y1="197.227" x2="202.723" y2="197.227" stroke="#008700" stroke-width="11"/>
<path d="M157 101H133.215V92.5703H93.5723V132.213H101V156H46V132.213H53.9287V68.7842H61.8564V60.8584H69.7852V52.9297H77.7139V52.9287H133.214V45H157V101ZM77.7139 45.001H53.9287V45H77.7139V45.001Z" fill="#F5F5F5"/>
</g>
<defs>
<clipPath id="clip0_1489_3673">
<rect width="202.723" height="202.723" rx="101.362" fill="white"/>
</clipPath>
</defs>
</svg>
