<svg width="753" height="203" viewBox="0 0 753 203" fill="none" xmlns="http://www.w3.org/2000/svg">
<path d="M253.4 148.68V71.4H266.14V58.66H305.62V71.4H318.5V110.6H305.62V123.34H267.54V148.68H253.4ZM267.54 109.2H304.22V72.8H267.54V109.2ZM327.097 148.68V58.66H341.237V148.68H327.097ZM362.538 148.68V136.08H349.798V84H363.938V134.68H400.618V84H414.898V136.08H402.018V148.68H362.538ZM426.229 148.68V84H465.849V96.74H477.049V84H504.069V96.74H516.669V148.68H502.669V98H478.449V148.68H464.449V98H440.369V148.68H426.229ZM537.959 148.68V136.08H525.219V58.66H539.359V84H577.439V96.74H590.319V136.08H577.439V148.68H537.959ZM539.359 134.68H576.039V98H539.359V134.68ZM611.656 148.68V136.08H598.916V96.74H611.656V84H651.136V96.74H664.016V110.6H649.736V98H613.056V109.2H638.536V123.34H613.056V134.68H649.736V121.8H664.016V135.94H651.136V148.68H611.656ZM675.347 148.68V96.74H688.087V84H727.567V96.74H740.447V110.6H726.167V98H689.487V148.68H675.347Z" fill="#F5F5F5"/>
<g clip-path="url(#clip0_1489_3673)">
<line y1="45.1797" x2="202.723" y2="45.1797" stroke="#00D400" stroke-width="11"/>
<line y1="55.3164" x2="202.723" y2="55.3164" stroke="#00D400" stroke-width="11"/>
<line y1="35.043" x2="202.723" y2="35.043" stroke="#00DF00" stroke-width="11"/>
<line y1="24.9102" x2="202.723" y2="24.9102" stroke="#00DF00" stroke-width="11"/>
<line y1="14.7734" x2="202.723" y2="14.7734" stroke="#00EA00" stroke-width="11"/>
<line y1="4.63672" x2="202.723" y2="4.63672" stroke="#00EA00" stroke-width="11"/>
<line y1="65.4531" x2="202.723" y2="65.4531" stroke="#00C900" stroke-width="11"/>
<line y1="75.5898" x2="202.723" y2="75.5898" stroke="#00C900" stroke-width="11"/>
<line y1="85.7266" x2="202.723" y2="85.7266" stroke="#00BE00" stroke-width="11"/>
<line y1="95.8633" x2="202.723" y2="95.8633" stroke="#00BE00" stroke-width="11"/>
<line y1="105.996" x2="202.723" y2="105.996" stroke="#00B300" stroke-width="11"/>
<line y1="116.133" x2="202.723" y2="116.133" stroke="#00B300" stroke-width="11"/>
<line y1="126.27" x2="202.723" y2="126.27" stroke="#00A800" stroke-width="11"/>
<line y1="136.406" x2="202.723" y2="136.406" stroke="#00A800" stroke-width="11"/>
<line y1="146.543" x2="202.723" y2="146.543" stroke="#009D00" stroke-width="11"/>
<line y1="156.68" x2="202.723" y2="156.68" stroke="#009D00" stroke-width="11"/>
<line y1="166.816" x2="202.723" y2="166.816" stroke="#009200" stroke-width="11"/>
<line y1="176.949" x2="202.723" y2="176.949" stroke="#009200" stroke-width="11"/>
<line y1="187.086" x2="202.723" y2="187.086" stroke="#008700" stroke-width="11"/>
<line y1="197.227" x2="202.723" y2="197.227" stroke="#008700" stroke-width="11"/>
<line x1="155" y1="50.8571" x2="131.857" y2="50.8571" stroke="#F5F5F5" stroke-width="7.71429"/>
<line x1="151.144" y1="54.7148" x2="151.144" y2="62.4291" stroke="#F5F5F5" stroke-width="7.71429"/>
<line x1="151.144" y1="62.4297" x2="151.144" y2="70.144" stroke="#F5F5F5" stroke-width="7.71429"/>
<line x1="151.144" y1="70.1445" x2="151.144" y2="77.8588" stroke="#F5F5F5" stroke-width="7.71429"/>
<line x1="155" y1="97.1423" x2="131.857" y2="97.1423" stroke="#F5F5F5" stroke-width="7.71429"/>
<line x1="85.5713" y1="89.428" x2="139.571" y2="89.428" stroke="#F5F5F5" stroke-width="7.71429"/>
<line x1="139.571" y1="58.572" x2="70.1427" y2="58.572" stroke="#F5F5F5" stroke-width="7.71429"/>
<line x1="54.7139" y1="73.9983" x2="70.1424" y2="73.9983" stroke="#F5F5F5" stroke-width="7.71429"/>
<line x1="62.4287" y1="66.2874" x2="77.8573" y2="66.2874" stroke="#F5F5F5" stroke-width="7.71429"/>
<line x1="151.144" y1="77.8555" x2="151.144" y2="85.5698" stroke="#F5F5F5" stroke-width="7.71429"/>
<line x1="151.144" y1="85.5703" x2="151.144" y2="93.2846" stroke="#F5F5F5" stroke-width="7.71429"/>
<line x1="58.571" y1="77.8555" x2="58.571" y2="85.5698" stroke="#F5F5F5" stroke-width="7.71429"/>
<line x1="58.571" y1="85.5703" x2="58.571" y2="93.2846" stroke="#F5F5F5" stroke-width="7.71429"/>
<line x1="58.571" y1="93.2852" x2="58.571" y2="100.999" stroke="#F5F5F5" stroke-width="7.71429"/>
<line x1="89.4284" y1="93.2852" x2="89.4284" y2="100.999" stroke="#F5F5F5" stroke-width="7.71429"/>
<line x1="89.4284" y1="101" x2="89.4284" y2="108.714" stroke="#F5F5F5" stroke-width="7.71429"/>
<line x1="58.571" y1="101" x2="58.571" y2="108.714" stroke="#F5F5F5" stroke-width="7.71429"/>
<line x1="89.4284" y1="108.715" x2="89.4284" y2="116.429" stroke="#F5F5F5" stroke-width="7.71429"/>
<line x1="89.4284" y1="116.43" x2="89.4284" y2="124.144" stroke="#F5F5F5" stroke-width="7.71429"/>
<line x1="89.4284" y1="124.145" x2="89.4284" y2="131.859" stroke="#F5F5F5" stroke-width="7.71429"/>
<line x1="85.5713" y1="135.713" x2="101" y2="135.713" stroke="#F5F5F5" stroke-width="7.71429"/>
<line x1="62.4287" y1="135.713" x2="47.0001" y2="135.713" stroke="#F5F5F5" stroke-width="7.71429"/>
<line x1="58.571" y1="124.145" x2="58.571" y2="131.859" stroke="#F5F5F5" stroke-width="7.71429"/>
<line x1="58.571" y1="116.43" x2="58.571" y2="124.144" stroke="#F5F5F5" stroke-width="7.71429"/>
<line x1="58.571" y1="108.715" x2="58.571" y2="116.429" stroke="#F5F5F5" stroke-width="7.71429"/>
<line x1="50.8571" y1="139.57" x2="50.8571" y2="147.285" stroke="#F5F5F5" stroke-width="7.71429"/>
<line x1="97.1443" y1="139.57" x2="97.1442" y2="147.285" stroke="#F5F5F5" stroke-width="7.71429"/>
<line x1="47" y1="151.143" x2="101" y2="151.143" stroke="#F5F5F5" stroke-width="7.71429"/>
<line x1="143.428" y1="54.7148" x2="143.428" y2="93.2863" stroke="#F5F5F5" stroke-width="7.71429"/>
<line x1="73.9997" y1="70.1445" x2="73.9997" y2="147.287" stroke="#F5F5F5" stroke-width="7.71429"/>
<line x1="81.7146" y1="62.4297" x2="81.7146" y2="147.287" stroke="#F5F5F5" stroke-width="7.71429"/>
<line x1="85.5713" y1="143.428" x2="93.2856" y2="143.428" stroke="#F5F5F5" stroke-width="7.71429"/>
<line x1="54.7139" y1="143.428" x2="62.4282" y2="143.428" stroke="#F5F5F5" stroke-width="7.71429"/>
<line x1="66.2854" y1="147.285" x2="66.2854" y2="77.8566" stroke="#F5F5F5" stroke-width="7.71429"/>
<line x1="85.5713" y1="66.2874" x2="139.571" y2="66.2874" stroke="#F5F5F5" stroke-width="7.71429"/>
<line x1="85.5713" y1="73.9983" x2="139.571" y2="73.9983" stroke="#F5F5F5" stroke-width="7.71429"/>
<line x1="85.5713" y1="81.7132" x2="139.571" y2="81.7132" stroke="#F5F5F5" stroke-width="7.71429"/>
</g>
<defs>
<clipPath id="clip0_1489_3673">
<rect width="202.723" height="202.723" rx="101.362" fill="white"/>
</clipPath>
</defs>
</svg>
