<svg width="1104" height="301" viewBox="0 0 1104 301" fill="none" xmlns="http://www.w3.org/2000/svg">
<path d="M388 221.6V112.2H406.2V94H462.6V112.2H481V168.4H462.6V186.4H408.2V221.6H388ZM408.2 166.4H460.6V114H408.2V166.4ZM497.188 186.4V57.8H517.388V186.4H497.188ZM547.817 186.4V168.4H529.617V94H549.817V166.4H602.217V94H622.617V168.4H604.217V186.4H547.817ZM638.805 186.4V94H695.405V112.2H711.405V94H750.005V112.2H768.005V186.4H748.005V114H713.405V186.4H693.405V114H659.005V186.4H638.805ZM798.419 186.4V168.4H780.219V57.8H800.419V94H854.819V112.2H873.219V168.4H854.819V186.4H798.419ZM800.419 166.4H852.819V114H800.419V166.4ZM903.7 186.4V168.4H885.5V112.2H903.7V94H960.1V112.2H978.5V132H958.1V114H905.7V130H942.1V150.2H905.7V166.4H958.1V148H978.5V168.2H960.1V186.4H903.7ZM994.688 186.4V112.2H1012.89V94H1069.29V112.2H1087.69V132H1067.29V114H1014.89V186.4H994.688Z" fill="white"/>
<g clip-path="url(#clip0_1466_3863)">
<rect y="11" width="280" height="280" rx="16" fill="white"/>
<line y1="74" x2="280" y2="74" stroke="#00D400" stroke-width="14"/>
<line y1="88" x2="280" y2="88" stroke="#00D400" stroke-width="14"/>
<line y1="60" x2="280" y2="60" stroke="#00DF00" stroke-width="14"/>
<line y1="46" x2="280" y2="46" stroke="#00DF00" stroke-width="14"/>
<line y1="32" x2="280" y2="32" stroke="#00EA00" stroke-width="14"/>
<line y1="18" x2="280" y2="18" stroke="#00EA00" stroke-width="14"/>
<line y1="102" x2="280" y2="102" stroke="#00C900" stroke-width="14"/>
<line y1="116" x2="280" y2="116" stroke="#00C900" stroke-width="14"/>
<line y1="130" x2="280" y2="130" stroke="#00BE00" stroke-width="14"/>
<line y1="144" x2="280" y2="144" stroke="#00BE00" stroke-width="14"/>
<line y1="158" x2="280" y2="158" stroke="#00B300" stroke-width="14"/>
<line y1="172" x2="280" y2="172" stroke="#00B300" stroke-width="14"/>
<line y1="186" x2="280" y2="186" stroke="#00A800" stroke-width="14"/>
<line y1="200" x2="280" y2="200" stroke="#00A800" stroke-width="14"/>
<line y1="214" x2="280" y2="214" stroke="#009D00" stroke-width="14"/>
<line y1="228" x2="280" y2="228" stroke="#009D00" stroke-width="14"/>
<line y1="242" x2="280" y2="242" stroke="#009200" stroke-width="14"/>
<line y1="256" x2="280" y2="256" stroke="#009200" stroke-width="14"/>
<line y1="270" x2="280" y2="270" stroke="#008700" stroke-width="14"/>
<line y1="284" x2="280" y2="284" stroke="#008700" stroke-width="14"/>
<line x1="238" y1="60" x2="196" y2="60" stroke="#F5F5F5" stroke-width="14"/>
<line x1="231" y1="67" x2="231" y2="81" stroke="#F5F5F5" stroke-width="14"/>
<line x1="231" y1="81" x2="231" y2="95" stroke="#F5F5F5" stroke-width="14"/>
<line x1="231" y1="95" x2="231" y2="109" stroke="#F5F5F5" stroke-width="14"/>
<line x1="238" y1="144" x2="196" y2="144" stroke="#F5F5F5" stroke-width="14"/>
<line x1="126" y1="130" x2="210" y2="130" stroke="#F5F5F5" stroke-width="14"/>
<line x1="210" y1="74" x2="84" y2="74" stroke="#F5F5F5" stroke-width="14"/>
<line x1="56" y1="102" x2="84" y2="102" stroke="#F5F5F5" stroke-width="14"/>
<line x1="70" y1="88" x2="98" y2="88" stroke="#F5F5F5" stroke-width="14"/>
<line x1="231" y1="109" x2="231" y2="123" stroke="#F5F5F5" stroke-width="14"/>
<line x1="231" y1="123" x2="231" y2="137" stroke="#F5F5F5" stroke-width="14"/>
<line x1="63" y1="109" x2="63" y2="123" stroke="#F5F5F5" stroke-width="14"/>
<line x1="63" y1="123" x2="63" y2="137" stroke="#F5F5F5" stroke-width="14"/>
<line x1="63" y1="137" x2="63" y2="151" stroke="#F5F5F5" stroke-width="14"/>
<line x1="119" y1="137" x2="119" y2="151" stroke="#F5F5F5" stroke-width="14"/>
<line x1="119" y1="151" x2="119" y2="165" stroke="#F5F5F5" stroke-width="14"/>
<line x1="63" y1="151" x2="63" y2="165" stroke="#F5F5F5" stroke-width="14"/>
<line x1="119" y1="165" x2="119" y2="179" stroke="#F5F5F5" stroke-width="14"/>
<line x1="119" y1="179" x2="119" y2="193" stroke="#F5F5F5" stroke-width="14"/>
<line x1="119" y1="193" x2="119" y2="207" stroke="#F5F5F5" stroke-width="14"/>
<line x1="112" y1="214" x2="140" y2="214" stroke="#F5F5F5" stroke-width="14"/>
<line x1="70" y1="214" x2="42" y2="214" stroke="#F5F5F5" stroke-width="14"/>
<line x1="63" y1="193" x2="63" y2="207" stroke="#F5F5F5" stroke-width="14"/>
<line x1="63" y1="179" x2="63" y2="193" stroke="#F5F5F5" stroke-width="14"/>
<line x1="63" y1="165" x2="63" y2="179" stroke="#F5F5F5" stroke-width="14"/>
<line x1="49" y1="221" x2="49" y2="235" stroke="#F5F5F5" stroke-width="14"/>
<line x1="133" y1="221" x2="133" y2="235" stroke="#F5F5F5" stroke-width="14"/>
<line x1="42" y1="242" x2="140" y2="242" stroke="#F5F5F5" stroke-width="14"/>
</g>
<defs>
<clipPath id="clip0_1466_3863">
<rect y="11" width="280" height="280" rx="16" fill="white"/>
</clipPath>
</defs>
</svg>
