<svg width="1358" height="307" viewBox="0 0 1358 307" fill="none" xmlns="http://www.w3.org/2000/svg">
<g clip-path="url(#clip0_1468_4114)">
<rect y="27" width="280" height="280" rx="16" fill="white"/>
<line y1="90" x2="280" y2="90" stroke="#00D400" stroke-width="14"/>
<line y1="104" x2="280" y2="104" stroke="#00D400" stroke-width="14"/>
<line y1="76" x2="280" y2="76" stroke="#00DF00" stroke-width="14"/>
<line y1="62" x2="280" y2="62" stroke="#00DF00" stroke-width="14"/>
<line y1="48" x2="280" y2="48" stroke="#00EA00" stroke-width="14"/>
<line y1="34" x2="280" y2="34" stroke="#00EA00" stroke-width="14"/>
<line y1="118" x2="280" y2="118" stroke="#00C900" stroke-width="14"/>
<line y1="132" x2="280" y2="132" stroke="#00C900" stroke-width="14"/>
<line y1="146" x2="280" y2="146" stroke="#00BE00" stroke-width="14"/>
<line y1="160" x2="280" y2="160" stroke="#00BE00" stroke-width="14"/>
<line y1="174" x2="280" y2="174" stroke="#00B300" stroke-width="14"/>
<line y1="188" x2="280" y2="188" stroke="#00B300" stroke-width="14"/>
<line y1="202" x2="280" y2="202" stroke="#00A800" stroke-width="14"/>
<line y1="216" x2="280" y2="216" stroke="#00A800" stroke-width="14"/>
<line y1="230" x2="280" y2="230" stroke="#009D00" stroke-width="14"/>
<line y1="244" x2="280" y2="244" stroke="#009D00" stroke-width="14"/>
<line y1="258" x2="280" y2="258" stroke="#009200" stroke-width="14"/>
<line y1="272" x2="280" y2="272" stroke="#009200" stroke-width="14"/>
<line y1="286" x2="280" y2="286" stroke="#008700" stroke-width="14"/>
<line y1="300" x2="280" y2="300" stroke="#008700" stroke-width="14"/>
<line x1="238" y1="76" x2="196" y2="76" stroke="#F5F5F5" stroke-width="14"/>
<line x1="231" y1="83" x2="231" y2="97" stroke="#F5F5F5" stroke-width="14"/>
<line x1="231" y1="97" x2="231" y2="111" stroke="#F5F5F5" stroke-width="14"/>
<line x1="231" y1="111" x2="231" y2="125" stroke="#F5F5F5" stroke-width="14"/>
<line x1="238" y1="160" x2="196" y2="160" stroke="#F5F5F5" stroke-width="14"/>
<line x1="126" y1="146" x2="210" y2="146" stroke="#F5F5F5" stroke-width="14"/>
<line x1="210" y1="90" x2="84" y2="90" stroke="#F5F5F5" stroke-width="14"/>
<line x1="56" y1="118" x2="84" y2="118" stroke="#F5F5F5" stroke-width="14"/>
<line x1="70" y1="104" x2="98" y2="104" stroke="#F5F5F5" stroke-width="14"/>
<line x1="231" y1="125" x2="231" y2="139" stroke="#F5F5F5" stroke-width="14"/>
<line x1="231" y1="139" x2="231" y2="153" stroke="#F5F5F5" stroke-width="14"/>
<line x1="63" y1="125" x2="63" y2="139" stroke="#F5F5F5" stroke-width="14"/>
<line x1="63" y1="139" x2="63" y2="153" stroke="#F5F5F5" stroke-width="14"/>
<line x1="63" y1="153" x2="63" y2="167" stroke="#F5F5F5" stroke-width="14"/>
<line x1="119" y1="153" x2="119" y2="167" stroke="#F5F5F5" stroke-width="14"/>
<line x1="119" y1="167" x2="119" y2="181" stroke="#F5F5F5" stroke-width="14"/>
<line x1="63" y1="167" x2="63" y2="181" stroke="#F5F5F5" stroke-width="14"/>
<line x1="119" y1="181" x2="119" y2="195" stroke="#F5F5F5" stroke-width="14"/>
<line x1="119" y1="195" x2="119" y2="209" stroke="#F5F5F5" stroke-width="14"/>
<line x1="119" y1="209" x2="119" y2="223" stroke="#F5F5F5" stroke-width="14"/>
<line x1="112" y1="230" x2="140" y2="230" stroke="#F5F5F5" stroke-width="14"/>
<line x1="70" y1="230" x2="42" y2="230" stroke="#F5F5F5" stroke-width="14"/>
<line x1="63" y1="209" x2="63" y2="223" stroke="#F5F5F5" stroke-width="14"/>
<line x1="63" y1="195" x2="63" y2="209" stroke="#F5F5F5" stroke-width="14"/>
<line x1="63" y1="181" x2="63" y2="195" stroke="#F5F5F5" stroke-width="14"/>
<line x1="49" y1="237" x2="49" y2="251" stroke="#F5F5F5" stroke-width="14"/>
<line x1="133" y1="237" x2="133" y2="251" stroke="#F5F5F5" stroke-width="14"/>
<line x1="42" y1="258" x2="140" y2="258" stroke="#F5F5F5" stroke-width="14"/>
</g>
<rect x="7" y="34" width="266" height="266" rx="9" stroke="#F5F5F5" stroke-width="14"/>
<path d="M360.8 261.36V106.8H386.28V81.32H465.24V106.8H491V185.2H465.24V210.68H389.08V261.36H360.8ZM389.08 182.4H462.44V109.6H389.08V182.4ZM508.194 261.36V81.32H536.474V261.36H508.194ZM579.075 261.36V236.16H553.595V132H581.875V233.36H655.235V132H683.795V236.16H658.035V261.36H579.075ZM706.458 261.36V132H785.698V157.48H808.098V132H862.138V157.48H887.338V261.36H859.338V160H810.898V261.36H782.898V160H734.738V261.36H706.458ZM929.918 261.36V236.16H904.438V81.32H932.718V132H1008.88V157.48H1034.64V236.16H1008.88V261.36H929.918ZM932.718 233.36H1006.08V160H932.718V233.36ZM1077.31 261.36V236.16H1051.83V157.48H1077.31V132H1156.27V157.48H1182.03V185.2H1153.47V160H1080.11V182.4H1131.07V210.68H1080.11V233.36H1153.47V207.6H1182.03V235.88H1156.27V261.36H1077.31ZM1204.69 261.36V157.48H1230.17V132H1309.13V157.48H1334.89V185.2H1306.33V160H1232.97V261.36H1204.69Z" fill="white"/>
<defs>
<clipPath id="clip0_1468_4114">
<rect y="27" width="280" height="280" rx="16" fill="white"/>
</clipPath>
</defs>
</svg>
