<svg width="753" height="203" viewBox="0 0 753 203" fill="none" xmlns="http://www.w3.org/2000/svg">
<path d="M253.4 148.68V71.4H266.14V58.66H305.62V71.4H318.5V110.6H305.62V123.34H267.54V148.68H253.4ZM267.54 109.2H304.22V72.8H267.54V109.2ZM327.097 148.68V58.66H341.237V148.68H327.097ZM362.538 148.68V136.08H349.798V84H363.938V134.68H400.618V84H414.898V136.08H402.018V148.68H362.538ZM426.229 148.68V84H465.849V96.74H477.049V84H504.069V96.74H516.669V148.68H502.669V98H478.449V148.68H464.449V98H440.369V148.68H426.229ZM537.959 148.68V136.08H525.219V58.66H539.359V84H577.439V96.74H590.319V136.08H577.439V148.68H537.959ZM539.359 134.68H576.039V98H539.359V134.68ZM611.656 148.68V136.08H598.916V96.74H611.656V84H651.136V96.74H664.016V110.6H649.736V98H613.056V109.2H638.536V123.34H613.056V134.68H649.736V121.8H664.016V135.94H651.136V148.68H611.656ZM675.347 148.68V96.74H688.087V84H727.567V96.74H740.447V110.6H726.167V98H689.487V148.68H675.347Z" fill="#191919"/>
<g clip-path="url(#clip0_1490_2138)">
<line y1="45.1797" x2="202.723" y2="45.1797" stroke="#00D400" stroke-width="11"/>
<line y1="55.3164" x2="202.723" y2="55.3164" stroke="#00D400" stroke-width="11"/>
<line y1="35.043" x2="202.723" y2="35.043" stroke="#00DF00" stroke-width="11"/>
<line y1="24.9102" x2="202.723" y2="24.9102" stroke="#00DF00" stroke-width="11"/>
<line y1="14.7734" x2="202.723" y2="14.7734" stroke="#00EA00" stroke-width="11"/>
<line y1="4.63672" x2="202.723" y2="4.63672" stroke="#00EA00" stroke-width="11"/>
<line y1="65.4531" x2="202.723" y2="65.4531" stroke="#00C900" stroke-width="11"/>
<line y1="75.5898" x2="202.723" y2="75.5898" stroke="#00C900" stroke-width="11"/>
<line y1="85.7266" x2="202.723" y2="85.7266" stroke="#00BE00" stroke-width="11"/>
<line y1="95.8633" x2="202.723" y2="95.8633" stroke="#00BE00" stroke-width="11"/>
<line y1="105.996" x2="202.723" y2="105.996" stroke="#00B300" stroke-width="11"/>
<line y1="116.133" x2="202.723" y2="116.133" stroke="#00B300" stroke-width="11"/>
<line y1="126.27" x2="202.723" y2="126.27" stroke="#00A800" stroke-width="11"/>
<line y1="136.406" x2="202.723" y2="136.406" stroke="#00A800" stroke-width="11"/>
<line y1="146.543" x2="202.723" y2="146.543" stroke="#009D00" stroke-width="11"/>
<line y1="156.68" x2="202.723" y2="156.68" stroke="#009D00" stroke-width="11"/>
<line y1="166.816" x2="202.723" y2="166.816" stroke="#009200" stroke-width="11"/>
<line y1="176.949" x2="202.723" y2="176.949" stroke="#009200" stroke-width="11"/>
<line y1="187.086" x2="202.723" y2="187.086" stroke="#008700" stroke-width="11"/>
<line y1="197.227" x2="202.723" y2="197.227" stroke="#008700" stroke-width="11"/>
<path d="M155 50.8555H131.857M151.144 54.7117V62.4259M151.144 62.4283V93.2826M155 97.1421H131.857M85.5717 89.4278H139.572M139.572 58.5688H70.1431M54.7142 73.9979H70.1427M62.4292 66.2845H77.8577M58.5713 77.855V93.2826M58.5713 93.285V116.426M89.4288 93.285V116.426M89.4288 116.428V131.856M85.5717 135.711H101M62.4292 135.712H47.0006M58.5713 131.856V116.428M50.8571 139.568V147.283M97.1438 139.568V147.283M47 151.141H101M143.429 54.7117V93.2831M73.9996 70.1417V147.285M81.7146 62.4283V147.285M85.5717 143.428H93.286M54.7142 143.428H62.4285M66.2854 147.285V77.8564M85.5717 66.2845H139.572M85.5717 73.9979H139.572M85.5717 81.7112H139.572" stroke="#F5F5F5" stroke-width="7.71429"/>
</g>
<defs>
<clipPath id="clip0_1490_2138">
<rect width="202.723" height="202.723" rx="101.362" fill="white"/>
</clipPath>
</defs>
</svg>
