<svg width="1208" height="321" viewBox="0 0 1208 321" fill="none" xmlns="http://www.w3.org/2000/svg">
<g clip-path="url(#clip0_1468_4112)">
<rect x="13" y="13" width="280" height="280" rx="16" fill="white"/>
<line x1="13" y1="76" x2="293" y2="76" stroke="#00D400" stroke-width="14"/>
<line x1="13" y1="90" x2="293" y2="90" stroke="#00D400" stroke-width="14"/>
<line x1="13" y1="62" x2="293" y2="62" stroke="#00DF00" stroke-width="14"/>
<line x1="13" y1="48" x2="293" y2="48" stroke="#00DF00" stroke-width="14"/>
<line x1="13" y1="34" x2="293" y2="34" stroke="#00EA00" stroke-width="14"/>
<line x1="13" y1="20" x2="293" y2="20" stroke="#00EA00" stroke-width="14"/>
<line x1="13" y1="104" x2="293" y2="104" stroke="#00C900" stroke-width="14"/>
<line x1="13" y1="118" x2="293" y2="118" stroke="#00C900" stroke-width="14"/>
<line x1="13" y1="132" x2="293" y2="132" stroke="#00BE00" stroke-width="14"/>
<line x1="13" y1="146" x2="293" y2="146" stroke="#00BE00" stroke-width="14"/>
<line x1="13" y1="160" x2="293" y2="160" stroke="#00B300" stroke-width="14"/>
<line x1="13" y1="174" x2="293" y2="174" stroke="#00B300" stroke-width="14"/>
<line x1="13" y1="188" x2="293" y2="188" stroke="#00A800" stroke-width="14"/>
<line x1="13" y1="202" x2="293" y2="202" stroke="#00A800" stroke-width="14"/>
<line x1="13" y1="216" x2="293" y2="216" stroke="#009D00" stroke-width="14"/>
<line x1="13" y1="230" x2="293" y2="230" stroke="#009D00" stroke-width="14"/>
<line x1="13" y1="244" x2="293" y2="244" stroke="#009200" stroke-width="14"/>
<line x1="13" y1="258" x2="293" y2="258" stroke="#009200" stroke-width="14"/>
<line x1="13" y1="272" x2="293" y2="272" stroke="#008700" stroke-width="14"/>
<line x1="13" y1="286" x2="293" y2="286" stroke="#008700" stroke-width="14"/>
<line x1="251" y1="62" x2="209" y2="62" stroke="#F5F5F5" stroke-width="14"/>
<line x1="244" y1="69" x2="244" y2="83" stroke="#F5F5F5" stroke-width="14"/>
<line x1="244" y1="83" x2="244" y2="97" stroke="#F5F5F5" stroke-width="14"/>
<line x1="244" y1="97" x2="244" y2="111" stroke="#F5F5F5" stroke-width="14"/>
<line x1="251" y1="146" x2="209" y2="146" stroke="#F5F5F5" stroke-width="14"/>
<line x1="139" y1="132" x2="223" y2="132" stroke="#F5F5F5" stroke-width="14"/>
<line x1="223" y1="76" x2="97" y2="76" stroke="#F5F5F5" stroke-width="14"/>
<line x1="69" y1="104" x2="97" y2="104" stroke="#F5F5F5" stroke-width="14"/>
<line x1="83" y1="90" x2="111" y2="90" stroke="#F5F5F5" stroke-width="14"/>
<line x1="244" y1="111" x2="244" y2="125" stroke="#F5F5F5" stroke-width="14"/>
<line x1="244" y1="125" x2="244" y2="139" stroke="#F5F5F5" stroke-width="14"/>
<line x1="76" y1="111" x2="76" y2="125" stroke="#F5F5F5" stroke-width="14"/>
<line x1="76" y1="125" x2="76" y2="139" stroke="#F5F5F5" stroke-width="14"/>
<line x1="76" y1="139" x2="76" y2="153" stroke="#F5F5F5" stroke-width="14"/>
<line x1="132" y1="139" x2="132" y2="153" stroke="#F5F5F5" stroke-width="14"/>
<line x1="132" y1="153" x2="132" y2="167" stroke="#F5F5F5" stroke-width="14"/>
<line x1="76" y1="153" x2="76" y2="167" stroke="#F5F5F5" stroke-width="14"/>
<line x1="132" y1="167" x2="132" y2="181" stroke="#F5F5F5" stroke-width="14"/>
<line x1="132" y1="181" x2="132" y2="195" stroke="#F5F5F5" stroke-width="14"/>
<line x1="132" y1="195" x2="132" y2="209" stroke="#F5F5F5" stroke-width="14"/>
<line x1="125" y1="216" x2="153" y2="216" stroke="#F5F5F5" stroke-width="14"/>
<line x1="83" y1="216" x2="55" y2="216" stroke="#F5F5F5" stroke-width="14"/>
<line x1="76" y1="195" x2="76" y2="209" stroke="#F5F5F5" stroke-width="14"/>
<line x1="76" y1="181" x2="76" y2="195" stroke="#F5F5F5" stroke-width="14"/>
<line x1="76" y1="167" x2="76" y2="181" stroke="#F5F5F5" stroke-width="14"/>
<line x1="62" y1="223" x2="62" y2="237" stroke="#F5F5F5" stroke-width="14"/>
<line x1="146" y1="223" x2="146" y2="237" stroke="#F5F5F5" stroke-width="14"/>
<line x1="55" y1="244" x2="153" y2="244" stroke="#F5F5F5" stroke-width="14"/>
<rect x="19.5" y="19.5" width="267" height="267" rx="9.5" stroke="#F5F5F5" stroke-width="13"/>
</g>
<rect x="6.5" y="6.5" width="293" height="293" rx="22.5" stroke="black" stroke-width="13"/>
<path d="M405.2 217.64V96.2H425.22V76.18H487.26V96.2H507.5V157.8H487.26V177.82H427.42V217.64H405.2ZM427.42 155.6H485.06V98.4H427.42V155.6ZM521.009 217.64V76.18H543.229V217.64H521.009ZM576.702 217.64V197.84H556.682V116H578.902V195.64H636.542V116H658.982V197.84H638.742V217.64H576.702ZM676.788 217.64V116H739.048V136.02H756.648V116H799.108V136.02H818.908V217.64H796.908V138H758.848V217.64H736.848V138H699.008V217.64H676.788ZM852.364 217.64V197.84H832.344V76.18H854.564V116H914.404V136.02H934.644V197.84H914.404V217.64H852.364ZM854.564 195.64H912.204V138H854.564V195.64ZM968.173 217.64V197.84H948.153V136.02H968.173V116H1030.21V136.02H1050.45V157.8H1028.01V138H970.373V155.6H1010.41V177.82H970.373V195.64H1028.01V175.4H1050.45V197.62H1030.21V217.64H968.173ZM1068.26 217.64V136.02H1088.28V116H1150.32V136.02H1170.56V157.8H1148.12V138H1090.48V217.64H1068.26Z" fill="white"/>
<defs>
<clipPath id="clip0_1468_4112">
<rect x="13" y="13" width="280" height="280" rx="16" fill="white"/>
</clipPath>
</defs>
</svg>
