<svg width="1200" height="630" viewBox="0 0 1200 630" fill="none" xmlns="http://www.w3.org/2000/svg">
<rect width="1200" height="630" rx="8" fill="url(#paint0_linear_1495_2073)"/>
<path d="M489.4 356.68V279.4H502.14V266.66H541.62V279.4H554.5V318.6H541.62V331.34H503.54V356.68H489.4ZM503.54 317.2H540.22V280.8H503.54V317.2ZM563.097 356.68V266.66H577.237V356.68H563.097ZM598.538 356.68V344.08H585.798V292H599.938V342.68H636.618V292H650.898V344.08H638.018V356.68H598.538ZM662.229 356.68V292H701.849V304.74H713.049V292H740.069V304.74H752.669V356.68H738.669V306H714.449V356.68H700.449V306H676.369V356.68H662.229ZM773.959 356.68V344.08H761.219V266.66H775.359V292H813.439V304.74H826.319V344.08H813.439V356.68H773.959ZM775.359 342.68H812.039V306H775.359V342.68ZM847.656 356.68V344.08H834.916V304.74H847.656V292H887.136V304.74H900.016V318.6H885.736V306H849.056V317.2H874.536V331.34H849.056V342.68H885.736V329.8H900.016V343.94H887.136V356.68H847.656ZM911.347 356.68V304.74H924.087V292H963.567V304.74H976.447V318.6H962.167V306H925.487V356.68H911.347Z" fill="#F5F5F5"/>
<g clip-path="url(#clip0_1495_2073)">
<line x1="233" y1="259.18" x2="435.723" y2="259.18" stroke="#00D400" stroke-width="11"/>
<line x1="233" y1="269.316" x2="435.723" y2="269.316" stroke="#00D400" stroke-width="11"/>
<line x1="233" y1="249.043" x2="435.723" y2="249.043" stroke="#00DF00" stroke-width="11"/>
<line x1="233" y1="238.91" x2="435.723" y2="238.91" stroke="#00DF00" stroke-width="11"/>
<line x1="233" y1="228.773" x2="435.723" y2="228.773" stroke="#00EA00" stroke-width="11"/>
<line x1="233" y1="218.637" x2="435.723" y2="218.637" stroke="#00EA00" stroke-width="11"/>
<line x1="233" y1="279.453" x2="435.723" y2="279.453" stroke="#00C900" stroke-width="11"/>
<line x1="233" y1="289.59" x2="435.723" y2="289.59" stroke="#00C900" stroke-width="11"/>
<line x1="233" y1="299.727" x2="435.723" y2="299.727" stroke="#00BE00" stroke-width="11"/>
<line x1="233" y1="309.863" x2="435.723" y2="309.863" stroke="#00BE00" stroke-width="11"/>
<line x1="233" y1="319.996" x2="435.723" y2="319.996" stroke="#00B300" stroke-width="11"/>
<line x1="233" y1="330.133" x2="435.723" y2="330.133" stroke="#00B300" stroke-width="11"/>
<line x1="233" y1="340.27" x2="435.723" y2="340.27" stroke="#00A800" stroke-width="11"/>
<line x1="233" y1="350.406" x2="435.723" y2="350.406" stroke="#00A800" stroke-width="11"/>
<line x1="233" y1="360.543" x2="435.723" y2="360.543" stroke="#009D00" stroke-width="11"/>
<line x1="233" y1="370.68" x2="435.723" y2="370.68" stroke="#009D00" stroke-width="11"/>
<line x1="233" y1="380.816" x2="435.723" y2="380.816" stroke="#009200" stroke-width="11"/>
<line x1="233" y1="390.949" x2="435.723" y2="390.949" stroke="#009200" stroke-width="11"/>
<line x1="233" y1="401.086" x2="435.723" y2="401.086" stroke="#008700" stroke-width="11"/>
<line x1="233" y1="411.227" x2="435.723" y2="411.227" stroke="#008700" stroke-width="11"/>
<path d="M390 315H366.215V306.57H326.572V346.213H334V370H279V346.213H286.929V282.784H294.856V274.858H302.785V266.93H310.714V266.929H366.214V259H390V315ZM310.714 259.001H286.929V259H310.714V259.001Z" fill="#F5F5F5"/>
</g>
<defs>
<linearGradient id="paint0_linear_1495_2073" x1="0" y1="315" x2="1200" y2="315" gradientUnits="userSpaceOnUse">
<stop offset="0.225961"/>
<stop offset="0.850961" stop-color="#002C00"/>
<stop offset="0.937499" stop-color="#003D00"/>
<stop offset="1" stop-color="#015801"/>
</linearGradient>
<clipPath id="clip0_1495_2073">
<rect x="233" y="214" width="202.723" height="202.723" rx="101.362" fill="white"/>
</clipPath>
</defs>
</svg>
