<svg width="1200" height="630" viewBox="0 0 1200 630" fill="none" xmlns="http://www.w3.org/2000/svg">
<rect width="1200" height="630" rx="8" fill="url(#paint0_linear_1495_2073)"/>
<path d="M481.4 365.68V288.4H494.14V275.66H533.62V288.4H546.5V327.6H533.62V340.34H495.54V365.68H481.4ZM495.54 326.2H532.22V289.8H495.54V326.2ZM555.097 365.68V275.66H569.237V365.68H555.097ZM590.538 365.68V353.08H577.798V301H591.938V351.68H628.618V301H642.898V353.08H630.018V365.68H590.538ZM654.229 365.68V301H693.849V313.74H705.049V301H732.069V313.74H744.669V365.68H730.669V315H706.449V365.68H692.449V315H668.369V365.68H654.229ZM765.959 365.68V353.08H753.219V275.66H767.359V301H805.439V313.74H818.319V353.08H805.439V365.68H765.959ZM767.359 351.68H804.039V315H767.359V351.68ZM839.656 365.68V353.08H826.916V313.74H839.656V301H879.136V313.74H892.016V327.6H877.736V315H841.056V326.2H866.536V340.34H841.056V351.68H877.736V338.8H892.016V352.94H879.136V365.68H839.656ZM903.347 365.68V313.74H916.087V301H955.567V313.74H968.447V327.6H954.167V315H917.487V365.68H903.347Z" fill="#F5F5F5"/>
<g clip-path="url(#clip0_1495_2073)">
<line x1="223" y1="259.18" x2="425.723" y2="259.18" stroke="#00D400" stroke-width="11"/>
<line x1="223" y1="269.316" x2="425.723" y2="269.316" stroke="#00D400" stroke-width="11"/>
<line x1="223" y1="249.043" x2="425.723" y2="249.043" stroke="#00DF00" stroke-width="11"/>
<line x1="223" y1="238.91" x2="425.723" y2="238.91" stroke="#00DF00" stroke-width="11"/>
<line x1="223" y1="228.773" x2="425.723" y2="228.773" stroke="#00EA00" stroke-width="11"/>
<line x1="223" y1="218.637" x2="425.723" y2="218.637" stroke="#00EA00" stroke-width="11"/>
<line x1="223" y1="279.453" x2="425.723" y2="279.453" stroke="#00C900" stroke-width="11"/>
<line x1="223" y1="289.59" x2="425.723" y2="289.59" stroke="#00C900" stroke-width="11"/>
<line x1="223" y1="299.727" x2="425.723" y2="299.727" stroke="#00BE00" stroke-width="11"/>
<line x1="223" y1="309.863" x2="425.723" y2="309.863" stroke="#00BE00" stroke-width="11"/>
<line x1="223" y1="319.996" x2="425.723" y2="319.996" stroke="#00B300" stroke-width="11"/>
<line x1="223" y1="330.133" x2="425.723" y2="330.133" stroke="#00B300" stroke-width="11"/>
<line x1="223" y1="340.27" x2="425.723" y2="340.27" stroke="#00A800" stroke-width="11"/>
<line x1="223" y1="350.406" x2="425.723" y2="350.406" stroke="#00A800" stroke-width="11"/>
<line x1="223" y1="360.543" x2="425.723" y2="360.543" stroke="#009D00" stroke-width="11"/>
<line x1="223" y1="370.68" x2="425.723" y2="370.68" stroke="#009D00" stroke-width="11"/>
<line x1="223" y1="380.816" x2="425.723" y2="380.816" stroke="#009200" stroke-width="11"/>
<line x1="223" y1="390.949" x2="425.723" y2="390.949" stroke="#009200" stroke-width="11"/>
<line x1="223" y1="401.086" x2="425.723" y2="401.086" stroke="#008700" stroke-width="11"/>
<line x1="223" y1="411.227" x2="425.723" y2="411.227" stroke="#008700" stroke-width="11"/>
<line x1="378" y1="264.857" x2="354.857" y2="264.857" stroke="#F5F5F5" stroke-width="7.71429"/>
<line x1="374.144" y1="268.715" x2="374.144" y2="276.429" stroke="#F5F5F5" stroke-width="7.71429"/>
<line x1="374.144" y1="276.43" x2="374.144" y2="284.144" stroke="#F5F5F5" stroke-width="7.71429"/>
<line x1="374.144" y1="284.145" x2="374.144" y2="291.859" stroke="#F5F5F5" stroke-width="7.71429"/>
<line x1="378" y1="311.142" x2="354.857" y2="311.142" stroke="#F5F5F5" stroke-width="7.71429"/>
<line x1="308.571" y1="303.428" x2="362.571" y2="303.428" stroke="#F5F5F5" stroke-width="7.71429"/>
<line x1="362.571" y1="272.572" x2="293.143" y2="272.572" stroke="#F5F5F5" stroke-width="7.71429"/>
<line x1="277.714" y1="287.998" x2="293.142" y2="287.998" stroke="#F5F5F5" stroke-width="7.71429"/>
<line x1="285.429" y1="280.287" x2="300.857" y2="280.287" stroke="#F5F5F5" stroke-width="7.71429"/>
<line x1="374.144" y1="291.855" x2="374.144" y2="299.57" stroke="#F5F5F5" stroke-width="7.71429"/>
<line x1="374.144" y1="299.57" x2="374.144" y2="307.285" stroke="#F5F5F5" stroke-width="7.71429"/>
<line x1="281.571" y1="291.855" x2="281.571" y2="299.57" stroke="#F5F5F5" stroke-width="7.71429"/>
<line x1="281.571" y1="299.57" x2="281.571" y2="307.285" stroke="#F5F5F5" stroke-width="7.71429"/>
<line x1="281.571" y1="307.285" x2="281.571" y2="314.999" stroke="#F5F5F5" stroke-width="7.71429"/>
<line x1="312.428" y1="307.285" x2="312.428" y2="314.999" stroke="#F5F5F5" stroke-width="7.71429"/>
<line x1="312.428" y1="315" x2="312.428" y2="322.714" stroke="#F5F5F5" stroke-width="7.71429"/>
<line x1="281.571" y1="315" x2="281.571" y2="322.714" stroke="#F5F5F5" stroke-width="7.71429"/>
<line x1="312.428" y1="322.715" x2="312.428" y2="330.429" stroke="#F5F5F5" stroke-width="7.71429"/>
<line x1="312.428" y1="330.43" x2="312.428" y2="338.144" stroke="#F5F5F5" stroke-width="7.71429"/>
<line x1="312.428" y1="338.145" x2="312.428" y2="345.859" stroke="#F5F5F5" stroke-width="7.71429"/>
<line x1="308.571" y1="349.713" x2="324" y2="349.713" stroke="#F5F5F5" stroke-width="7.71429"/>
<line x1="285.429" y1="349.713" x2="270" y2="349.713" stroke="#F5F5F5" stroke-width="7.71429"/>
<line x1="281.571" y1="338.145" x2="281.571" y2="345.859" stroke="#F5F5F5" stroke-width="7.71429"/>
<line x1="281.571" y1="330.43" x2="281.571" y2="338.144" stroke="#F5F5F5" stroke-width="7.71429"/>
<line x1="281.571" y1="322.715" x2="281.571" y2="330.429" stroke="#F5F5F5" stroke-width="7.71429"/>
<line x1="273.857" y1="353.57" x2="273.857" y2="361.285" stroke="#F5F5F5" stroke-width="7.71429"/>
<line x1="320.144" y1="353.57" x2="320.144" y2="361.285" stroke="#F5F5F5" stroke-width="7.71429"/>
<line x1="270" y1="365.143" x2="324" y2="365.143" stroke="#F5F5F5" stroke-width="7.71429"/>
<line x1="366.428" y1="268.715" x2="366.428" y2="307.286" stroke="#F5F5F5" stroke-width="7.71429"/>
<line x1="297" y1="284.145" x2="297" y2="361.287" stroke="#F5F5F5" stroke-width="7.71429"/>
<line x1="304.715" y1="276.43" x2="304.715" y2="361.287" stroke="#F5F5F5" stroke-width="7.71429"/>
<line x1="308.571" y1="357.428" x2="316.286" y2="357.428" stroke="#F5F5F5" stroke-width="7.71429"/>
<line x1="277.714" y1="357.428" x2="285.428" y2="357.428" stroke="#F5F5F5" stroke-width="7.71429"/>
<line x1="289.285" y1="361.285" x2="289.285" y2="291.857" stroke="#F5F5F5" stroke-width="7.71429"/>
<line x1="308.571" y1="280.287" x2="362.571" y2="280.287" stroke="#F5F5F5" stroke-width="7.71429"/>
<line x1="308.571" y1="287.998" x2="362.571" y2="287.998" stroke="#F5F5F5" stroke-width="7.71429"/>
<line x1="308.571" y1="295.713" x2="362.571" y2="295.713" stroke="#F5F5F5" stroke-width="7.71429"/>
</g>
<defs>
<linearGradient id="paint0_linear_1495_2073" x1="0" y1="315" x2="1200" y2="315" gradientUnits="userSpaceOnUse">
<stop offset="0.225961"/>
<stop offset="0.850961" stop-color="#002C00"/>
<stop offset="0.937499" stop-color="#003D00"/>
<stop offset="1" stop-color="#015801"/>
</linearGradient>
<clipPath id="clip0_1495_2073">
<rect x="223" y="214" width="202.723" height="202.723" rx="101.362" fill="white"/>
</clipPath>
</defs>
</svg>
