<svg width="162" height="44" viewBox="0 0 162 44" fill="none" xmlns="http://www.w3.org/2000/svg">
<g clip-path="url(#clip0_1378_3488)">
<path d="M25.7802 0.0399449C13.6402 0.0399449 2.38016 9.85994 0.66016 21.9599C0.222527 24.3671 0.265161 26.8371 0.785609 29.2278C1.30606 31.6185 2.29405 33.8826 3.69275 35.8901C5.09145 37.8975 6.87325 39.6086 8.93566 40.9249C10.9981 42.2412 13.3004 43.1367 15.7102 43.5599C16.9902 43.7799 18.2702 43.8599 19.5502 43.8599C31.6902 43.8599 42.9502 34.0599 44.6702 21.9599C45.1078 19.5527 45.0652 17.0828 44.5447 14.6921C44.0243 12.3014 43.0363 10.0372 41.6376 8.02981C40.2389 6.02238 38.4571 4.3113 36.3947 2.99501C34.3323 1.67872 32.0299 0.783191 29.6202 0.359945C28.3575 0.100602 27.0683 -0.0068269 25.7802 0.0399449ZM35.0902 30.0099H30.5502V21.7399C30.5502 19.3999 29.6202 18.2599 27.6302 18.2599C25.7302 18.2599 24.8502 19.2699 24.8102 21.4299V29.9999H20.5702V21.7299C20.5702 19.3899 19.6402 18.2499 17.6602 18.2499C15.6702 18.2499 14.7902 19.3499 14.7902 21.7299V29.9999H10.1502V21.9999C10.1502 16.7199 12.6202 14.0799 17.5202 14.0799H28.1602C29.119 14.0697 30.0702 14.251 30.958 14.6133C31.8458 14.9757 32.6523 15.5117 33.3302 16.1899C34.8702 17.7799 35.0902 19.5399 35.0902 21.9999V29.9999V30.0099ZM81.1802 22.0899H75.6002C75.9102 20.7699 76.9702 20.0199 78.3902 20.0199C79.7902 20.0199 80.8602 20.8199 81.1702 22.0899H81.1802ZM83.1602 28.3399L80.9602 25.8699C80.1202 26.5699 79.4602 27.0199 78.5302 27.0199C76.9802 27.0199 75.7902 26.0499 75.3502 24.5099H84.9702V24.3299C84.9702 19.8899 82.0602 17.0299 78.3502 17.0299C76.5902 17.0299 74.9102 17.6899 73.6702 18.9599C72.4176 20.2336 71.7156 21.9485 71.7156 23.7349C71.7156 25.5214 72.4176 27.2362 73.6702 28.5099C74.2769 29.1378 75.0042 29.6368 75.8083 29.977C76.6125 30.3173 77.477 30.4917 78.3502 30.4899C80.1743 30.4356 81.903 29.6628 83.1602 28.3399ZM87.4902 23.8899V20.7199H86.0802V17.1999H87.4802V14.2599H91.1502V17.1999H93.4902V20.7199H91.1502V23.5399C91.1502 25.3399 91.9502 26.3599 93.4902 26.5799V30.2299C89.7902 30.1399 87.4902 27.6799 87.4902 23.8899ZM105.06 23.7199C105.06 25.6099 103.64 26.9699 101.96 26.9699C101.538 26.966 101.121 26.8787 100.733 26.713C100.345 26.5473 99.9936 26.3065 99.699 26.0045C99.4044 25.7024 99.1724 25.345 99.0164 24.953C98.8604 24.5609 98.7835 24.1418 98.7902 23.7199C98.7902 21.9199 100.2 20.4199 101.97 20.4199C103.69 20.4199 105.06 21.8199 105.06 23.7199ZM106.6 27.8499L107.35 30.0499H111.33L108.9 23.2299C108.28 21.4699 107.75 19.9299 106.6 18.7899C105.651 17.8726 104.453 17.2552 103.155 17.0146C101.857 16.774 100.517 16.9211 99.302 17.4373C98.0872 17.9535 97.0512 18.8161 96.3235 19.9174C95.5959 21.0187 95.2086 22.3099 95.2102 23.6299C95.2102 25.4299 95.8802 27.1499 97.1602 28.3799C97.7805 29.012 98.5215 29.513 99.3392 29.8531C100.157 30.1933 101.035 30.3656 101.92 30.3599C102.856 30.422 103.79 30.2206 104.617 29.7788C105.445 29.3369 106.131 28.6722 106.6 27.8599V27.8499ZM112.78 23.3599C112.78 19.0999 114.81 16.9399 118.74 16.9399C119.526 16.9299 120.306 17.0768 121.034 17.3722C121.762 17.6675 122.424 18.1054 122.98 18.6599C124.21 19.9299 124.39 21.3799 124.39 23.3599V30.0999H120.95V23.3599C120.95 21.4699 120.2 20.5499 118.61 20.5499C117.02 20.5499 116.27 21.4299 116.27 23.3599V30.0999H112.74L112.78 23.3599ZM135.82 22.0899H130.26C130.57 20.7699 131.63 20.0199 133.04 20.0199C134.5 20.0199 135.56 20.8199 135.82 22.0899ZM137.85 28.3399L135.65 25.8699C134.81 26.5699 134.15 27.0199 133.22 27.0199C131.67 27.0199 130.48 26.0499 130.04 24.5099H139.66V24.3299C139.66 19.8899 136.76 17.0299 133.04 17.0299C131.28 17.0299 129.6 17.6899 128.36 18.9599C127.108 20.2336 126.406 21.9485 126.406 23.7349C126.406 25.5214 127.108 27.2362 128.36 28.5099C128.967 29.1378 129.694 29.6368 130.498 29.977C131.302 30.3173 132.167 30.4917 133.04 30.4899C134.864 30.4356 136.593 29.6628 137.85 28.3399ZM144.3 23.4499L140.24 17.2899H144.78L146.55 20.7199L148.45 17.2899H152.91L148.81 23.4499L153.17 30.0999H148.76L146.55 26.1799L144.3 30.0999H139.75L144.3 23.4499ZM155.64 23.8899V20.7199H154.24V17.1999H155.64V14.2599H159.31V17.1999H161.65V20.7199H159.31V23.5399C159.31 25.3399 160.11 26.3599 161.65 26.5799V30.2299C157.94 30.1399 155.65 27.6799 155.65 23.8899H155.64ZM68.3802 19.0099C67.8276 18.4611 67.1722 18.0266 66.4515 17.7315C65.7308 17.4363 64.959 17.2863 64.1802 17.2899H55.5802C51.6002 17.2899 49.6202 19.4499 49.6202 23.7199V30.2199H53.3702V23.4999C53.3702 21.5599 54.0702 20.6799 55.7102 20.6799C57.3002 20.6799 58.0502 21.5999 58.0502 23.4999V30.2299H61.4902V23.2299C61.5302 21.4699 62.2402 20.6299 63.7902 20.6299C65.3702 20.6299 66.1202 21.5599 66.1202 23.4499V30.1799H69.7902V23.7199C69.7902 21.7399 69.6602 20.2799 68.3802 19.0099Z" fill="white"/>
</g>
<defs>
<clipPath id="clip0_1378_3488">
<rect width="162" height="44" fill="white"/>
</clipPath>
</defs>
</svg>
