<?xml version="1.0" encoding="utf-8"?>
<!-- Generator: Adobe Illustrator 26.0.3, SVG Export Plug-In . SVG Version: 6.00 Build 0)  -->
<svg version="1.1" id="Calque_1" xmlns="http://www.w3.org/2000/svg" xmlns:xlink="http://www.w3.org/1999/xlink" x="0px" y="0px"
	 viewBox="0 0 295.28 86.89" style="enable-background:new 0 0 295.28 86.89;" xml:space="preserve">
<style type="text/css">
	.st0{clip-path:url(#SVGID_00000127734629889938008380000010481050255307231895_);}
	.st1{clip-path:url(#SVGID_00000049916560472877612350000008796333611164626316_);fill:transparent;}
	.st2{clip-path:url(#SVGID_00000049916560472877612350000008796333611164626316_);fill:#FFFFFF;}
</style>
<g id="Logo_bleu_00000137111858640007268960000000036458926904898224_">
	<g>
		<defs>
			<rect id="SVGID_1_" x="6" y="5" width="286" height="79"/>
		</defs>
		<clipPath id="SVGID_00000145774582556084309310000004877968359081712264_">
			<use xlink:href="#SVGID_1_"  style="overflow:visible;"/>
		</clipPath>
		<g style="clip-path:url(#SVGID_00000145774582556084309310000004877968359081712264_);">
			<defs>
				<rect id="SVGID_00000147920992749176895330000012013802892133658805_" x="6" y="5" width="286" height="79"/>
			</defs>
			<clipPath id="SVGID_00000108285080957814116180000010014534531751154101_">
				<use xlink:href="#SVGID_00000147920992749176895330000012013802892133658805_"  style="overflow:visible;"/>
			</clipPath>
			<path style="clip-path:url(#SVGID_00000108285080957814116180000010014534531751154101_);fill:transparent;" d="M266.78,52.53h8.18
				c-0.22,1.79-0.94,3.77-2.16,5.94c-1.22,2.17-2.56,3.95-4.06,5.34c-2.5,2.41-5.59,4.01-9.27,4.83c-1.98,0.48-4.22,0.72-6.72,0.72
				c-6.1,0-11.27-2.2-15.52-6.61c-4.25-4.42-6.37-10.57-6.37-18.47c0-7.81,2.14-14.17,6.41-19.05c4.27-4.89,9.85-7.34,16.74-7.34
				c3.47,0,6.85,0.82,10.12,2.45c3.26,1.63,5.74,3.74,7.45,6.33c1.64,2.45,2.74,5.34,3.29,8.62c0.49,2.25,0.73,5.8,0.73,10.67
				h-35.92c0.15,4.93,1.33,8.89,3.53,11.87c2.2,2.99,5.6,4.48,10.22,4.48c4.3,0,7.74-1.4,10.31-4.17
				C265.16,56.54,266.17,54.67,266.78,52.53"/>
			<path style="clip-path:url(#SVGID_00000108285080957814116180000010014534531751154101_);fill:transparent;" d="M168.88,53.72
				c0,5.27-2,9.03-5.99,11.31c-4,2.28-8.64,3.4-13.93,3.4c-6.17,0-10.99-1.5-14.47-4.53c-3.5-3-5.21-7.07-5.14-12.22h6.49
				c0.16,2.69,0.81,4.89,1.97,6.56c2.19,3.16,6.07,4.74,11.61,4.74c2.48,0,4.75-0.35,6.79-1.04c3.95-1.34,5.93-3.74,5.93-7.21
				c0-2.58-0.84-4.44-2.51-5.54c-1.7-1.06-4.36-2-7.98-2.81l-6.67-1.46c-4.36-0.95-7.44-2-9.26-3.15c-3.13-1.98-4.69-4.94-4.69-8.88
				c0-4.26,1.54-7.75,4.61-10.48c3.08-2.72,7.42-4.09,13.06-4.09c5.19,0,9.59,1.2,13.22,3.58c3.62,2.4,5.43,6.23,5.43,11.48h-6.49
				c-0.34-2.52-1.04-4.46-2.12-5.82c-2.02-2.47-5.43-3.71-10.27-3.71c-3.89,0-6.68,0.8-8.4,2.41c-1.7,1.6-2.55,3.44-2.55,5.54
				c0,2.34,1.01,4.04,3.03,5.13c1.32,0.68,4.3,1.55,8.97,2.59l6.92,1.51c3.34,0.74,5.91,1.74,7.73,3.02
				C167.3,46.27,168.88,49.5,168.88,53.72"/>
			<path style="clip-path:url(#SVGID_00000108285080957814116180000010014534531751154101_);fill:transparent;" d="M65.42,42.03v26.81
				h-8.3V42.88c0-7.26-2.73-13.32-10.54-13.32c-5.38,0-9.61,3.82-11.12,8.39c-0.38,1.02-0.56,2.42-0.56,3.81v27.09h-8.29V35.99
				c0-4.74-0.1-8.46-0.38-12.2h7.35l0.47,7.45h0.19c2.27-4.19,7.54-8.38,15.08-8.38C55.62,22.86,65.42,26.59,65.42,42.03"/>
			<path style="clip-path:url(#SVGID_00000108285080957814116180000010014534531751154101_);fill:#FFFFFF;" d="M45.65,5.13
				C23.75,5.13,6,22.77,6,44.52c0,21.76,17.75,39.39,39.65,39.39c21.91,0,39.66-17.63,39.66-39.39
				C85.31,22.77,67.56,5.13,45.65,5.13 M65.42,68.84h-8.3V42.88c0-7.26-2.73-13.32-10.54-13.32c-5.38,0-9.61,3.82-11.12,8.39
				c-0.38,1.02-0.56,2.42-0.56,3.81v27.09h-8.29V35.99c0-4.74-0.1-8.46-0.38-12.2h7.35l0.47,7.45h0.19
				c2.27-4.19,7.54-8.38,15.08-8.38c6.31,0,16.11,3.73,16.11,19.18V68.84z"/>
			<path style="clip-path:url(#SVGID_00000108285080957814116180000010014534531751154101_);fill:#FFFFFF;" d="M148.65,5
				C126.75,5,109,22.64,109,44.39c0,21.76,17.75,39.39,39.66,39.39c21.9,0,39.65-17.63,39.65-39.39C188.3,22.64,170.55,5,148.65,5
				 M162.89,65.02c-4,2.28-8.64,3.41-13.93,3.41c-6.17,0-10.99-1.51-14.47-4.53c-3.5-3-5.21-7.07-5.14-12.22h6.49
				c0.16,2.69,0.81,4.89,1.97,6.56c2.19,3.16,6.07,4.74,11.61,4.74c2.48,0,4.75-0.35,6.79-1.04c3.95-1.34,5.93-3.74,5.93-7.21
				c0-2.58-0.84-4.43-2.51-5.54c-1.7-1.06-4.37-2-7.98-2.81l-6.67-1.45c-4.36-0.95-7.44-2-9.25-3.15c-3.13-1.98-4.69-4.94-4.69-8.88
				c0-4.26,1.54-7.75,4.61-10.48c3.08-2.72,7.43-4.09,13.06-4.09c5.19,0,9.59,1.2,13.22,3.58c3.62,2.4,5.43,6.23,5.43,11.48h-6.49
				c-0.34-2.52-1.04-4.46-2.12-5.82c-2.02-2.48-5.44-3.71-10.27-3.71c-3.89,0-6.68,0.8-8.39,2.41c-1.7,1.6-2.55,3.45-2.55,5.54
				c0,2.34,1.01,4.04,3.03,5.13c1.32,0.68,4.31,1.55,8.97,2.59l6.92,1.52c3.34,0.74,5.91,1.74,7.73,3.02
				c3.13,2.21,4.7,5.43,4.7,9.65C168.88,58.98,166.88,62.74,162.89,65.02"/>
			<path style="clip-path:url(#SVGID_00000108285080957814116180000010014534531751154101_);fill:#FFFFFF;" d="M252.34,5.22
				c-21.9,0-39.66,17.63-39.66,39.39S230.44,84,252.34,84C274.24,84,292,66.37,292,44.61S274.24,5.22,252.34,5.22 M243.2,57.82
				c2.2,2.99,5.6,4.48,10.22,4.48c4.3,0,7.74-1.4,10.31-4.17c1.44-1.6,2.45-3.48,3.05-5.61h8.18c-0.22,1.79-0.94,3.77-2.16,5.94
				c-1.22,2.17-2.56,3.95-4.06,5.34c-2.5,2.41-5.59,4.01-9.27,4.83c-1.98,0.48-4.22,0.72-6.72,0.72c-6.1,0-11.28-2.2-15.52-6.61
				c-4.25-4.42-6.37-10.57-6.37-18.47c0-7.81,2.14-14.17,6.4-19.05c4.27-4.89,9.85-7.34,16.74-7.34c3.47,0,6.85,0.82,10.12,2.45
				c3.26,1.63,5.74,3.74,7.45,6.33c1.64,2.46,2.74,5.34,3.29,8.62c0.49,2.25,0.73,5.8,0.73,10.67h-35.91
				C239.82,50.89,241,54.84,243.2,57.82"/>
		</g>
	</g>
</g>
</svg>
