<svg width="702" height="152" viewBox="0 0 702 152" fill="none" xmlns="http://www.w3.org/2000/svg">
<path d="M299.426 45.6699V112.34H286.756L253.516 71.8599V112.34H238.276V45.6699H251.036L284.176 86.1499V45.6699H299.426Z" fill="white"/>
<path d="M350.946 86.4296V61.0996H365.806V112.34H351.706V106.24C351.706 106.24 346.446 113.1 335.806 113.1C329.076 113.1 323.746 111.16 319.806 107.29C315.866 103.42 313.906 97.6696 313.906 90.0496V61.0996H328.766V87.8596C328.766 96.1096 332.226 100.24 339.146 100.24C339.136 100.24 350.946 101.19 350.946 86.4296Z" fill="white"/>
<path d="M445.236 60.3398C451.646 60.3398 456.746 62.2298 460.526 66.0098C464.306 69.7898 466.196 75.4598 466.196 83.0098V112.34H451.336V85.2899C451.336 81.2299 450.496 78.1899 448.816 76.1899C447.136 74.1899 444.736 73.1899 441.626 73.1899C438.136 73.1899 435.376 74.3199 433.336 76.5699C431.306 78.8199 430.286 82.1698 430.286 86.6198V112.33H415.426V85.2798C415.426 77.2198 412.186 73.1899 405.716 73.1899C402.286 73.1899 399.556 74.3199 397.526 76.5699C395.496 78.8199 394.476 82.1698 394.476 86.6198V112.33H379.616V61.0898H393.806V66.9899C393.806 66.9899 398.866 60.3199 409.906 60.3199C409.906 60.3199 421.246 59.8098 426.766 68.6998C426.756 68.7198 432.406 60.3398 445.236 60.3398Z" fill="white"/>
<path d="M487.186 112.339C482.266 110.909 478.316 109.049 475.326 106.769L480.566 95.1493C483.426 97.2393 486.816 98.9293 490.756 100.199C494.696 101.469 498.626 102.099 502.566 102.099C506.946 102.099 510.186 101.449 512.276 100.149C514.366 98.8493 515.416 97.1193 515.416 94.9593C515.416 93.3693 514.796 92.0593 513.556 91.0093C512.316 89.9593 510.726 89.1193 508.796 88.4893C506.856 87.8593 504.236 87.1593 500.936 86.3893C495.856 85.1793 491.696 83.9793 488.456 82.7693C485.216 81.5593 482.436 79.6293 480.126 76.9593C477.806 74.2893 476.646 70.7393 476.646 66.2893C476.646 62.4193 477.696 58.9093 479.786 55.7693C481.886 52.6293 485.036 50.1393 489.266 48.2893C493.486 46.4493 498.646 45.5293 504.746 45.5293C508.996 45.5293 513.156 46.0393 517.226 47.0493C521.286 48.0693 524.846 49.5293 527.896 51.4293L523.136 63.1393C516.976 59.6493 510.816 57.8993 504.656 57.8993C500.336 57.8993 497.146 58.5993 495.086 59.9993C493.026 61.3993 491.996 63.2393 491.996 65.5193C491.996 67.8093 493.186 69.4993 495.566 70.6093C497.946 71.7193 501.576 72.8193 506.466 73.8993C511.546 75.1093 515.706 76.3093 518.946 77.5193C522.186 78.7293 524.966 80.6293 527.276 83.2293C529.596 85.8293 530.756 89.3593 530.756 93.7993C530.756 97.6093 529.696 101.089 527.566 104.229C525.436 107.369 522.246 109.869 517.996 111.709C513.746 113.549 508.566 114.469 502.476 114.469C497.206 114.479 492.106 113.769 487.186 112.339Z" fill="white"/>
<path d="M583.566 63.6198C587.466 65.8098 590.536 68.8898 592.756 72.8598C594.976 76.8298 596.086 81.4498 596.086 86.7198C596.086 91.9898 594.976 96.6098 592.756 100.58C590.536 104.55 587.466 107.63 583.566 109.82C579.656 112.01 575.326 113.11 570.566 113.11C564.026 113.11 558.886 111.05 555.136 106.92V130.82H540.276V61.1098H554.466V67.0098C558.146 62.5698 563.516 60.3398 570.566 60.3398C575.326 60.3398 579.656 61.4298 583.566 63.6198ZM577.376 97.0499C579.816 94.4799 581.046 91.0398 581.046 86.7198C581.046 82.3998 579.826 78.9598 577.376 76.3898C574.936 73.8198 571.806 72.5298 567.996 72.5298C564.186 72.5298 561.056 73.8198 558.616 76.3898C556.176 78.9598 554.946 82.4098 554.946 86.7198C554.946 91.0398 556.166 94.4799 558.616 97.0499C561.056 99.6199 564.186 100.91 567.996 100.91C571.806 100.91 574.926 99.6199 577.376 97.0499Z" fill="white"/>
<path d="M615.847 109.72C611.557 107.47 608.207 104.34 605.797 100.34C603.387 96.3398 602.177 91.7998 602.177 86.7198C602.177 81.6398 603.387 77.0999 605.797 73.0999C608.207 69.0999 611.557 65.9698 615.847 63.7198C620.137 61.4698 624.977 60.3398 630.367 60.3398C635.767 60.3398 640.587 61.4698 644.847 63.7198C649.097 65.9698 652.437 69.0999 654.847 73.0999C657.257 77.0999 658.467 81.6398 658.467 86.7198C658.467 91.7998 657.257 96.3398 654.847 100.34C652.437 104.34 649.097 107.47 644.847 109.72C640.597 111.97 635.767 113.1 630.367 113.1C624.977 113.1 620.137 111.97 615.847 109.72ZM639.757 97.0499C642.197 94.4799 643.427 91.0398 643.427 86.7198C643.427 82.3998 642.207 78.9598 639.757 76.3898C637.317 73.8198 634.187 72.5298 630.377 72.5298C626.567 72.5298 623.427 73.8198 620.947 76.3898C618.467 78.9598 617.237 82.4098 617.237 86.7198C617.237 91.0398 618.477 94.4799 620.947 97.0499C623.427 99.6199 626.567 100.91 630.377 100.91C634.187 100.91 637.307 99.6199 639.757 97.0499Z" fill="white"/>
<path d="M701.416 109.86C699.956 110.94 698.166 111.75 696.036 112.29C693.906 112.83 691.666 113.1 689.326 113.1C683.226 113.1 678.516 111.55 675.186 108.43C671.856 105.32 670.186 100.75 670.186 94.7198V73.6698H662.286V62.2398H670.186V49.7598H685.046V62.2398H697.806V73.6698H685.046V94.5298C685.046 96.6898 685.596 98.3598 686.716 99.5298C687.826 100.71 689.396 101.29 691.426 101.29C693.776 101.29 695.776 100.66 697.426 99.3798L701.416 109.86Z" fill="white"/>
<path d="M60.8664 147.63C65.5164 146.97 70.0564 145.73 74.3464 143.92C79.1564 141.89 81.4064 136.34 79.3764 131.53C77.3464 126.72 71.7964 124.47 66.9864 126.5C64.2164 127.67 61.2864 128.48 58.2664 128.9C39.3764 131.54 21.8864 118.31 19.2564 99.4204C17.7364 88.5304 21.3564 77.8304 29.1764 70.0804C32.8864 66.4004 32.9064 60.4104 29.2264 56.7104C25.5464 53.0004 19.5564 52.9804 15.8564 56.6604C3.76641 68.6504 -1.82359 85.1904 0.52641 102.04C2.49641 116.19 9.85641 128.73 21.2564 137.34C21.2464 137.33 37.4364 150.98 60.8664 147.63Z" fill="white"/>
<path d="M147.906 150.711C168.596 147.721 186.126 133.901 193.616 114.361C195.486 109.481 193.046 104.011 188.176 102.141C183.296 100.271 177.826 102.711 175.956 107.581C170.926 120.691 159.176 130.031 145.296 131.961C134.106 133.511 122.846 130.101 114.386 122.591C110.486 119.121 104.506 119.471 101.036 123.371C97.5665 127.271 97.9165 133.251 101.816 136.721C101.816 136.741 120.116 154.721 147.906 150.711Z" fill="white"/>
<path d="M194.087 74.6003C185.027 49.0603 158.937 33.2403 132.067 36.9703C122.597 38.2903 113.557 41.9703 105.907 47.6103C101.707 50.7103 100.817 56.6303 103.917 60.8403C107.017 65.0403 112.947 65.9303 117.147 62.8303C122.267 59.0503 128.327 56.5903 134.677 55.7003C152.707 53.1803 170.197 63.7903 176.267 80.9103C177.647 84.7903 182.087 88.4403 187.917 86.8003C193.207 85.3303 195.837 79.5303 194.087 74.6003Z" fill="white"/>
<path d="M95.2664 108.48C65.3564 108.48 41.0264 84.15 41.0264 54.24C41.0264 24.33 65.3564 0 95.2664 0C106.136 0 116.626 3.21 125.596 9.27C129.926 12.19 131.066 18.07 128.136 22.4C125.216 26.73 119.336 27.87 115.006 24.94C109.176 21 102.346 18.91 95.2664 18.91C75.7864 18.91 59.9464 34.76 59.9464 54.23C59.9464 73.7 75.7964 89.55 95.2664 89.55C102.766 89.55 109.936 87.23 115.986 82.84C120.216 79.77 126.126 80.71 129.196 84.94C132.266 89.17 131.326 95.08 127.096 98.15C117.796 104.91 106.786 108.48 95.2664 108.48Z" fill="white"/>
</svg>
